solid OpenSCAD_Model
  facet normal -1 -0 -0
    outer loop
      vertex 0 0 0
      vertex 0 0 20
      vertex 0 100 0
    endloop
  endfacet
  facet normal -1 0 0
    outer loop
      vertex 0 100 0
      vertex 0 0 20
      vertex 0 100 20
    endloop
  endfacet
  facet normal 0 -1 0
    outer loop
      vertex 0 0 20
      vertex 0 0 0
      vertex 150 0 0
    endloop
  endfacet
  facet normal 0 -1 0
    outer loop
      vertex 150 0 20
      vertex 0 0 20
      vertex 150 0 0
    endloop
  endfacet
  facet normal -0 -0 -1
    outer loop
      vertex 0 0 0
      vertex 0 100 0
      vertex 150 0 0
    endloop
  endfacet
  facet normal 0 0 -1
    outer loop
      vertex 150 0 0
      vertex 0 100 0
      vertex 150 100 0
    endloop
  endfacet
  facet normal 0 1 0
    outer loop
      vertex 0 100 0
      vertex 0 100 20
      vertex 150 100 0
    endloop
  endfacet
  facet normal 0 1 0
    outer loop
      vertex 150 100 0
      vertex 0 100 20
      vertex 150 100 20
    endloop
  endfacet
  facet normal 0 -0 1
    outer loop
      vertex 1 0.5 20
      vertex 0 0 20
      vertex 150 0 20
    endloop
  endfacet
  facet normal 0 -0 1
    outer loop
      vertex 29.75 0.5 20
      vertex 1 0.5 20
      vertex 150 0 20
    endloop
  endfacet
  facet normal 0 -0 1
    outer loop
      vertex 0 100 20
      vertex 0 0 20
      vertex 1 0.5 20
    endloop
  endfacet
  facet normal 0 0 1
    outer loop
      vertex 0 100 20
      vertex 1 0.5 20
      vertex 1 32.5833 20
    endloop
  endfacet
  facet normal 0 -0 1
    outer loop
      vertex 1 33.5833 20
      vertex 1 32.5833 20
      vertex 29.75 32.5833 20
    endloop
  endfacet
  facet normal 0 -0 1
    outer loop
      vertex 30.75 0.5 20
      vertex 29.75 0.5 20
      vertex 150 0 20
    endloop
  endfacet
  facet normal 0 0 1
    outer loop
      vertex 0 100 20
      vertex 1 32.5833 20
      vertex 1 33.5833 20
    endloop
  endfacet
  facet normal 0 0 1
    outer loop
      vertex 1 66.6667 20
      vertex 1 98.75 20
      vertex 0 100 20
    endloop
  endfacet
  facet normal 0 0 1
    outer loop
      vertex 0 100 20
      vertex 1 33.5833 20
      vertex 1 65.6667 20
    endloop
  endfacet
  facet normal 0 0 1
    outer loop
      vertex 120 32.5833 20
      vertex 148.75 32.5833 20
      vertex 120 33.5833 20
    endloop
  endfacet
  facet normal 0 0 1
    outer loop
      vertex 1 65.6667 20
      vertex 29.75 65.6667 20
      vertex 1 66.6667 20
    endloop
  endfacet
  facet normal 0 0 1
    outer loop
      vertex 120 33.5833 20
      vertex 120 65.6667 20
      vertex 119 65.6667 20
    endloop
  endfacet
  facet normal 0 0 1
    outer loop
      vertex 0 100 20
      vertex 1 65.6667 20
      vertex 1 66.6667 20
    endloop
  endfacet
  facet normal 0 -0 1
    outer loop
      vertex 59.5 65.6667 20
      vertex 59.5 33.5833 20
      vertex 60.5 33.5833 20
    endloop
  endfacet
  facet normal 0 0 1
    outer loop
      vertex 150 100 20
      vertex 0 100 20
      vertex 29.75 98.75 20
    endloop
  endfacet
  facet normal 0 -0 1
    outer loop
      vertex 89.25 33.5833 20
      vertex 89.25 32.5833 20
      vertex 90.25 32.5833 20
    endloop
  endfacet
  facet normal 0 -0 1
    outer loop
      vertex 59.5 0.5 20
      vertex 30.75 0.5 20
      vertex 150 0 20
    endloop
  endfacet
  facet normal 0 0 1
    outer loop
      vertex 29.75 66.6667 20
      vertex 1 66.6667 20
      vertex 29.75 65.6667 20
    endloop
  endfacet
  facet normal 0 -0 1
    outer loop
      vertex 29.75 33.5833 20
      vertex 29.75 32.5833 20
      vertex 30.75 32.5833 20
    endloop
  endfacet
  facet normal 0 0 1
    outer loop
      vertex 89.25 66.6667 20
      vertex 60.5 66.6667 20
      vertex 89.25 65.6667 20
    endloop
  endfacet
  facet normal 0 -0 1
    outer loop
      vertex 30.75 33.5833 20
      vertex 29.75 33.5833 20
      vertex 59.5 32.5833 20
    endloop
  endfacet
  facet normal 0 -0 1
    outer loop
      vertex 60.5 0.5 20
      vertex 59.5 0.5 20
      vertex 150 0 20
    endloop
  endfacet
  facet normal 0 -0 1
    outer loop
      vertex 29.75 98.75 20
      vertex 29.75 66.6667 20
      vertex 30.75 66.6667 20
    endloop
  endfacet
  facet normal 0 0 1
    outer loop
      vertex 30.75 66.6667 20
      vertex 30.75 98.75 20
      vertex 29.75 98.75 20
    endloop
  endfacet
  facet normal 0 -0 1
    outer loop
      vertex 29.75 65.6667 20
      vertex 29.75 33.5833 20
      vertex 30.75 33.5833 20
    endloop
  endfacet
  facet normal 0 -0 1
    outer loop
      vertex 59.5 98.75 20
      vertex 59.5 66.6667 20
      vertex 60.5 66.6667 20
    endloop
  endfacet
  facet normal 0 -0 1
    outer loop
      vertex 29.75 66.6667 20
      vertex 29.75 65.6667 20
      vertex 30.75 65.6667 20
    endloop
  endfacet
  facet normal 0 0 1
    outer loop
      vertex 120 0.5 20
      vertex 120 32.5833 20
      vertex 119 33.5833 20
    endloop
  endfacet
  facet normal 0 0 1
    outer loop
      vertex 30.75 33.5833 20
      vertex 30.75 65.6667 20
      vertex 29.75 65.6667 20
    endloop
  endfacet
  facet normal 0 -0 1
    outer loop
      vertex 148.75 0.5 20
      vertex 120 0.5 20
      vertex 150 0 20
    endloop
  endfacet
  facet normal -0 0 1
    outer loop
      vertex 120 66.6667 20
      vertex 120 98.75 20
      vertex 119 66.6667 20
    endloop
  endfacet
  facet normal 0 0 1
    outer loop
      vertex 59.5 33.5833 20
      vertex 30.75 33.5833 20
      vertex 59.5 32.5833 20
    endloop
  endfacet
  facet normal 0 0 1
    outer loop
      vertex 89.25 33.5833 20
      vertex 60.5 33.5833 20
      vertex 89.25 32.5833 20
    endloop
  endfacet
  facet normal 0 0 1
    outer loop
      vertex 150 100 20
      vertex 29.75 98.75 20
      vertex 30.75 98.75 20
    endloop
  endfacet
  facet normal 0 0 1
    outer loop
      vertex 90.25 0.5 20
      vertex 90.25 32.5833 20
      vertex 89.25 32.5833 20
    endloop
  endfacet
  facet normal 0 0 1
    outer loop
      vertex 150 100 20
      vertex 30.75 98.75 20
      vertex 59.5 98.75 20
    endloop
  endfacet
  facet normal 0 0 1
    outer loop
      vertex 60.5 33.5833 20
      vertex 60.5 65.6667 20
      vertex 59.5 65.6667 20
    endloop
  endfacet
  facet normal 0 -0 1
    outer loop
      vertex 89.25 0.5 20
      vertex 60.5 0.5 20
      vertex 150 0 20
    endloop
  endfacet
  facet normal 0 0 1
    outer loop
      vertex 90.25 32.5833 20
      vertex 119 32.5833 20
      vertex 90.25 33.5833 20
    endloop
  endfacet
  facet normal 0 -0 1
    outer loop
      vertex 59.5 33.5833 20
      vertex 59.5 32.5833 20
      vertex 60.5 32.5833 20
    endloop
  endfacet
  facet normal 0 0 1
    outer loop
      vertex 90.25 33.5833 20
      vertex 89.25 66.6667 20
      vertex 89.25 65.6667 20
    endloop
  endfacet
  facet normal 0 -0 1
    outer loop
      vertex 60.5 33.5833 20
      vertex 59.5 33.5833 20
      vertex 89.25 32.5833 20
    endloop
  endfacet
  facet normal 0 -0 1
    outer loop
      vertex 90.25 0.5 20
      vertex 89.25 0.5 20
      vertex 150 0 20
    endloop
  endfacet
  facet normal 0 0 1
    outer loop
      vertex 29.75 33.5833 20
      vertex 1 33.5833 20
      vertex 29.75 32.5833 20
    endloop
  endfacet
  facet normal 0 0 1
    outer loop
      vertex 30.75 65.6667 20
      vertex 30.75 66.6667 20
      vertex 29.75 66.6667 20
    endloop
  endfacet
  facet normal 0 0 1
    outer loop
      vertex 30.75 65.6667 20
      vertex 59.5 65.6667 20
      vertex 30.75 66.6667 20
    endloop
  endfacet
  facet normal 0 -0 1
    outer loop
      vertex 89.25 65.6667 20
      vertex 89.25 33.5833 20
      vertex 90.25 33.5833 20
    endloop
  endfacet
  facet normal 0 -0 1
    outer loop
      vertex 59.5 66.6667 20
      vertex 59.5 65.6667 20
      vertex 60.5 65.6667 20
    endloop
  endfacet
  facet normal 0 0 1
    outer loop
      vertex 119 66.6667 20
      vertex 90.25 66.6667 20
      vertex 119 65.6667 20
    endloop
  endfacet
  facet normal 0 0 1
    outer loop
      vertex 90.25 65.6667 20
      vertex 119 65.6667 20
      vertex 90.25 66.6667 20
    endloop
  endfacet
  facet normal 0 0 1
    outer loop
      vertex 150 100 20
      vertex 59.5 98.75 20
      vertex 60.5 98.75 20
    endloop
  endfacet
  facet normal 0 0 1
    outer loop
      vertex 150 100 20
      vertex 60.5 98.75 20
      vertex 89.25 98.75 20
    endloop
  endfacet
  facet normal 0 -0 1
    outer loop
      vertex 148.75 32.5833 20
      vertex 148.75 0.5 20
      vertex 150 0 20
    endloop
  endfacet
  facet normal 0 -0 1
    outer loop
      vertex 119 0.5 20
      vertex 90.25 0.5 20
      vertex 150 0 20
    endloop
  endfacet
  facet normal 0 0 1
    outer loop
      vertex 60.5 65.6667 20
      vertex 60.5 66.6667 20
      vertex 59.5 66.6667 20
    endloop
  endfacet
  facet normal 0 0 1
    outer loop
      vertex 60.5 0.5 20
      vertex 60.5 32.5833 20
      vertex 59.5 32.5833 20
    endloop
  endfacet
  facet normal 0 0 1
    outer loop
      vertex 90.25 66.6667 20
      vertex 90.25 98.75 20
      vertex 89.25 98.75 20
    endloop
  endfacet
  facet normal 0 0 1
    outer loop
      vertex 60.5 65.6667 20
      vertex 89.25 65.6667 20
      vertex 60.5 66.6667 20
    endloop
  endfacet
  facet normal 0 -0 1
    outer loop
      vertex 120 0.5 20
      vertex 119 0.5 20
      vertex 150 0 20
    endloop
  endfacet
  facet normal 0 0 1
    outer loop
      vertex 1 98.75 20
      vertex 29.75 98.75 20
      vertex 0 100 20
    endloop
  endfacet
  facet normal 0 0 1
    outer loop
      vertex 59.5 66.6667 20
      vertex 30.75 66.6667 20
      vertex 59.5 65.6667 20
    endloop
  endfacet
  facet normal 0 0 1
    outer loop
      vertex 119 33.5833 20
      vertex 90.25 33.5833 20
      vertex 119 32.5833 20
    endloop
  endfacet
  facet normal 0 0 1
    outer loop
      vertex 60.5 66.6667 20
      vertex 60.5 98.75 20
      vertex 59.5 98.75 20
    endloop
  endfacet
  facet normal 0 -0 1
    outer loop
      vertex 119 65.6667 20
      vertex 119 33.5833 20
      vertex 120 32.5833 20
    endloop
  endfacet
  facet normal 0 0 1
    outer loop
      vertex 120 0.5 20
      vertex 119 33.5833 20
      vertex 119 32.5833 20
    endloop
  endfacet
  facet normal 0 0 1
    outer loop
      vertex 150 100 20
      vertex 89.25 98.75 20
      vertex 90.25 98.75 20
    endloop
  endfacet
  facet normal 0 0 1
    outer loop
      vertex 150 100 20
      vertex 90.25 98.75 20
      vertex 119 98.75 20
    endloop
  endfacet
  facet normal 0 0 1
    outer loop
      vertex 120 98.75 20
      vertex 119 98.75 20
      vertex 119 66.6667 20
    endloop
  endfacet
  facet normal 0 0 1
    outer loop
      vertex 30.75 0.5 20
      vertex 30.75 32.5833 20
      vertex 29.75 32.5833 20
    endloop
  endfacet
  facet normal 0 -0 1
    outer loop
      vertex 89.25 98.75 20
      vertex 89.25 66.6667 20
      vertex 90.25 65.6667 20
    endloop
  endfacet
  facet normal 0 0 1
    outer loop
      vertex 89.25 98.75 20
      vertex 90.25 65.6667 20
      vertex 90.25 66.6667 20
    endloop
  endfacet
  facet normal 0 0 1
    outer loop
      vertex 150 100 20
      vertex 148.75 32.5833 20
      vertex 150 0 20
    endloop
  endfacet
  facet normal 0 0 1
    outer loop
      vertex 148.75 66.6667 20
      vertex 120 66.6667 20
      vertex 120 65.6667 20
    endloop
  endfacet
  facet normal 0 0 1
    outer loop
      vertex 90.25 32.5833 20
      vertex 90.25 33.5833 20
      vertex 89.25 33.5833 20
    endloop
  endfacet
  facet normal 0 0 1
    outer loop
      vertex 148.75 33.5833 20
      vertex 120 33.5833 20
      vertex 148.75 32.5833 20
    endloop
  endfacet
  facet normal 0 0 1
    outer loop
      vertex 119 65.6667 20
      vertex 120 32.5833 20
      vertex 120 33.5833 20
    endloop
  endfacet
  facet normal 0 0 1
    outer loop
      vertex 120 66.6667 20
      vertex 119 66.6667 20
      vertex 119 65.6667 20
    endloop
  endfacet
  facet normal 0 0 1
    outer loop
      vertex 120 66.6667 20
      vertex 119 65.6667 20
      vertex 120 65.6667 20
    endloop
  endfacet
  facet normal 0 0 1
    outer loop
      vertex 148.75 66.6667 20
      vertex 120 65.6667 20
      vertex 148.75 65.6667 20
    endloop
  endfacet
  facet normal 0 0 1
    outer loop
      vertex 150 100 20
      vertex 148.75 33.5833 20
      vertex 148.75 32.5833 20
    endloop
  endfacet
  facet normal 0 0 1
    outer loop
      vertex 150 100 20
      vertex 148.75 65.6667 20
      vertex 148.75 33.5833 20
    endloop
  endfacet
  facet normal 0 0 1
    outer loop
      vertex 150 100 20
      vertex 119 98.75 20
      vertex 120 98.75 20
    endloop
  endfacet
  facet normal 0 -0 1
    outer loop
      vertex 148.75 98.75 20
      vertex 148.75 66.6667 20
      vertex 150 100 20
    endloop
  endfacet
  facet normal 0 0 1
    outer loop
      vertex 150 100 20
      vertex 120 98.75 20
      vertex 148.75 98.75 20
    endloop
  endfacet
  facet normal 0 0 1
    outer loop
      vertex 150 100 20
      vertex 148.75 66.6667 20
      vertex 148.75 65.6667 20
    endloop
  endfacet
  facet normal 0 0 1
    outer loop
      vertex 30.75 32.5833 20
      vertex 59.5 32.5833 20
      vertex 29.75 33.5833 20
    endloop
  endfacet
  facet normal 0 0 1
    outer loop
      vertex 60.5 32.5833 20
      vertex 89.25 32.5833 20
      vertex 59.5 33.5833 20
    endloop
  endfacet
  facet normal 0 -0 1
    outer loop
      vertex 119 32.5833 20
      vertex 119 0.5 20
      vertex 120 0.5 20
    endloop
  endfacet
  facet normal 0 0 1
    outer loop
      vertex 90.25 33.5833 20
      vertex 90.25 65.6667 20
      vertex 89.25 66.6667 20
    endloop
  endfacet
  facet normal 0 -0 1
    outer loop
      vertex 89.25 32.5833 20
      vertex 89.25 0.5 20
      vertex 90.25 0.5 20
    endloop
  endfacet
  facet normal 0 -0 1
    outer loop
      vertex 59.5 32.5833 20
      vertex 59.5 0.5 20
      vertex 60.5 0.5 20
    endloop
  endfacet
  facet normal 0 -0 1
    outer loop
      vertex 29.75 32.5833 20
      vertex 29.75 0.5 20
      vertex 30.75 0.5 20
    endloop
  endfacet
  facet normal 1 0 -0
    outer loop
      vertex 150 0 20
      vertex 150 0 0
      vertex 150 100 0
    endloop
  endfacet
  facet normal 1 0 0
    outer loop
      vertex 150 100 20
      vertex 150 0 20
      vertex 150 100 0
    endloop
  endfacet
  facet normal 1 0 0
    outer loop
      vertex 1 32.5833 0.25
      vertex 1 32.5833 20
      vertex 1 0.5 20
    endloop
  endfacet
  facet normal 1 0 0
    outer loop
      vertex 1 0.5 0.25
      vertex 1 32.5833 0.25
      vertex 1 0.5 20
    endloop
  endfacet
  facet normal 0 1 0
    outer loop
      vertex 29.75 0.5 20
      vertex 29.75 0.5 0.25
      vertex 1 0.5 20
    endloop
  endfacet
  facet normal 0 1 -0
    outer loop
      vertex 1 0.5 20
      vertex 29.75 0.5 0.25
      vertex 1 0.5 0.25
    endloop
  endfacet
  facet normal -1 0 0
    outer loop
      vertex 29.75 32.5833 20
      vertex 29.75 32.5833 0.25
      vertex 29.75 0.5 20
    endloop
  endfacet
  facet normal -1 0 0
    outer loop
      vertex 29.75 0.5 20
      vertex 29.75 32.5833 0.25
      vertex 29.75 0.5 0.25
    endloop
  endfacet
  facet normal 0 -1 0
    outer loop
      vertex 29.75 32.5833 0.25
      vertex 29.75 32.5833 20
      vertex 1 32.5833 20
    endloop
  endfacet
  facet normal -0 -1 -0
    outer loop
      vertex 1 32.5833 0.25
      vertex 29.75 32.5833 0.25
      vertex 1 32.5833 20
    endloop
  endfacet
  facet normal 1 0 0
    outer loop
      vertex 1 65.6667 0.25
      vertex 1 65.6667 20
      vertex 1 33.5833 20
    endloop
  endfacet
  facet normal 1 0 0
    outer loop
      vertex 1 33.5833 0.25
      vertex 1 65.6667 0.25
      vertex 1 33.5833 20
    endloop
  endfacet
  facet normal 0 1 0
    outer loop
      vertex 29.75 33.5833 20
      vertex 29.75 33.5833 0.25
      vertex 1 33.5833 20
    endloop
  endfacet
  facet normal 0 1 -0
    outer loop
      vertex 1 33.5833 20
      vertex 29.75 33.5833 0.25
      vertex 1 33.5833 0.25
    endloop
  endfacet
  facet normal -1 0 0
    outer loop
      vertex 29.75 65.6667 20
      vertex 29.75 65.6667 0.25
      vertex 29.75 33.5833 20
    endloop
  endfacet
  facet normal -1 0 0
    outer loop
      vertex 29.75 33.5833 20
      vertex 29.75 65.6667 0.25
      vertex 29.75 33.5833 0.25
    endloop
  endfacet
  facet normal 0 -1 0
    outer loop
      vertex 29.75 65.6667 0.25
      vertex 29.75 65.6667 20
      vertex 1 65.6667 20
    endloop
  endfacet
  facet normal -0 -1 -0
    outer loop
      vertex 1 65.6667 0.25
      vertex 29.75 65.6667 0.25
      vertex 1 65.6667 20
    endloop
  endfacet
  facet normal 1 0 0
    outer loop
      vertex 1 98.75 0.25
      vertex 1 98.75 20
      vertex 1 66.6667 20
    endloop
  endfacet
  facet normal 1 0 0
    outer loop
      vertex 1 66.6667 0.25
      vertex 1 98.75 0.25
      vertex 1 66.6667 20
    endloop
  endfacet
  facet normal 0 1 0
    outer loop
      vertex 29.75 66.6667 20
      vertex 29.75 66.6667 0.25
      vertex 1 66.6667 20
    endloop
  endfacet
  facet normal 0 1 -0
    outer loop
      vertex 1 66.6667 20
      vertex 29.75 66.6667 0.25
      vertex 1 66.6667 0.25
    endloop
  endfacet
  facet normal -1 0 0
    outer loop
      vertex 29.75 98.75 20
      vertex 29.75 98.75 0.25
      vertex 29.75 66.6667 20
    endloop
  endfacet
  facet normal -1 0 0
    outer loop
      vertex 29.75 66.6667 20
      vertex 29.75 98.75 0.25
      vertex 29.75 66.6667 0.25
    endloop
  endfacet
  facet normal 0 -1 0
    outer loop
      vertex 29.75 98.75 0.25
      vertex 29.75 98.75 20
      vertex 1 98.75 20
    endloop
  endfacet
  facet normal -0 -1 -0
    outer loop
      vertex 1 98.75 0.25
      vertex 29.75 98.75 0.25
      vertex 1 98.75 20
    endloop
  endfacet
  facet normal 1 0 0
    outer loop
      vertex 30.75 32.5833 0.25
      vertex 30.75 32.5833 20
      vertex 30.75 0.5 20
    endloop
  endfacet
  facet normal 1 0 0
    outer loop
      vertex 30.75 0.5 0.25
      vertex 30.75 32.5833 0.25
      vertex 30.75 0.5 20
    endloop
  endfacet
  facet normal 0 1 0
    outer loop
      vertex 59.5 0.5 20
      vertex 59.5 0.5 0.25
      vertex 30.75 0.5 20
    endloop
  endfacet
  facet normal 0 1 -0
    outer loop
      vertex 30.75 0.5 20
      vertex 59.5 0.5 0.25
      vertex 30.75 0.5 0.25
    endloop
  endfacet
  facet normal -1 0 0
    outer loop
      vertex 59.5 32.5833 20
      vertex 59.5 32.5833 0.25
      vertex 59.5 0.5 20
    endloop
  endfacet
  facet normal -1 0 0
    outer loop
      vertex 59.5 0.5 20
      vertex 59.5 32.5833 0.25
      vertex 59.5 0.5 0.25
    endloop
  endfacet
  facet normal 0 -1 0
    outer loop
      vertex 59.5 32.5833 0.25
      vertex 59.5 32.5833 20
      vertex 30.75 32.5833 20
    endloop
  endfacet
  facet normal -0 -1 -0
    outer loop
      vertex 30.75 32.5833 0.25
      vertex 59.5 32.5833 0.25
      vertex 30.75 32.5833 20
    endloop
  endfacet
  facet normal 1 0 0
    outer loop
      vertex 30.75 65.6667 0.25
      vertex 30.75 65.6667 20
      vertex 30.75 33.5833 20
    endloop
  endfacet
  facet normal 1 0 0
    outer loop
      vertex 30.75 33.5833 0.25
      vertex 30.75 65.6667 0.25
      vertex 30.75 33.5833 20
    endloop
  endfacet
  facet normal 0 1 0
    outer loop
      vertex 59.5 33.5833 20
      vertex 59.5 33.5833 0.25
      vertex 30.75 33.5833 20
    endloop
  endfacet
  facet normal 0 1 -0
    outer loop
      vertex 30.75 33.5833 20
      vertex 59.5 33.5833 0.25
      vertex 30.75 33.5833 0.25
    endloop
  endfacet
  facet normal -1 0 0
    outer loop
      vertex 59.5 65.6667 20
      vertex 59.5 65.6667 0.25
      vertex 59.5 33.5833 20
    endloop
  endfacet
  facet normal -1 0 0
    outer loop
      vertex 59.5 33.5833 20
      vertex 59.5 65.6667 0.25
      vertex 59.5 33.5833 0.25
    endloop
  endfacet
  facet normal 0 -1 0
    outer loop
      vertex 59.5 65.6667 0.25
      vertex 59.5 65.6667 20
      vertex 30.75 65.6667 20
    endloop
  endfacet
  facet normal -0 -1 -0
    outer loop
      vertex 30.75 65.6667 0.25
      vertex 59.5 65.6667 0.25
      vertex 30.75 65.6667 20
    endloop
  endfacet
  facet normal 1 0 0
    outer loop
      vertex 30.75 98.75 0.25
      vertex 30.75 98.75 20
      vertex 30.75 66.6667 20
    endloop
  endfacet
  facet normal 1 0 0
    outer loop
      vertex 30.75 66.6667 0.25
      vertex 30.75 98.75 0.25
      vertex 30.75 66.6667 20
    endloop
  endfacet
  facet normal 0 1 0
    outer loop
      vertex 59.5 66.6667 20
      vertex 59.5 66.6667 0.25
      vertex 30.75 66.6667 20
    endloop
  endfacet
  facet normal 0 1 -0
    outer loop
      vertex 30.75 66.6667 20
      vertex 59.5 66.6667 0.25
      vertex 30.75 66.6667 0.25
    endloop
  endfacet
  facet normal -1 0 0
    outer loop
      vertex 59.5 98.75 20
      vertex 59.5 98.75 0.25
      vertex 59.5 66.6667 20
    endloop
  endfacet
  facet normal -1 0 0
    outer loop
      vertex 59.5 66.6667 20
      vertex 59.5 98.75 0.25
      vertex 59.5 66.6667 0.25
    endloop
  endfacet
  facet normal 0 -1 0
    outer loop
      vertex 59.5 98.75 0.25
      vertex 59.5 98.75 20
      vertex 30.75 98.75 20
    endloop
  endfacet
  facet normal -0 -1 -0
    outer loop
      vertex 30.75 98.75 0.25
      vertex 59.5 98.75 0.25
      vertex 30.75 98.75 20
    endloop
  endfacet
  facet normal 1 0 0
    outer loop
      vertex 60.5 32.5833 0.25
      vertex 60.5 32.5833 20
      vertex 60.5 0.5 20
    endloop
  endfacet
  facet normal 1 0 0
    outer loop
      vertex 60.5 0.5 0.25
      vertex 60.5 32.5833 0.25
      vertex 60.5 0.5 20
    endloop
  endfacet
  facet normal 0 1 0
    outer loop
      vertex 89.25 0.5 20
      vertex 89.25 0.5 0.25
      vertex 60.5 0.5 20
    endloop
  endfacet
  facet normal 0 1 -0
    outer loop
      vertex 60.5 0.5 20
      vertex 89.25 0.5 0.25
      vertex 60.5 0.5 0.25
    endloop
  endfacet
  facet normal -1 0 0
    outer loop
      vertex 89.25 32.5833 20
      vertex 89.25 32.5833 0.25
      vertex 89.25 0.5 20
    endloop
  endfacet
  facet normal -1 0 0
    outer loop
      vertex 89.25 0.5 20
      vertex 89.25 32.5833 0.25
      vertex 89.25 0.5 0.25
    endloop
  endfacet
  facet normal 0 -1 0
    outer loop
      vertex 89.25 32.5833 0.25
      vertex 89.25 32.5833 20
      vertex 60.5 32.5833 20
    endloop
  endfacet
  facet normal -0 -1 -0
    outer loop
      vertex 60.5 32.5833 0.25
      vertex 89.25 32.5833 0.25
      vertex 60.5 32.5833 20
    endloop
  endfacet
  facet normal 1 0 0
    outer loop
      vertex 60.5 65.6667 0.25
      vertex 60.5 65.6667 20
      vertex 60.5 33.5833 20
    endloop
  endfacet
  facet normal 1 0 0
    outer loop
      vertex 60.5 33.5833 0.25
      vertex 60.5 65.6667 0.25
      vertex 60.5 33.5833 20
    endloop
  endfacet
  facet normal 0 1 0
    outer loop
      vertex 89.25 33.5833 20
      vertex 89.25 33.5833 0.25
      vertex 60.5 33.5833 20
    endloop
  endfacet
  facet normal 0 1 -0
    outer loop
      vertex 60.5 33.5833 20
      vertex 89.25 33.5833 0.25
      vertex 60.5 33.5833 0.25
    endloop
  endfacet
  facet normal -1 0 0
    outer loop
      vertex 89.25 65.6667 20
      vertex 89.25 65.6667 0.25
      vertex 89.25 33.5833 20
    endloop
  endfacet
  facet normal -1 0 0
    outer loop
      vertex 89.25 33.5833 20
      vertex 89.25 65.6667 0.25
      vertex 89.25 33.5833 0.25
    endloop
  endfacet
  facet normal 0 -1 0
    outer loop
      vertex 89.25 65.6667 0.25
      vertex 89.25 65.6667 20
      vertex 60.5 65.6667 20
    endloop
  endfacet
  facet normal -0 -1 -0
    outer loop
      vertex 60.5 65.6667 0.25
      vertex 89.25 65.6667 0.25
      vertex 60.5 65.6667 20
    endloop
  endfacet
  facet normal 1 0 0
    outer loop
      vertex 60.5 98.75 0.25
      vertex 60.5 98.75 20
      vertex 60.5 66.6667 20
    endloop
  endfacet
  facet normal 1 0 0
    outer loop
      vertex 60.5 66.6667 0.25
      vertex 60.5 98.75 0.25
      vertex 60.5 66.6667 20
    endloop
  endfacet
  facet normal 0 1 0
    outer loop
      vertex 89.25 66.6667 20
      vertex 89.25 66.6667 0.25
      vertex 60.5 66.6667 20
    endloop
  endfacet
  facet normal 0 1 -0
    outer loop
      vertex 60.5 66.6667 20
      vertex 89.25 66.6667 0.25
      vertex 60.5 66.6667 0.25
    endloop
  endfacet
  facet normal -1 0 0
    outer loop
      vertex 89.25 98.75 20
      vertex 89.25 98.75 0.25
      vertex 89.25 66.6667 20
    endloop
  endfacet
  facet normal -1 0 0
    outer loop
      vertex 89.25 66.6667 20
      vertex 89.25 98.75 0.25
      vertex 89.25 66.6667 0.25
    endloop
  endfacet
  facet normal 0 -1 0
    outer loop
      vertex 89.25 98.75 0.25
      vertex 89.25 98.75 20
      vertex 60.5 98.75 20
    endloop
  endfacet
  facet normal -0 -1 -0
    outer loop
      vertex 60.5 98.75 0.25
      vertex 89.25 98.75 0.25
      vertex 60.5 98.75 20
    endloop
  endfacet
  facet normal 1 0 0
    outer loop
      vertex 90.25 32.5833 0.25
      vertex 90.25 32.5833 20
      vertex 90.25 0.5 20
    endloop
  endfacet
  facet normal 1 0 0
    outer loop
      vertex 90.25 0.5 0.25
      vertex 90.25 32.5833 0.25
      vertex 90.25 0.5 20
    endloop
  endfacet
  facet normal 0 1 0
    outer loop
      vertex 119 0.5 20
      vertex 119 0.5 0.25
      vertex 90.25 0.5 20
    endloop
  endfacet
  facet normal 0 1 -0
    outer loop
      vertex 90.25 0.5 20
      vertex 119 0.5 0.25
      vertex 90.25 0.5 0.25
    endloop
  endfacet
  facet normal -1 0 0
    outer loop
      vertex 119 32.5833 20
      vertex 119 32.5833 0.25
      vertex 119 0.5 20
    endloop
  endfacet
  facet normal -1 0 0
    outer loop
      vertex 119 0.5 20
      vertex 119 32.5833 0.25
      vertex 119 0.5 0.25
    endloop
  endfacet
  facet normal 0 -1 0
    outer loop
      vertex 119 32.5833 0.25
      vertex 119 32.5833 20
      vertex 90.25 32.5833 20
    endloop
  endfacet
  facet normal -0 -1 -0
    outer loop
      vertex 90.25 32.5833 0.25
      vertex 119 32.5833 0.25
      vertex 90.25 32.5833 20
    endloop
  endfacet
  facet normal 1 0 0
    outer loop
      vertex 90.25 65.6667 0.25
      vertex 90.25 65.6667 20
      vertex 90.25 33.5833 20
    endloop
  endfacet
  facet normal 1 0 0
    outer loop
      vertex 90.25 33.5833 0.25
      vertex 90.25 65.6667 0.25
      vertex 90.25 33.5833 20
    endloop
  endfacet
  facet normal 0 1 0
    outer loop
      vertex 119 33.5833 20
      vertex 119 33.5833 0.25
      vertex 90.25 33.5833 20
    endloop
  endfacet
  facet normal 0 1 -0
    outer loop
      vertex 90.25 33.5833 20
      vertex 119 33.5833 0.25
      vertex 90.25 33.5833 0.25
    endloop
  endfacet
  facet normal -1 0 0
    outer loop
      vertex 119 65.6667 20
      vertex 119 65.6667 0.25
      vertex 119 33.5833 20
    endloop
  endfacet
  facet normal -1 0 0
    outer loop
      vertex 119 33.5833 20
      vertex 119 65.6667 0.25
      vertex 119 33.5833 0.25
    endloop
  endfacet
  facet normal 0 -1 0
    outer loop
      vertex 119 65.6667 0.25
      vertex 119 65.6667 20
      vertex 90.25 65.6667 20
    endloop
  endfacet
  facet normal -0 -1 -0
    outer loop
      vertex 90.25 65.6667 0.25
      vertex 119 65.6667 0.25
      vertex 90.25 65.6667 20
    endloop
  endfacet
  facet normal 1 0 0
    outer loop
      vertex 90.25 98.75 0.25
      vertex 90.25 98.75 20
      vertex 90.25 66.6667 20
    endloop
  endfacet
  facet normal 1 0 0
    outer loop
      vertex 90.25 66.6667 0.25
      vertex 90.25 98.75 0.25
      vertex 90.25 66.6667 20
    endloop
  endfacet
  facet normal 0 1 0
    outer loop
      vertex 119 66.6667 20
      vertex 119 66.6667 0.25
      vertex 90.25 66.6667 20
    endloop
  endfacet
  facet normal 0 1 -0
    outer loop
      vertex 90.25 66.6667 20
      vertex 119 66.6667 0.25
      vertex 90.25 66.6667 0.25
    endloop
  endfacet
  facet normal -1 0 0
    outer loop
      vertex 119 98.75 20
      vertex 119 98.75 0.25
      vertex 119 66.6667 20
    endloop
  endfacet
  facet normal -1 0 0
    outer loop
      vertex 119 66.6667 20
      vertex 119 98.75 0.25
      vertex 119 66.6667 0.25
    endloop
  endfacet
  facet normal 0 -1 0
    outer loop
      vertex 119 98.75 0.25
      vertex 119 98.75 20
      vertex 90.25 98.75 20
    endloop
  endfacet
  facet normal -0 -1 -0
    outer loop
      vertex 90.25 98.75 0.25
      vertex 119 98.75 0.25
      vertex 90.25 98.75 20
    endloop
  endfacet
  facet normal 1 0 0
    outer loop
      vertex 120 32.5833 0.25
      vertex 120 32.5833 20
      vertex 120 0.5 20
    endloop
  endfacet
  facet normal 1 0 0
    outer loop
      vertex 120 0.5 0.25
      vertex 120 32.5833 0.25
      vertex 120 0.5 20
    endloop
  endfacet
  facet normal 0 1 0
    outer loop
      vertex 148.75 0.5 20
      vertex 148.75 0.5 0.25
      vertex 120 0.5 20
    endloop
  endfacet
  facet normal 0 1 -0
    outer loop
      vertex 120 0.5 20
      vertex 148.75 0.5 0.25
      vertex 120 0.5 0.25
    endloop
  endfacet
  facet normal -1 0 0
    outer loop
      vertex 148.75 32.5833 20
      vertex 148.75 32.5833 0.25
      vertex 148.75 0.5 20
    endloop
  endfacet
  facet normal -1 0 0
    outer loop
      vertex 148.75 0.5 20
      vertex 148.75 32.5833 0.25
      vertex 148.75 0.5 0.25
    endloop
  endfacet
  facet normal 0 -1 0
    outer loop
      vertex 148.75 32.5833 0.25
      vertex 148.75 32.5833 20
      vertex 120 32.5833 20
    endloop
  endfacet
  facet normal -0 -1 -0
    outer loop
      vertex 120 32.5833 0.25
      vertex 148.75 32.5833 0.25
      vertex 120 32.5833 20
    endloop
  endfacet
  facet normal 1 0 0
    outer loop
      vertex 120 65.6667 0.25
      vertex 120 65.6667 20
      vertex 120 33.5833 20
    endloop
  endfacet
  facet normal 1 0 0
    outer loop
      vertex 120 33.5833 0.25
      vertex 120 65.6667 0.25
      vertex 120 33.5833 20
    endloop
  endfacet
  facet normal 0 1 0
    outer loop
      vertex 148.75 33.5833 20
      vertex 148.75 33.5833 0.25
      vertex 120 33.5833 20
    endloop
  endfacet
  facet normal 0 1 -0
    outer loop
      vertex 120 33.5833 20
      vertex 148.75 33.5833 0.25
      vertex 120 33.5833 0.25
    endloop
  endfacet
  facet normal -1 0 0
    outer loop
      vertex 148.75 65.6667 20
      vertex 148.75 65.6667 0.25
      vertex 148.75 33.5833 20
    endloop
  endfacet
  facet normal -1 0 0
    outer loop
      vertex 148.75 33.5833 20
      vertex 148.75 65.6667 0.25
      vertex 148.75 33.5833 0.25
    endloop
  endfacet
  facet normal 0 -1 0
    outer loop
      vertex 148.75 65.6667 0.25
      vertex 148.75 65.6667 20
      vertex 120 65.6667 20
    endloop
  endfacet
  facet normal -0 -1 -0
    outer loop
      vertex 120 65.6667 0.25
      vertex 148.75 65.6667 0.25
      vertex 120 65.6667 20
    endloop
  endfacet
  facet normal 1 0 0
    outer loop
      vertex 120 98.75 0.25
      vertex 120 98.75 20
      vertex 120 66.6667 20
    endloop
  endfacet
  facet normal 1 0 0
    outer loop
      vertex 120 66.6667 0.25
      vertex 120 98.75 0.25
      vertex 120 66.6667 20
    endloop
  endfacet
  facet normal 0 1 0
    outer loop
      vertex 148.75 66.6667 20
      vertex 148.75 66.6667 0.25
      vertex 120 66.6667 20
    endloop
  endfacet
  facet normal 0 1 -0
    outer loop
      vertex 120 66.6667 20
      vertex 148.75 66.6667 0.25
      vertex 120 66.6667 0.25
    endloop
  endfacet
  facet normal -1 0 0
    outer loop
      vertex 148.75 98.75 20
      vertex 148.75 98.75 0.25
      vertex 148.75 66.6667 20
    endloop
  endfacet
  facet normal -1 0 0
    outer loop
      vertex 148.75 66.6667 20
      vertex 148.75 98.75 0.25
      vertex 148.75 66.6667 0.25
    endloop
  endfacet
  facet normal 0 -1 0
    outer loop
      vertex 148.75 98.75 0.25
      vertex 148.75 98.75 20
      vertex 120 98.75 20
    endloop
  endfacet
  facet normal -0 -1 -0
    outer loop
      vertex 120 98.75 0.25
      vertex 148.75 98.75 0.25
      vertex 120 98.75 20
    endloop
  endfacet
  facet normal 0 0 1
    outer loop
      vertex 29.75 0.5 0.25
      vertex 29.75 32.5833 0.25
      vertex 1 32.5833 0.25
    endloop
  endfacet
  facet normal 0 0 1
    outer loop
      vertex 1 0.5 0.25
      vertex 29.75 0.5 0.25
      vertex 1 32.5833 0.25
    endloop
  endfacet
  facet normal 0 0 1
    outer loop
      vertex 29.75 33.5833 0.25
      vertex 29.75 65.6667 0.25
      vertex 1 65.6667 0.25
    endloop
  endfacet
  facet normal 0 0 1
    outer loop
      vertex 1 33.5833 0.25
      vertex 29.75 33.5833 0.25
      vertex 1 65.6667 0.25
    endloop
  endfacet
  facet normal 0 0 1
    outer loop
      vertex 29.75 66.6667 0.25
      vertex 29.75 98.75 0.25
      vertex 1 98.75 0.25
    endloop
  endfacet
  facet normal 0 0 1
    outer loop
      vertex 1 66.6667 0.25
      vertex 29.75 66.6667 0.25
      vertex 1 98.75 0.25
    endloop
  endfacet
  facet normal 0 0 1
    outer loop
      vertex 59.5 0.5 0.25
      vertex 59.5 32.5833 0.25
      vertex 30.75 32.5833 0.25
    endloop
  endfacet
  facet normal 0 0 1
    outer loop
      vertex 30.75 0.5 0.25
      vertex 59.5 0.5 0.25
      vertex 30.75 32.5833 0.25
    endloop
  endfacet
  facet normal 0 0 1
    outer loop
      vertex 59.5 33.5833 0.25
      vertex 59.5 65.6667 0.25
      vertex 30.75 65.6667 0.25
    endloop
  endfacet
  facet normal 0 0 1
    outer loop
      vertex 30.75 33.5833 0.25
      vertex 59.5 33.5833 0.25
      vertex 30.75 65.6667 0.25
    endloop
  endfacet
  facet normal 0 0 1
    outer loop
      vertex 59.5 66.6667 0.25
      vertex 59.5 98.75 0.25
      vertex 30.75 98.75 0.25
    endloop
  endfacet
  facet normal 0 0 1
    outer loop
      vertex 30.75 66.6667 0.25
      vertex 59.5 66.6667 0.25
      vertex 30.75 98.75 0.25
    endloop
  endfacet
  facet normal 0 0 1
    outer loop
      vertex 89.25 0.5 0.25
      vertex 89.25 32.5833 0.25
      vertex 60.5 32.5833 0.25
    endloop
  endfacet
  facet normal 0 0 1
    outer loop
      vertex 60.5 0.5 0.25
      vertex 89.25 0.5 0.25
      vertex 60.5 32.5833 0.25
    endloop
  endfacet
  facet normal 0 0 1
    outer loop
      vertex 89.25 33.5833 0.25
      vertex 89.25 65.6667 0.25
      vertex 60.5 65.6667 0.25
    endloop
  endfacet
  facet normal 0 0 1
    outer loop
      vertex 60.5 33.5833 0.25
      vertex 89.25 33.5833 0.25
      vertex 60.5 65.6667 0.25
    endloop
  endfacet
  facet normal 0 0 1
    outer loop
      vertex 89.25 66.6667 0.25
      vertex 89.25 98.75 0.25
      vertex 60.5 98.75 0.25
    endloop
  endfacet
  facet normal 0 0 1
    outer loop
      vertex 60.5 66.6667 0.25
      vertex 89.25 66.6667 0.25
      vertex 60.5 98.75 0.25
    endloop
  endfacet
  facet normal 0 0 1
    outer loop
      vertex 119 0.5 0.25
      vertex 119 32.5833 0.25
      vertex 90.25 32.5833 0.25
    endloop
  endfacet
  facet normal 0 0 1
    outer loop
      vertex 90.25 0.5 0.25
      vertex 119 0.5 0.25
      vertex 90.25 32.5833 0.25
    endloop
  endfacet
  facet normal 0 0 1
    outer loop
      vertex 119 33.5833 0.25
      vertex 119 65.6667 0.25
      vertex 90.25 65.6667 0.25
    endloop
  endfacet
  facet normal 0 0 1
    outer loop
      vertex 90.25 33.5833 0.25
      vertex 119 33.5833 0.25
      vertex 90.25 65.6667 0.25
    endloop
  endfacet
  facet normal 0 0 1
    outer loop
      vertex 119 66.6667 0.25
      vertex 119 98.75 0.25
      vertex 90.25 98.75 0.25
    endloop
  endfacet
  facet normal 0 0 1
    outer loop
      vertex 90.25 66.6667 0.25
      vertex 119 66.6667 0.25
      vertex 90.25 98.75 0.25
    endloop
  endfacet
  facet normal 0 0 1
    outer loop
      vertex 148.75 0.5 0.25
      vertex 148.75 32.5833 0.25
      vertex 120 32.5833 0.25
    endloop
  endfacet
  facet normal 0 0 1
    outer loop
      vertex 120 0.5 0.25
      vertex 148.75 0.5 0.25
      vertex 120 32.5833 0.25
    endloop
  endfacet
  facet normal 0 0 1
    outer loop
      vertex 148.75 33.5833 0.25
      vertex 148.75 65.6667 0.25
      vertex 120 65.6667 0.25
    endloop
  endfacet
  facet normal 0 0 1
    outer loop
      vertex 120 33.5833 0.25
      vertex 148.75 33.5833 0.25
      vertex 120 65.6667 0.25
    endloop
  endfacet
  facet normal 0 0 1
    outer loop
      vertex 148.75 66.6667 0.25
      vertex 148.75 98.75 0.25
      vertex 120 98.75 0.25
    endloop
  endfacet
  facet normal 0 0 1
    outer loop
      vertex 120 66.6667 0.25
      vertex 148.75 66.6667 0.25
      vertex 120 98.75 0.25
    endloop
  endfacet
endsolid OpenSCAD_Model
