solid OpenSCAD_Model
  facet normal -1 -0 -0
    outer loop
      vertex -50 -50 -60
      vertex -50 -50 60
      vertex -50 50 -60
    endloop
  endfacet
  facet normal -1 0 0
    outer loop
      vertex -50 50 -60
      vertex -50 -50 60
      vertex -50 50 60
    endloop
  endfacet
  facet normal 0 -1 0
    outer loop
      vertex -50 -50 60
      vertex -50 -50 -60
      vertex 50 -50 -60
    endloop
  endfacet
  facet normal 0 -1 0
    outer loop
      vertex 50 -50 60
      vertex -50 -50 60
      vertex 50 -50 -60
    endloop
  endfacet
  facet normal -0 -0 -1
    outer loop
      vertex -50 -50 -60
      vertex -50 50 -60
      vertex 50 -50 -60
    endloop
  endfacet
  facet normal 0 0 -1
    outer loop
      vertex 50 -50 -60
      vertex -50 50 -60
      vertex 50 50 -60
    endloop
  endfacet
  facet normal 0 1 0
    outer loop
      vertex -50 50 -60
      vertex -50 50 60
      vertex 50 50 -60
    endloop
  endfacet
  facet normal 0 1 0
    outer loop
      vertex 50 50 -60
      vertex -50 50 60
      vertex 50 50 60
    endloop
  endfacet
  facet normal 0 -0 1
    outer loop
      vertex -49 -49 60
      vertex -50 -50 60
      vertex 50 -50 60
    endloop
  endfacet
  facet normal -0 0 1
    outer loop
      vertex -49 49 60
      vertex -50 50 60
      vertex -49 -49 60
    endloop
  endfacet
  facet normal 0 -0 1
    outer loop
      vertex 49 -49 60
      vertex -49 -49 60
      vertex 50 -50 60
    endloop
  endfacet
  facet normal 0 -0 1
    outer loop
      vertex -50 50 60
      vertex -50 -50 60
      vertex -49 -49 60
    endloop
  endfacet
  facet normal 0 0 1
    outer loop
      vertex 50 50 60
      vertex -50 50 60
      vertex -49 49 60
    endloop
  endfacet
  facet normal 0 0 1
    outer loop
      vertex 50 50 60
      vertex 49 49 60
      vertex 50 -50 60
    endloop
  endfacet
  facet normal 0 0 1
    outer loop
      vertex 50 50 60
      vertex -49 49 60
      vertex 49 49 60
    endloop
  endfacet
  facet normal 0 -0 1
    outer loop
      vertex 49 49 60
      vertex 49 -49 60
      vertex 50 -50 60
    endloop
  endfacet
  facet normal 1 0 -0
    outer loop
      vertex 50 -50 60
      vertex 50 -50 -60
      vertex 50 50 -60
    endloop
  endfacet
  facet normal 1 0 0
    outer loop
      vertex 50 50 60
      vertex 50 -50 60
      vertex 50 50 -60
    endloop
  endfacet
  facet normal 1 0 0
    outer loop
      vertex -49 49 -58.5
      vertex -49 49 60
      vertex -49 -49 60
    endloop
  endfacet
  facet normal 1 0 0
    outer loop
      vertex -49 -49 -58.5
      vertex -49 49 -58.5
      vertex -49 -49 60
    endloop
  endfacet
  facet normal 0 1 0
    outer loop
      vertex 49 -49 60
      vertex 49 -49 -58.5
      vertex -49 -49 60
    endloop
  endfacet
  facet normal 0 1 -0
    outer loop
      vertex -49 -49 60
      vertex 49 -49 -58.5
      vertex -49 -49 -58.5
    endloop
  endfacet
  facet normal -1 0 0
    outer loop
      vertex 49 49 60
      vertex 49 49 -58.5
      vertex 49 -49 60
    endloop
  endfacet
  facet normal -1 0 0
    outer loop
      vertex 49 -49 60
      vertex 49 49 -58.5
      vertex 49 -49 -58.5
    endloop
  endfacet
  facet normal 0 -1 0
    outer loop
      vertex 49 49 -58.5
      vertex 49 49 60
      vertex -49 49 60
    endloop
  endfacet
  facet normal -0 -1 -0
    outer loop
      vertex -49 49 -58.5
      vertex 49 49 -58.5
      vertex -49 49 60
    endloop
  endfacet
  facet normal 0 0 1
    outer loop
      vertex 49 -49 -58.5
      vertex 49 49 -58.5
      vertex -49 49 -58.5
    endloop
  endfacet
  facet normal 0 0 1
    outer loop
      vertex -49 -49 -58.5
      vertex 49 -49 -58.5
      vertex -49 49 -58.5
    endloop
  endfacet
endsolid OpenSCAD_Model
