solid OpenSCAD_Model
  facet normal -1 0 0
    outer loop
      vertex 0 0 0
      vertex 0 35 2
      vertex 0 35 0
    endloop
  endfacet
  facet normal -1 -0 0
    outer loop
      vertex 0 35 2
      vertex 0 0 0
      vertex 0 0 2
    endloop
  endfacet
  facet normal -0 0 1
    outer loop
      vertex 19.7594 14.147 2
      vertex 26 0 2
      vertex 26 35 2
    endloop
  endfacet
  facet normal 0 0 1
    outer loop
      vertex 26 0 2
      vertex 19.7594 14.147 2
      vertex 19.7667 14 2
    endloop
  endfacet
  facet normal 0 0 1
    outer loop
      vertex 26 35 2
      vertex 19.7378 14.2926 2
      vertex 19.7594 14.147 2
    endloop
  endfacet
  facet normal 0 0 1
    outer loop
      vertex 26 35 2
      vertex 19.7021 14.4354 2
      vertex 19.7378 14.2926 2
    endloop
  endfacet
  facet normal 0 0 1
    outer loop
      vertex 26 35 2
      vertex 19.6525 14.574 2
      vertex 19.7021 14.4354 2
    endloop
  endfacet
  facet normal 0 0 1
    outer loop
      vertex 26 35 2
      vertex 19.5895 14.7071 2
      vertex 19.6525 14.574 2
    endloop
  endfacet
  facet normal 0 0 1
    outer loop
      vertex 26 35 2
      vertex 19.5139 14.8334 2
      vertex 19.5895 14.7071 2
    endloop
  endfacet
  facet normal -0 0 1
    outer loop
      vertex 17.2833 20.3 2
      vertex 19.5139 14.8334 2
      vertex 26 35 2
    endloop
  endfacet
  facet normal 0 0 1
    outer loop
      vertex 19.5139 14.8334 2
      vertex 17.2833 20.3 2
      vertex 19.4262 14.9516 2
    endloop
  endfacet
  facet normal 0 0 1
    outer loop
      vertex 19.4262 14.9516 2
      vertex 17.2833 20.3 2
      vertex 19.3273 15.0607 2
    endloop
  endfacet
  facet normal 0 0 1
    outer loop
      vertex 19.3273 15.0607 2
      vertex 17.2833 20.3 2
      vertex 19.2183 15.1595 2
    endloop
  endfacet
  facet normal 0 0 1
    outer loop
      vertex 19.2183 15.1595 2
      vertex 17.2833 20.3 2
      vertex 19.1 15.2472 2
    endloop
  endfacet
  facet normal 0 0 1
    outer loop
      vertex 19.1 15.2472 2
      vertex 17.2833 20.3 2
      vertex 18.9738 15.3229 2
    endloop
  endfacet
  facet normal 0 0 1
    outer loop
      vertex 18.9738 15.3229 2
      vertex 17.2833 20.3 2
      vertex 18.8407 15.3858 2
    endloop
  endfacet
  facet normal 0 0 1
    outer loop
      vertex 18.8407 15.3858 2
      vertex 17.2833 20.3 2
      vertex 18.7021 15.4354 2
    endloop
  endfacet
  facet normal 0 0 1
    outer loop
      vertex 18.7021 15.4354 2
      vertex 17.2833 20.3 2
      vertex 18.5593 15.4712 2
    endloop
  endfacet
  facet normal 0 0 1
    outer loop
      vertex 18.5593 15.4712 2
      vertex 17.2833 20.3 2
      vertex 18.4137 15.4928 2
    endloop
  endfacet
  facet normal 0 0 1
    outer loop
      vertex 18.4137 15.4928 2
      vertex 17.2833 20.3 2
      vertex 18.2667 15.5 2
    endloop
  endfacet
  facet normal 0 0 1
    outer loop
      vertex 18.2667 15.5 2
      vertex 17.2833 20.3 2
      vertex 18.1196 15.4928 2
    endloop
  endfacet
  facet normal 0 0 1
    outer loop
      vertex 18.1196 15.4928 2
      vertex 17.2833 20.3 2
      vertex 17.974 15.4712 2
    endloop
  endfacet
  facet normal 0 0 1
    outer loop
      vertex 17.974 15.4712 2
      vertex 17.2833 20.3 2
      vertex 17.8312 15.4354 2
    endloop
  endfacet
  facet normal 0 0 1
    outer loop
      vertex 17.8312 15.4354 2
      vertex 17.2833 20.3 2
      vertex 17.6926 15.3858 2
    endloop
  endfacet
  facet normal 0 0 1
    outer loop
      vertex 17.6926 15.3858 2
      vertex 17.2833 20.3 2
      vertex 17.5596 15.3229 2
    endloop
  endfacet
  facet normal 0 0 1
    outer loop
      vertex 17.5596 15.3229 2
      vertex 17.2833 20.3 2
      vertex 17.4333 15.2472 2
    endloop
  endfacet
  facet normal 0 0 1
    outer loop
      vertex 17.2833 20.3 2
      vertex 26 35 2
      vertex 17.2833 32.2 2
    endloop
  endfacet
  facet normal -0 0 1
    outer loop
      vertex 0 35 2
      vertex 17.2833 32.2 2
      vertex 26 35 2
    endloop
  endfacet
  facet normal 0 0 1
    outer loop
      vertex 5.38333 32.2 2
      vertex 0 35 2
      vertex 5.38333 20.3 2
    endloop
  endfacet
  facet normal 0 0 1
    outer loop
      vertex 17.2833 32.2 2
      vertex 0 35 2
      vertex 5.38333 32.2 2
    endloop
  endfacet
  facet normal -0 0 1
    outer loop
      vertex 19.7594 13.853 2
      vertex 26 0 2
      vertex 19.7667 14 2
    endloop
  endfacet
  facet normal -0 0 1
    outer loop
      vertex 19.7378 13.7074 2
      vertex 26 0 2
      vertex 19.7594 13.853 2
    endloop
  endfacet
  facet normal -0 0 1
    outer loop
      vertex 19.7021 13.5646 2
      vertex 26 0 2
      vertex 19.7378 13.7074 2
    endloop
  endfacet
  facet normal -0 0 1
    outer loop
      vertex 19.6525 13.426 2
      vertex 26 0 2
      vertex 19.7021 13.5646 2
    endloop
  endfacet
  facet normal -0 0 1
    outer loop
      vertex 19.5895 13.2929 2
      vertex 26 0 2
      vertex 19.6525 13.426 2
    endloop
  endfacet
  facet normal -0 0 1
    outer loop
      vertex 19.5139 13.1666 2
      vertex 26 0 2
      vertex 19.5895 13.2929 2
    endloop
  endfacet
  facet normal -0 0 1
    outer loop
      vertex 19.4262 13.0484 2
      vertex 26 0 2
      vertex 19.5139 13.1666 2
    endloop
  endfacet
  facet normal -0 0 1
    outer loop
      vertex 19.3273 12.9393 2
      vertex 26 0 2
      vertex 19.4262 13.0484 2
    endloop
  endfacet
  facet normal -0 0 1
    outer loop
      vertex 19.2183 12.8405 2
      vertex 26 0 2
      vertex 19.3273 12.9393 2
    endloop
  endfacet
  facet normal -0 0 1
    outer loop
      vertex 19.1 12.7528 2
      vertex 26 0 2
      vertex 19.2183 12.8405 2
    endloop
  endfacet
  facet normal -0 0 1
    outer loop
      vertex 18.9738 12.6771 2
      vertex 26 0 2
      vertex 19.1 12.7528 2
    endloop
  endfacet
  facet normal -0 0 1
    outer loop
      vertex 18.8407 12.6142 2
      vertex 26 0 2
      vertex 18.9738 12.6771 2
    endloop
  endfacet
  facet normal -0 0 1
    outer loop
      vertex 18.7021 12.5646 2
      vertex 26 0 2
      vertex 18.8407 12.6142 2
    endloop
  endfacet
  facet normal 0 0 1
    outer loop
      vertex 14.2757 8.16473 2
      vertex 18.7021 12.5646 2
      vertex 18.5593 12.5288 2
    endloop
  endfacet
  facet normal 0 0 1
    outer loop
      vertex 14.2757 8.16473 2
      vertex 18.5593 12.5288 2
      vertex 18.4137 12.5072 2
    endloop
  endfacet
  facet normal 0 0 1
    outer loop
      vertex 14.3189 8.45595 2
      vertex 18.4137 12.5072 2
      vertex 18.2667 12.5 2
    endloop
  endfacet
  facet normal 0 0 1
    outer loop
      vertex 14.3333 8.75 2
      vertex 18.2667 12.5 2
      vertex 18.1196 12.5072 2
    endloop
  endfacet
  facet normal 0 0 1
    outer loop
      vertex 14.3189 9.04405 2
      vertex 18.1196 12.5072 2
      vertex 17.974 12.5288 2
    endloop
  endfacet
  facet normal 0 0 1
    outer loop
      vertex 14.3189 9.04405 2
      vertex 17.974 12.5288 2
      vertex 17.8312 12.5646 2
    endloop
  endfacet
  facet normal 0 0 1
    outer loop
      vertex 14.3189 9.04405 2
      vertex 17.8312 12.5646 2
      vertex 17.6926 12.6142 2
    endloop
  endfacet
  facet normal 0 0 1
    outer loop
      vertex 14.3189 9.04405 2
      vertex 17.6926 12.6142 2
      vertex 17.5596 12.6771 2
    endloop
  endfacet
  facet normal 0 0 1
    outer loop
      vertex 14.3189 9.04405 2
      vertex 17.5596 12.6771 2
      vertex 17.4333 12.7528 2
    endloop
  endfacet
  facet normal 0 0 1
    outer loop
      vertex 14.3189 9.04405 2
      vertex 17.4333 12.7528 2
      vertex 17.3151 12.8405 2
    endloop
  endfacet
  facet normal 0 0 1
    outer loop
      vertex 14.3189 9.04405 2
      vertex 17.3151 12.8405 2
      vertex 17.206 12.9393 2
    endloop
  endfacet
  facet normal 0 0 1
    outer loop
      vertex 14.3189 9.04405 2
      vertex 17.206 12.9393 2
      vertex 17.1072 13.0484 2
    endloop
  endfacet
  facet normal 0 0 1
    outer loop
      vertex 14.3189 9.04405 2
      vertex 17.1072 13.0484 2
      vertex 17.0195 13.1666 2
    endloop
  endfacet
  facet normal 0 0 1
    outer loop
      vertex 12.7475 11.3958 2
      vertex 16.7739 13.853 2
      vertex 16.7667 14 2
    endloop
  endfacet
  facet normal 0 0 1
    outer loop
      vertex 14.3189 9.04405 2
      vertex 16.7955 13.7074 2
      vertex 16.7739 13.853 2
    endloop
  endfacet
  facet normal 0 0 1
    outer loop
      vertex 14.3189 9.04405 2
      vertex 16.8313 13.5646 2
      vertex 16.7955 13.7074 2
    endloop
  endfacet
  facet normal 0 0 1
    outer loop
      vertex 14.3189 9.04405 2
      vertex 16.8808 13.426 2
      vertex 16.8313 13.5646 2
    endloop
  endfacet
  facet normal 0 0 1
    outer loop
      vertex 14.3189 9.04405 2
      vertex 16.9438 13.2929 2
      vertex 16.8808 13.426 2
    endloop
  endfacet
  facet normal 0 0 1
    outer loop
      vertex 14.3189 9.04405 2
      vertex 17.0195 13.1666 2
      vertex 16.9438 13.2929 2
    endloop
  endfacet
  facet normal 0 0 1
    outer loop
      vertex 18.2667 12.5 2
      vertex 14.3333 8.75 2
      vertex 14.3189 8.45595 2
    endloop
  endfacet
  facet normal 0 0 1
    outer loop
      vertex 18.4137 12.5072 2
      vertex 14.3189 8.45595 2
      vertex 14.2757 8.16473 2
    endloop
  endfacet
  facet normal 0 0 1
    outer loop
      vertex 18.7021 12.5646 2
      vertex 14.2757 8.16473 2
      vertex 14.2042 7.87915 2
    endloop
  endfacet
  facet normal 0 0 1
    outer loop
      vertex 18.7021 12.5646 2
      vertex 14.2042 7.87915 2
      vertex 26 0 2
    endloop
  endfacet
  facet normal -0 0 1
    outer loop
      vertex 14.105 7.60195 2
      vertex 26 0 2
      vertex 14.2042 7.87915 2
    endloop
  endfacet
  facet normal -0 0 1
    outer loop
      vertex 13.9791 7.33581 2
      vertex 26 0 2
      vertex 14.105 7.60195 2
    endloop
  endfacet
  facet normal -0 0 1
    outer loop
      vertex 13.8277 7.08329 2
      vertex 26 0 2
      vertex 13.9791 7.33581 2
    endloop
  endfacet
  facet normal -0 0 1
    outer loop
      vertex 13.6524 6.84682 2
      vertex 26 0 2
      vertex 13.8277 7.08329 2
    endloop
  endfacet
  facet normal -0 0 1
    outer loop
      vertex 13.4547 6.62868 2
      vertex 26 0 2
      vertex 13.6524 6.84682 2
    endloop
  endfacet
  facet normal -0 0 1
    outer loop
      vertex 13.2365 6.43097 2
      vertex 26 0 2
      vertex 13.4547 6.62868 2
    endloop
  endfacet
  facet normal -0 0 1
    outer loop
      vertex 13 6.25559 2
      vertex 26 0 2
      vertex 13.2365 6.43097 2
    endloop
  endfacet
  facet normal -0 0 1
    outer loop
      vertex 12.7475 6.10424 2
      vertex 26 0 2
      vertex 13 6.25559 2
    endloop
  endfacet
  facet normal -0 0 1
    outer loop
      vertex 12.4814 5.97836 2
      vertex 26 0 2
      vertex 12.7475 6.10424 2
    endloop
  endfacet
  facet normal -0 0 1
    outer loop
      vertex 12.2042 5.87918 2
      vertex 26 0 2
      vertex 12.4814 5.97836 2
    endloop
  endfacet
  facet normal -0 0 1
    outer loop
      vertex 11.9186 5.80764 2
      vertex 26 0 2
      vertex 12.2042 5.87918 2
    endloop
  endfacet
  facet normal -0 0 1
    outer loop
      vertex 11.6274 5.76445 2
      vertex 26 0 2
      vertex 11.9186 5.80764 2
    endloop
  endfacet
  facet normal 0 0 1
    outer loop
      vertex 0 0 2
      vertex 11.6274 5.76445 2
      vertex 11.3333 5.75 2
    endloop
  endfacet
  facet normal 0 0 1
    outer loop
      vertex 0 0 2
      vertex 11.3333 5.75 2
      vertex 11.0393 5.76445 2
    endloop
  endfacet
  facet normal 0 0 1
    outer loop
      vertex 0 0 2
      vertex 11.0393 5.76445 2
      vertex 10.7481 5.80764 2
    endloop
  endfacet
  facet normal 0 0 1
    outer loop
      vertex 0 0 2
      vertex 10.7481 5.80764 2
      vertex 10.4625 5.87918 2
    endloop
  endfacet
  facet normal 0 0 1
    outer loop
      vertex 0 0 2
      vertex 10.4625 5.87918 2
      vertex 10.1853 5.97836 2
    endloop
  endfacet
  facet normal 0 0 1
    outer loop
      vertex 8.34778 9.04405 2
      vertex 0 0 2
      vertex 8.33333 8.75 2
    endloop
  endfacet
  facet normal 0 0 1
    outer loop
      vertex 8.33333 8.75 2
      vertex 0 0 2
      vertex 8.34778 8.45595 2
    endloop
  endfacet
  facet normal 0 0 1
    outer loop
      vertex 0 0 2
      vertex 5.38333 20.3 2
      vertex 0 35 2
    endloop
  endfacet
  facet normal 0 0 1
    outer loop
      vertex 8.34778 8.45595 2
      vertex 0 0 2
      vertex 8.39098 8.16473 2
    endloop
  endfacet
  facet normal 0 0 1
    outer loop
      vertex 11.6274 5.76445 2
      vertex 0 0 2
      vertex 26 0 2
    endloop
  endfacet
  facet normal 0 0 1
    outer loop
      vertex 9.91914 6.10424 2
      vertex 0 0 2
      vertex 10.1853 5.97836 2
    endloop
  endfacet
  facet normal 0 0 1
    outer loop
      vertex 9.66662 6.25559 2
      vertex 0 0 2
      vertex 9.91914 6.10424 2
    endloop
  endfacet
  facet normal 0 0 1
    outer loop
      vertex 9.43015 6.43097 2
      vertex 0 0 2
      vertex 9.66662 6.25559 2
    endloop
  endfacet
  facet normal 0 0 1
    outer loop
      vertex 9.21201 6.62868 2
      vertex 0 0 2
      vertex 9.43015 6.43097 2
    endloop
  endfacet
  facet normal 0 0 1
    outer loop
      vertex 9.0143 6.84682 2
      vertex 0 0 2
      vertex 9.21201 6.62868 2
    endloop
  endfacet
  facet normal 0 0 1
    outer loop
      vertex 8.83892 7.08329 2
      vertex 0 0 2
      vertex 9.0143 6.84682 2
    endloop
  endfacet
  facet normal 0 0 1
    outer loop
      vertex 8.68757 7.33581 2
      vertex 0 0 2
      vertex 8.83892 7.08329 2
    endloop
  endfacet
  facet normal 0 0 1
    outer loop
      vertex 8.56169 7.60195 2
      vertex 0 0 2
      vertex 8.68757 7.33581 2
    endloop
  endfacet
  facet normal 0 0 1
    outer loop
      vertex 8.46251 7.87915 2
      vertex 0 0 2
      vertex 8.56169 7.60195 2
    endloop
  endfacet
  facet normal 0 0 1
    outer loop
      vertex 8.39098 8.16473 2
      vertex 0 0 2
      vertex 8.46251 7.87915 2
    endloop
  endfacet
  facet normal 0 0 1
    outer loop
      vertex 17.4333 15.2472 2
      vertex 17.2833 20.3 2
      vertex 17.3151 15.1595 2
    endloop
  endfacet
  facet normal 0 0 1
    outer loop
      vertex 17.2833 20.3 2
      vertex 17.206 15.0607 2
      vertex 17.3151 15.1595 2
    endloop
  endfacet
  facet normal 0 0 1
    outer loop
      vertex 17.2833 20.3 2
      vertex 17.1072 14.9516 2
      vertex 17.206 15.0607 2
    endloop
  endfacet
  facet normal 0 0 1
    outer loop
      vertex 17.2833 20.3 2
      vertex 17.0195 14.8334 2
      vertex 17.1072 14.9516 2
    endloop
  endfacet
  facet normal 0 0 1
    outer loop
      vertex 17.2833 20.3 2
      vertex 16.9438 14.7071 2
      vertex 17.0195 14.8334 2
    endloop
  endfacet
  facet normal 0 0 1
    outer loop
      vertex 11.3333 11.75 2
      vertex 16.9438 14.7071 2
      vertex 17.2833 20.3 2
    endloop
  endfacet
  facet normal 0 0 1
    outer loop
      vertex 16.9438 14.7071 2
      vertex 11.6274 11.7356 2
      vertex 16.8808 14.574 2
    endloop
  endfacet
  facet normal 0 -0 1
    outer loop
      vertex 11.9186 11.6924 2
      vertex 16.8808 14.574 2
      vertex 11.6274 11.7356 2
    endloop
  endfacet
  facet normal 0 0 1
    outer loop
      vertex 16.8808 14.574 2
      vertex 11.9186 11.6924 2
      vertex 16.8313 14.4354 2
    endloop
  endfacet
  facet normal 0 0 1
    outer loop
      vertex 12.4814 11.5216 2
      vertex 16.7667 14 2
      vertex 16.7739 14.147 2
    endloop
  endfacet
  facet normal 0 -0 1
    outer loop
      vertex 12.2042 11.6208 2
      vertex 16.8313 14.4354 2
      vertex 11.9186 11.6924 2
    endloop
  endfacet
  facet normal 0 0 1
    outer loop
      vertex 18.1196 12.5072 2
      vertex 14.3189 9.04405 2
      vertex 14.3333 8.75 2
    endloop
  endfacet
  facet normal 0 0 1
    outer loop
      vertex 16.7739 13.853 2
      vertex 14.2757 9.33527 2
      vertex 14.3189 9.04405 2
    endloop
  endfacet
  facet normal 0 0 1
    outer loop
      vertex 16.7739 13.853 2
      vertex 14.2042 9.62085 2
      vertex 14.2757 9.33527 2
    endloop
  endfacet
  facet normal 0 0 1
    outer loop
      vertex 16.7739 13.853 2
      vertex 14.105 9.89805 2
      vertex 14.2042 9.62085 2
    endloop
  endfacet
  facet normal 0 0 1
    outer loop
      vertex 16.7739 13.853 2
      vertex 13.9791 10.1642 2
      vertex 14.105 9.89805 2
    endloop
  endfacet
  facet normal 0 0 1
    outer loop
      vertex 16.7739 13.853 2
      vertex 13.8277 10.4167 2
      vertex 13.9791 10.1642 2
    endloop
  endfacet
  facet normal 0 0 1
    outer loop
      vertex 16.7739 13.853 2
      vertex 13.6524 10.6532 2
      vertex 13.8277 10.4167 2
    endloop
  endfacet
  facet normal 0 0 1
    outer loop
      vertex 16.7739 13.853 2
      vertex 13.4547 10.8713 2
      vertex 13.6524 10.6532 2
    endloop
  endfacet
  facet normal 0 0 1
    outer loop
      vertex 16.7739 13.853 2
      vertex 13.2365 11.069 2
      vertex 13.4547 10.8713 2
    endloop
  endfacet
  facet normal 0 0 1
    outer loop
      vertex 16.7739 13.853 2
      vertex 13 11.2444 2
      vertex 13.2365 11.069 2
    endloop
  endfacet
  facet normal 0 0 1
    outer loop
      vertex 16.7739 13.853 2
      vertex 12.7475 11.3958 2
      vertex 13 11.2444 2
    endloop
  endfacet
  facet normal 0 0 1
    outer loop
      vertex 16.7667 14 2
      vertex 12.4814 11.5216 2
      vertex 12.7475 11.3958 2
    endloop
  endfacet
  facet normal 0 0 1
    outer loop
      vertex 16.7739 14.147 2
      vertex 12.2042 11.6208 2
      vertex 12.4814 11.5216 2
    endloop
  endfacet
  facet normal 0 0 1
    outer loop
      vertex 16.7955 14.2926 2
      vertex 12.2042 11.6208 2
      vertex 16.7739 14.147 2
    endloop
  endfacet
  facet normal 0 0 1
    outer loop
      vertex 16.8313 14.4354 2
      vertex 12.2042 11.6208 2
      vertex 16.7955 14.2926 2
    endloop
  endfacet
  facet normal 0 0 1
    outer loop
      vertex 16.9438 14.7071 2
      vertex 11.3333 11.75 2
      vertex 11.6274 11.7356 2
    endloop
  endfacet
  facet normal -0 0 1
    outer loop
      vertex 5.38333 20.3 2
      vertex 11.3333 11.75 2
      vertex 17.2833 20.3 2
    endloop
  endfacet
  facet normal 0 0 1
    outer loop
      vertex 11.3333 11.75 2
      vertex 5.38333 20.3 2
      vertex 11.0393 11.7356 2
    endloop
  endfacet
  facet normal 0 0 1
    outer loop
      vertex 11.0393 11.7356 2
      vertex 5.38333 20.3 2
      vertex 10.7481 11.6924 2
    endloop
  endfacet
  facet normal 0 0 1
    outer loop
      vertex 10.7481 11.6924 2
      vertex 5.38333 20.3 2
      vertex 10.4625 11.6208 2
    endloop
  endfacet
  facet normal 0 0 1
    outer loop
      vertex 10.4625 11.6208 2
      vertex 5.38333 20.3 2
      vertex 10.1853 11.5216 2
    endloop
  endfacet
  facet normal 0 0 1
    outer loop
      vertex 10.1853 11.5216 2
      vertex 5.38333 20.3 2
      vertex 9.91914 11.3958 2
    endloop
  endfacet
  facet normal 0 0 1
    outer loop
      vertex 9.91914 11.3958 2
      vertex 5.38333 20.3 2
      vertex 9.66662 11.2444 2
    endloop
  endfacet
  facet normal 0 0 1
    outer loop
      vertex 9.66662 11.2444 2
      vertex 5.38333 20.3 2
      vertex 9.43015 11.069 2
    endloop
  endfacet
  facet normal 0 0 1
    outer loop
      vertex 9.43015 11.069 2
      vertex 5.38333 20.3 2
      vertex 9.21201 10.8713 2
    endloop
  endfacet
  facet normal 0 0 1
    outer loop
      vertex 8.39098 9.33527 2
      vertex 0 0 2
      vertex 8.34778 9.04405 2
    endloop
  endfacet
  facet normal 0 0 1
    outer loop
      vertex 0 0 2
      vertex 8.39098 9.33527 2
      vertex 5.38333 20.3 2
    endloop
  endfacet
  facet normal 0 0 1
    outer loop
      vertex 8.46251 9.62085 2
      vertex 5.38333 20.3 2
      vertex 8.39098 9.33527 2
    endloop
  endfacet
  facet normal 0 0 1
    outer loop
      vertex 8.56169 9.89805 2
      vertex 5.38333 20.3 2
      vertex 8.46251 9.62085 2
    endloop
  endfacet
  facet normal 0 0 1
    outer loop
      vertex 8.68757 10.1642 2
      vertex 5.38333 20.3 2
      vertex 8.56169 9.89805 2
    endloop
  endfacet
  facet normal 0 0 1
    outer loop
      vertex 8.83892 10.4167 2
      vertex 5.38333 20.3 2
      vertex 8.68757 10.1642 2
    endloop
  endfacet
  facet normal 0 0 1
    outer loop
      vertex 9.0143 10.6532 2
      vertex 5.38333 20.3 2
      vertex 8.83892 10.4167 2
    endloop
  endfacet
  facet normal 0 0 1
    outer loop
      vertex 9.21201 10.8713 2
      vertex 5.38333 20.3 2
      vertex 9.0143 10.6532 2
    endloop
  endfacet
  facet normal 1 -0 0
    outer loop
      vertex 26 0 2
      vertex 26 35 0
      vertex 26 35 2
    endloop
  endfacet
  facet normal 1 0 0
    outer loop
      vertex 26 35 0
      vertex 26 0 2
      vertex 26 0 0
    endloop
  endfacet
  facet normal 0 1 -0
    outer loop
      vertex 26 35 0
      vertex 0 35 2
      vertex 26 35 2
    endloop
  endfacet
  facet normal 0 1 0
    outer loop
      vertex 0 35 2
      vertex 26 35 0
      vertex 0 35 0
    endloop
  endfacet
  facet normal 0 0 -1
    outer loop
      vertex 17.206 15.0607 0
      vertex 17.2833 20.3 0
      vertex 17.3151 15.1595 0
    endloop
  endfacet
  facet normal 0 0 -1
    outer loop
      vertex 17.1072 14.9516 0
      vertex 17.2833 20.3 0
      vertex 17.206 15.0607 0
    endloop
  endfacet
  facet normal 0 0 -1
    outer loop
      vertex 17.0195 14.8334 0
      vertex 17.2833 20.3 0
      vertex 17.1072 14.9516 0
    endloop
  endfacet
  facet normal 0 0 -1
    outer loop
      vertex 16.9438 14.7071 0
      vertex 17.2833 20.3 0
      vertex 17.0195 14.8334 0
    endloop
  endfacet
  facet normal 0 0 -1
    outer loop
      vertex 11.6274 11.7356 0
      vertex 16.9438 14.7071 0
      vertex 16.8808 14.574 0
    endloop
  endfacet
  facet normal 0 0 -1
    outer loop
      vertex 11.9186 11.6924 0
      vertex 16.8808 14.574 0
      vertex 16.8313 14.4354 0
    endloop
  endfacet
  facet normal 0 0 -1
    outer loop
      vertex 12.2042 11.6208 0
      vertex 16.8313 14.4354 0
      vertex 16.7955 14.2926 0
    endloop
  endfacet
  facet normal 0 0 -1
    outer loop
      vertex 12.2042 11.6208 0
      vertex 16.7955 14.2926 0
      vertex 16.7739 14.147 0
    endloop
  endfacet
  facet normal -0 0 -1
    outer loop
      vertex 17.1072 13.0484 0
      vertex 13.6524 10.6532 0
      vertex 17.0195 13.1666 0
    endloop
  endfacet
  facet normal -0 0 -1
    outer loop
      vertex 17.0195 13.1666 0
      vertex 13.6524 10.6532 0
      vertex 16.9438 13.2929 0
    endloop
  endfacet
  facet normal 0 0 -1
    outer loop
      vertex 13.4547 10.8713 0
      vertex 16.9438 13.2929 0
      vertex 13.6524 10.6532 0
    endloop
  endfacet
  facet normal -0 0 -1
    outer loop
      vertex 16.9438 13.2929 0
      vertex 13.4547 10.8713 0
      vertex 16.8808 13.426 0
    endloop
  endfacet
  facet normal 0 0 -1
    outer loop
      vertex 13.2365 11.069 0
      vertex 16.8808 13.426 0
      vertex 13.4547 10.8713 0
    endloop
  endfacet
  facet normal -0 0 -1
    outer loop
      vertex 16.8808 13.426 0
      vertex 13.2365 11.069 0
      vertex 16.8313 13.5646 0
    endloop
  endfacet
  facet normal -0 0 -1
    outer loop
      vertex 16.8313 13.5646 0
      vertex 13.2365 11.069 0
      vertex 16.7955 13.7074 0
    endloop
  endfacet
  facet normal 0 0 -1
    outer loop
      vertex 13 11.2444 0
      vertex 16.7955 13.7074 0
      vertex 13.2365 11.069 0
    endloop
  endfacet
  facet normal -0 0 -1
    outer loop
      vertex 16.7955 13.7074 0
      vertex 13 11.2444 0
      vertex 16.7739 13.853 0
    endloop
  endfacet
  facet normal 0 0 -1
    outer loop
      vertex 12.7475 11.3958 0
      vertex 16.7739 13.853 0
      vertex 13 11.2444 0
    endloop
  endfacet
  facet normal -0 0 -1
    outer loop
      vertex 16.7739 13.853 0
      vertex 12.7475 11.3958 0
      vertex 16.7667 14 0
    endloop
  endfacet
  facet normal 0 0 -1
    outer loop
      vertex 12.4814 11.5216 0
      vertex 16.7667 14 0
      vertex 12.7475 11.3958 0
    endloop
  endfacet
  facet normal -0 0 -1
    outer loop
      vertex 16.7667 14 0
      vertex 12.4814 11.5216 0
      vertex 16.7739 14.147 0
    endloop
  endfacet
  facet normal 0 0 -1
    outer loop
      vertex 12.2042 11.6208 0
      vertex 16.7739 14.147 0
      vertex 12.4814 11.5216 0
    endloop
  endfacet
  facet normal 0 0 -1
    outer loop
      vertex 16.8313 14.4354 0
      vertex 12.2042 11.6208 0
      vertex 11.9186 11.6924 0
    endloop
  endfacet
  facet normal 0 0 -1
    outer loop
      vertex 16.8808 14.574 0
      vertex 11.9186 11.6924 0
      vertex 11.6274 11.7356 0
    endloop
  endfacet
  facet normal 0 0 -1
    outer loop
      vertex 11.3333 11.75 0
      vertex 16.9438 14.7071 0
      vertex 11.6274 11.7356 0
    endloop
  endfacet
  facet normal -0 0 -1
    outer loop
      vertex 16.9438 14.7071 0
      vertex 11.3333 11.75 0
      vertex 17.2833 20.3 0
    endloop
  endfacet
  facet normal 0 0 -1
    outer loop
      vertex 5.38333 20.3 0
      vertex 11.3333 11.75 0
      vertex 11.0393 11.7356 0
    endloop
  endfacet
  facet normal 0 0 -1
    outer loop
      vertex 5.38333 20.3 0
      vertex 11.0393 11.7356 0
      vertex 10.7481 11.6924 0
    endloop
  endfacet
  facet normal 0 0 -1
    outer loop
      vertex 5.38333 20.3 0
      vertex 10.7481 11.6924 0
      vertex 10.4625 11.6208 0
    endloop
  endfacet
  facet normal 0 0 -1
    outer loop
      vertex 5.38333 20.3 0
      vertex 10.4625 11.6208 0
      vertex 10.1853 11.5216 0
    endloop
  endfacet
  facet normal 0 0 -1
    outer loop
      vertex 5.38333 20.3 0
      vertex 10.1853 11.5216 0
      vertex 9.91914 11.3958 0
    endloop
  endfacet
  facet normal 0 0 -1
    outer loop
      vertex 5.38333 20.3 0
      vertex 9.91914 11.3958 0
      vertex 9.66662 11.2444 0
    endloop
  endfacet
  facet normal 0 0 -1
    outer loop
      vertex 5.38333 20.3 0
      vertex 9.66662 11.2444 0
      vertex 9.43015 11.069 0
    endloop
  endfacet
  facet normal 0 0 -1
    outer loop
      vertex 5.38333 20.3 0
      vertex 9.43015 11.069 0
      vertex 9.21201 10.8713 0
    endloop
  endfacet
  facet normal 0 0 -1
    outer loop
      vertex 5.38333 20.3 0
      vertex 9.21201 10.8713 0
      vertex 9.0143 10.6532 0
    endloop
  endfacet
  facet normal 0 0 -1
    outer loop
      vertex 11.3333 11.75 0
      vertex 5.38333 20.3 0
      vertex 17.2833 20.3 0
    endloop
  endfacet
  facet normal 0 0 -1
    outer loop
      vertex 8.83892 10.4167 0
      vertex 5.38333 20.3 0
      vertex 9.0143 10.6532 0
    endloop
  endfacet
  facet normal 0 0 -1
    outer loop
      vertex 8.68757 10.1642 0
      vertex 5.38333 20.3 0
      vertex 8.83892 10.4167 0
    endloop
  endfacet
  facet normal 0 0 -1
    outer loop
      vertex 8.56169 9.89805 0
      vertex 5.38333 20.3 0
      vertex 8.68757 10.1642 0
    endloop
  endfacet
  facet normal 0 0 -1
    outer loop
      vertex 8.46251 9.62085 0
      vertex 5.38333 20.3 0
      vertex 8.56169 9.89805 0
    endloop
  endfacet
  facet normal 0 0 -1
    outer loop
      vertex 8.39098 9.33527 0
      vertex 5.38333 20.3 0
      vertex 8.46251 9.62085 0
    endloop
  endfacet
  facet normal 0 0 -1
    outer loop
      vertex 0 0 0
      vertex 8.39098 9.33527 0
      vertex 8.34778 9.04405 0
    endloop
  endfacet
  facet normal 0 0 -1
    outer loop
      vertex 0 0 0
      vertex 8.34778 9.04405 0
      vertex 8.33333 8.75 0
    endloop
  endfacet
  facet normal 0 0 -1
    outer loop
      vertex 19.7594 14.147 0
      vertex 26 0 0
      vertex 19.7667 14 0
    endloop
  endfacet
  facet normal 0 0 -1
    outer loop
      vertex 26 0 0
      vertex 19.7594 13.853 0
      vertex 19.7667 14 0
    endloop
  endfacet
  facet normal 0 0 -1
    outer loop
      vertex 26 0 0
      vertex 19.7378 13.7074 0
      vertex 19.7594 13.853 0
    endloop
  endfacet
  facet normal 0 0 -1
    outer loop
      vertex 26 0 0
      vertex 19.7021 13.5646 0
      vertex 19.7378 13.7074 0
    endloop
  endfacet
  facet normal 0 0 -1
    outer loop
      vertex 26 0 0
      vertex 19.6525 13.426 0
      vertex 19.7021 13.5646 0
    endloop
  endfacet
  facet normal 0 0 -1
    outer loop
      vertex 26 0 0
      vertex 19.5895 13.2929 0
      vertex 19.6525 13.426 0
    endloop
  endfacet
  facet normal 0 0 -1
    outer loop
      vertex 26 0 0
      vertex 19.5139 13.1666 0
      vertex 19.5895 13.2929 0
    endloop
  endfacet
  facet normal 0 0 -1
    outer loop
      vertex 26 0 0
      vertex 19.4262 13.0484 0
      vertex 19.5139 13.1666 0
    endloop
  endfacet
  facet normal 0 0 -1
    outer loop
      vertex 26 0 0
      vertex 19.3273 12.9393 0
      vertex 19.4262 13.0484 0
    endloop
  endfacet
  facet normal 0 0 -1
    outer loop
      vertex 26 0 0
      vertex 19.2183 12.8405 0
      vertex 19.3273 12.9393 0
    endloop
  endfacet
  facet normal 0 0 -1
    outer loop
      vertex 26 0 0
      vertex 19.1 12.7528 0
      vertex 19.2183 12.8405 0
    endloop
  endfacet
  facet normal 0 0 -1
    outer loop
      vertex 26 0 0
      vertex 18.9738 12.6771 0
      vertex 19.1 12.7528 0
    endloop
  endfacet
  facet normal 0 0 -1
    outer loop
      vertex 26 0 0
      vertex 18.8407 12.6142 0
      vertex 18.9738 12.6771 0
    endloop
  endfacet
  facet normal 0 0 -1
    outer loop
      vertex 26 0 0
      vertex 18.7021 12.5646 0
      vertex 18.8407 12.6142 0
    endloop
  endfacet
  facet normal 0 0 -1
    outer loop
      vertex 14.2042 7.87915 0
      vertex 18.7021 12.5646 0
      vertex 26 0 0
    endloop
  endfacet
  facet normal 0 -0 -1
    outer loop
      vertex 14.2757 8.16473 0
      vertex 18.7021 12.5646 0
      vertex 14.2042 7.87915 0
    endloop
  endfacet
  facet normal 0 0 -1
    outer loop
      vertex 18.7021 12.5646 0
      vertex 14.2757 8.16473 0
      vertex 18.5593 12.5288 0
    endloop
  endfacet
  facet normal 0 0 -1
    outer loop
      vertex 18.5593 12.5288 0
      vertex 14.2757 8.16473 0
      vertex 18.4137 12.5072 0
    endloop
  endfacet
  facet normal 0 -0 -1
    outer loop
      vertex 14.3189 8.45595 0
      vertex 18.4137 12.5072 0
      vertex 14.2757 8.16473 0
    endloop
  endfacet
  facet normal 0 0 -1
    outer loop
      vertex 18.4137 12.5072 0
      vertex 14.3189 8.45595 0
      vertex 18.2667 12.5 0
    endloop
  endfacet
  facet normal 0 -0 -1
    outer loop
      vertex 14.3333 8.75 0
      vertex 18.2667 12.5 0
      vertex 14.3189 8.45595 0
    endloop
  endfacet
  facet normal 0 0 -1
    outer loop
      vertex 14.3189 9.04405 0
      vertex 18.1196 12.5072 0
      vertex 14.3333 8.75 0
    endloop
  endfacet
  facet normal -0 0 -1
    outer loop
      vertex 18.1196 12.5072 0
      vertex 14.3189 9.04405 0
      vertex 17.974 12.5288 0
    endloop
  endfacet
  facet normal 0 0 -1
    outer loop
      vertex 14.2757 9.33527 0
      vertex 17.974 12.5288 0
      vertex 14.3189 9.04405 0
    endloop
  endfacet
  facet normal -0 0 -1
    outer loop
      vertex 17.974 12.5288 0
      vertex 14.2757 9.33527 0
      vertex 17.8312 12.5646 0
    endloop
  endfacet
  facet normal -0 0 -1
    outer loop
      vertex 17.8312 12.5646 0
      vertex 14.2757 9.33527 0
      vertex 17.6926 12.6142 0
    endloop
  endfacet
  facet normal 0 0 -1
    outer loop
      vertex 14.2042 9.62085 0
      vertex 17.6926 12.6142 0
      vertex 14.2757 9.33527 0
    endloop
  endfacet
  facet normal 0 0 -1
    outer loop
      vertex 13.6524 10.6532 0
      vertex 17.1072 13.0484 0
      vertex 13.8277 10.4167 0
    endloop
  endfacet
  facet normal -0 0 -1
    outer loop
      vertex 17.206 12.9393 0
      vertex 13.8277 10.4167 0
      vertex 17.1072 13.0484 0
    endloop
  endfacet
  facet normal 0 0 -1
    outer loop
      vertex 13.8277 10.4167 0
      vertex 17.206 12.9393 0
      vertex 13.9791 10.1642 0
    endloop
  endfacet
  facet normal -0 0 -1
    outer loop
      vertex 17.3151 12.8405 0
      vertex 13.9791 10.1642 0
      vertex 17.206 12.9393 0
    endloop
  endfacet
  facet normal -0 0 -1
    outer loop
      vertex 17.4333 12.7528 0
      vertex 13.9791 10.1642 0
      vertex 17.3151 12.8405 0
    endloop
  endfacet
  facet normal 0 0 -1
    outer loop
      vertex 13.9791 10.1642 0
      vertex 17.4333 12.7528 0
      vertex 14.105 9.89805 0
    endloop
  endfacet
  facet normal 0 0 -1
    outer loop
      vertex 14.105 9.89805 0
      vertex 17.5596 12.6771 0
      vertex 14.2042 9.62085 0
    endloop
  endfacet
  facet normal -0 0 -1
    outer loop
      vertex 17.5596 12.6771 0
      vertex 14.105 9.89805 0
      vertex 17.4333 12.7528 0
    endloop
  endfacet
  facet normal -0 0 -1
    outer loop
      vertex 17.6926 12.6142 0
      vertex 14.2042 9.62085 0
      vertex 17.5596 12.6771 0
    endloop
  endfacet
  facet normal -0 0 -1
    outer loop
      vertex 18.2667 12.5 0
      vertex 14.3333 8.75 0
      vertex 18.1196 12.5072 0
    endloop
  endfacet
  facet normal 0 0 -1
    outer loop
      vertex 26 0 0
      vertex 14.105 7.60195 0
      vertex 14.2042 7.87915 0
    endloop
  endfacet
  facet normal 0 0 -1
    outer loop
      vertex 26 0 0
      vertex 13.9791 7.33581 0
      vertex 14.105 7.60195 0
    endloop
  endfacet
  facet normal 0 0 -1
    outer loop
      vertex 26 0 0
      vertex 13.8277 7.08329 0
      vertex 13.9791 7.33581 0
    endloop
  endfacet
  facet normal 0 0 -1
    outer loop
      vertex 26 0 0
      vertex 13.6524 6.84682 0
      vertex 13.8277 7.08329 0
    endloop
  endfacet
  facet normal 0 0 -1
    outer loop
      vertex 26 0 0
      vertex 13.4547 6.62868 0
      vertex 13.6524 6.84682 0
    endloop
  endfacet
  facet normal 0 0 -1
    outer loop
      vertex 26 0 0
      vertex 13.2365 6.43097 0
      vertex 13.4547 6.62868 0
    endloop
  endfacet
  facet normal 0 0 -1
    outer loop
      vertex 26 0 0
      vertex 13 6.25559 0
      vertex 13.2365 6.43097 0
    endloop
  endfacet
  facet normal 0 0 -1
    outer loop
      vertex 26 0 0
      vertex 12.7475 6.10424 0
      vertex 13 6.25559 0
    endloop
  endfacet
  facet normal 0 0 -1
    outer loop
      vertex 26 0 0
      vertex 12.4814 5.97836 0
      vertex 12.7475 6.10424 0
    endloop
  endfacet
  facet normal 0 0 -1
    outer loop
      vertex 26 0 0
      vertex 12.2042 5.87918 0
      vertex 12.4814 5.97836 0
    endloop
  endfacet
  facet normal 0 0 -1
    outer loop
      vertex 26 0 0
      vertex 11.9186 5.80764 0
      vertex 12.2042 5.87918 0
    endloop
  endfacet
  facet normal 0 0 -1
    outer loop
      vertex 26 0 0
      vertex 11.6274 5.76445 0
      vertex 11.9186 5.80764 0
    endloop
  endfacet
  facet normal 0 0 -1
    outer loop
      vertex 0 0 0
      vertex 11.6274 5.76445 0
      vertex 26 0 0
    endloop
  endfacet
  facet normal 0 0 -1
    outer loop
      vertex 11.6274 5.76445 0
      vertex 0 0 0
      vertex 11.3333 5.75 0
    endloop
  endfacet
  facet normal -0 0 -1
    outer loop
      vertex 11.3333 5.75 0
      vertex 0 0 0
      vertex 11.0393 5.76445 0
    endloop
  endfacet
  facet normal -0 0 -1
    outer loop
      vertex 11.0393 5.76445 0
      vertex 0 0 0
      vertex 10.7481 5.80764 0
    endloop
  endfacet
  facet normal -0 0 -1
    outer loop
      vertex 10.7481 5.80764 0
      vertex 0 0 0
      vertex 10.4625 5.87918 0
    endloop
  endfacet
  facet normal 0 0 -1
    outer loop
      vertex 0 0 0
      vertex 8.33333 8.75 0
      vertex 8.34778 8.45595 0
    endloop
  endfacet
  facet normal 0 0 -1
    outer loop
      vertex 0 0 0
      vertex 8.34778 8.45595 0
      vertex 8.39098 8.16473 0
    endloop
  endfacet
  facet normal 0 0 -1
    outer loop
      vertex 0 35 0
      vertex 5.38333 20.3 0
      vertex 0 0 0
    endloop
  endfacet
  facet normal -0 0 -1
    outer loop
      vertex 8.39098 9.33527 0
      vertex 0 0 0
      vertex 5.38333 20.3 0
    endloop
  endfacet
  facet normal -0 0 -1
    outer loop
      vertex 8.46251 7.87915 0
      vertex 0 0 0
      vertex 8.39098 8.16473 0
    endloop
  endfacet
  facet normal -0 0 -1
    outer loop
      vertex 8.56169 7.60195 0
      vertex 0 0 0
      vertex 8.46251 7.87915 0
    endloop
  endfacet
  facet normal -0 0 -1
    outer loop
      vertex 8.68757 7.33581 0
      vertex 0 0 0
      vertex 8.56169 7.60195 0
    endloop
  endfacet
  facet normal -0 0 -1
    outer loop
      vertex 8.83892 7.08329 0
      vertex 0 0 0
      vertex 8.68757 7.33581 0
    endloop
  endfacet
  facet normal -0 0 -1
    outer loop
      vertex 9.0143 6.84682 0
      vertex 0 0 0
      vertex 8.83892 7.08329 0
    endloop
  endfacet
  facet normal -0 0 -1
    outer loop
      vertex 9.21201 6.62868 0
      vertex 0 0 0
      vertex 9.0143 6.84682 0
    endloop
  endfacet
  facet normal -0 0 -1
    outer loop
      vertex 9.43015 6.43097 0
      vertex 0 0 0
      vertex 9.21201 6.62868 0
    endloop
  endfacet
  facet normal -0 0 -1
    outer loop
      vertex 9.66662 6.25559 0
      vertex 0 0 0
      vertex 9.43015 6.43097 0
    endloop
  endfacet
  facet normal -0 0 -1
    outer loop
      vertex 9.91914 6.10424 0
      vertex 0 0 0
      vertex 9.66662 6.25559 0
    endloop
  endfacet
  facet normal -0 0 -1
    outer loop
      vertex 10.1853 5.97836 0
      vertex 0 0 0
      vertex 9.91914 6.10424 0
    endloop
  endfacet
  facet normal -0 0 -1
    outer loop
      vertex 10.4625 5.87918 0
      vertex 0 0 0
      vertex 10.1853 5.97836 0
    endloop
  endfacet
  facet normal 0 0 -1
    outer loop
      vertex 26 0 0
      vertex 19.7594 14.147 0
      vertex 26 35 0
    endloop
  endfacet
  facet normal 0 0 -1
    outer loop
      vertex 19.7378 14.2926 0
      vertex 26 35 0
      vertex 19.7594 14.147 0
    endloop
  endfacet
  facet normal 0 0 -1
    outer loop
      vertex 19.7021 14.4354 0
      vertex 26 35 0
      vertex 19.7378 14.2926 0
    endloop
  endfacet
  facet normal 0 0 -1
    outer loop
      vertex 19.6525 14.574 0
      vertex 26 35 0
      vertex 19.7021 14.4354 0
    endloop
  endfacet
  facet normal 0 0 -1
    outer loop
      vertex 19.5895 14.7071 0
      vertex 26 35 0
      vertex 19.6525 14.574 0
    endloop
  endfacet
  facet normal 0 0 -1
    outer loop
      vertex 19.5139 14.8334 0
      vertex 26 35 0
      vertex 19.5895 14.7071 0
    endloop
  endfacet
  facet normal 0 0 -1
    outer loop
      vertex 17.2833 20.3 0
      vertex 19.5139 14.8334 0
      vertex 19.4262 14.9516 0
    endloop
  endfacet
  facet normal 0 0 -1
    outer loop
      vertex 17.2833 20.3 0
      vertex 19.4262 14.9516 0
      vertex 19.3273 15.0607 0
    endloop
  endfacet
  facet normal 0 0 -1
    outer loop
      vertex 17.2833 20.3 0
      vertex 19.3273 15.0607 0
      vertex 19.2183 15.1595 0
    endloop
  endfacet
  facet normal 0 0 -1
    outer loop
      vertex 17.2833 20.3 0
      vertex 19.2183 15.1595 0
      vertex 19.1 15.2472 0
    endloop
  endfacet
  facet normal 0 0 -1
    outer loop
      vertex 17.2833 20.3 0
      vertex 19.1 15.2472 0
      vertex 18.9738 15.3229 0
    endloop
  endfacet
  facet normal 0 0 -1
    outer loop
      vertex 17.2833 20.3 0
      vertex 18.9738 15.3229 0
      vertex 18.8407 15.3858 0
    endloop
  endfacet
  facet normal 0 0 -1
    outer loop
      vertex 17.2833 20.3 0
      vertex 18.8407 15.3858 0
      vertex 18.7021 15.4354 0
    endloop
  endfacet
  facet normal 0 0 -1
    outer loop
      vertex 17.2833 20.3 0
      vertex 18.7021 15.4354 0
      vertex 18.5593 15.4712 0
    endloop
  endfacet
  facet normal 0 0 -1
    outer loop
      vertex 17.2833 20.3 0
      vertex 18.5593 15.4712 0
      vertex 18.4137 15.4928 0
    endloop
  endfacet
  facet normal 0 0 -1
    outer loop
      vertex 17.2833 20.3 0
      vertex 18.4137 15.4928 0
      vertex 18.2667 15.5 0
    endloop
  endfacet
  facet normal 0 0 -1
    outer loop
      vertex 17.2833 20.3 0
      vertex 18.2667 15.5 0
      vertex 18.1196 15.4928 0
    endloop
  endfacet
  facet normal 0 0 -1
    outer loop
      vertex 17.2833 20.3 0
      vertex 18.1196 15.4928 0
      vertex 17.974 15.4712 0
    endloop
  endfacet
  facet normal 0 0 -1
    outer loop
      vertex 17.2833 20.3 0
      vertex 17.974 15.4712 0
      vertex 17.8312 15.4354 0
    endloop
  endfacet
  facet normal 0 0 -1
    outer loop
      vertex 17.2833 20.3 0
      vertex 17.8312 15.4354 0
      vertex 17.6926 15.3858 0
    endloop
  endfacet
  facet normal 0 0 -1
    outer loop
      vertex 17.2833 20.3 0
      vertex 17.6926 15.3858 0
      vertex 17.5596 15.3229 0
    endloop
  endfacet
  facet normal 0 0 -1
    outer loop
      vertex 17.2833 20.3 0
      vertex 17.5596 15.3229 0
      vertex 17.4333 15.2472 0
    endloop
  endfacet
  facet normal 0 0 -1
    outer loop
      vertex 17.2833 20.3 0
      vertex 17.4333 15.2472 0
      vertex 17.3151 15.1595 0
    endloop
  endfacet
  facet normal 0 0 -1
    outer loop
      vertex 19.5139 14.8334 0
      vertex 17.2833 20.3 0
      vertex 26 35 0
    endloop
  endfacet
  facet normal 0 0 -1
    outer loop
      vertex 17.2833 32.2 0
      vertex 26 35 0
      vertex 17.2833 20.3 0
    endloop
  endfacet
  facet normal 0 0 -1
    outer loop
      vertex 0 35 0
      vertex 17.2833 32.2 0
      vertex 5.38333 32.2 0
    endloop
  endfacet
  facet normal 0 0 -1
    outer loop
      vertex 17.2833 32.2 0
      vertex 0 35 0
      vertex 26 35 0
    endloop
  endfacet
  facet normal 0 0 -1
    outer loop
      vertex 5.38333 20.3 0
      vertex 0 35 0
      vertex 5.38333 32.2 0
    endloop
  endfacet
  facet normal 0 -1 0
    outer loop
      vertex 0 0 0
      vertex 26 0 2
      vertex 0 0 2
    endloop
  endfacet
  facet normal 0 -1 -0
    outer loop
      vertex 26 0 2
      vertex 0 0 0
      vertex 26 0 0
    endloop
  endfacet
  facet normal -0.998795 -0.0490692 0
    outer loop
      vertex 14.3333 8.75 0
      vertex 14.3189 9.04405 2
      vertex 14.3189 9.04405 0
    endloop
  endfacet
  facet normal -0.998795 -0.0490692 0
    outer loop
      vertex 14.3189 9.04405 2
      vertex 14.3333 8.75 0
      vertex 14.3333 8.75 2
    endloop
  endfacet
  facet normal 0.0490692 -0.998795 0
    outer loop
      vertex 11.0393 11.7356 0
      vertex 11.3333 11.75 2
      vertex 11.0393 11.7356 2
    endloop
  endfacet
  facet normal 0.0490692 -0.998795 0
    outer loop
      vertex 11.3333 11.75 2
      vertex 11.0393 11.7356 0
      vertex 11.3333 11.75 0
    endloop
  endfacet
  facet normal -0.049066 0.998796 0
    outer loop
      vertex 11.6274 5.76445 0
      vertex 11.3333 5.75 2
      vertex 11.6274 5.76445 2
    endloop
  endfacet
  facet normal -0.049066 0.998796 0
    outer loop
      vertex 11.3333 5.75 2
      vertex 11.6274 5.76445 0
      vertex 11.3333 5.75 0
    endloop
  endfacet
  facet normal -0.67156 -0.74095 0
    outer loop
      vertex 13.2365 11.069 0
      vertex 13.4547 10.8713 2
      vertex 13.2365 11.069 2
    endloop
  endfacet
  facet normal -0.67156 -0.74095 -0
    outer loop
      vertex 13.4547 10.8713 2
      vertex 13.2365 11.069 0
      vertex 13.4547 10.8713 0
    endloop
  endfacet
  facet normal 0.740951 -0.671559 0
    outer loop
      vertex 9.0143 10.6532 2
      vertex 9.21201 10.8713 0
      vertex 9.21201 10.8713 2
    endloop
  endfacet
  facet normal 0.740951 -0.671559 0
    outer loop
      vertex 9.21201 10.8713 0
      vertex 9.0143 10.6532 2
      vertex 9.0143 10.6532 0
    endloop
  endfacet
  facet normal 0.427554 -0.90399 0
    outer loop
      vertex 9.91914 11.3958 0
      vertex 10.1853 11.5216 2
      vertex 9.91914 11.3958 2
    endloop
  endfacet
  facet normal 0.427554 -0.90399 0
    outer loop
      vertex 10.1853 11.5216 2
      vertex 9.91914 11.3958 0
      vertex 10.1853 11.5216 0
    endloop
  endfacet
  facet normal -0.903988 -0.427557 0
    outer loop
      vertex 14.105 9.89805 0
      vertex 13.9791 10.1642 2
      vertex 13.9791 10.1642 0
    endloop
  endfacet
  facet normal -0.903988 -0.427557 0
    outer loop
      vertex 13.9791 10.1642 2
      vertex 14.105 9.89805 0
      vertex 14.105 9.89805 2
    endloop
  endfacet
  facet normal -0.336891 -0.941544 0
    outer loop
      vertex 12.2042 11.6208 0
      vertex 12.4814 11.5216 2
      vertex 12.2042 11.6208 2
    endloop
  endfacet
  facet normal -0.336891 -0.941544 -0
    outer loop
      vertex 12.4814 11.5216 2
      vertex 12.2042 11.6208 0
      vertex 12.4814 11.5216 0
    endloop
  endfacet
  facet normal -0.514102 -0.857729 0
    outer loop
      vertex 12.7475 11.3958 0
      vertex 13 11.2444 2
      vertex 12.7475 11.3958 2
    endloop
  endfacet
  facet normal -0.514102 -0.857729 -0
    outer loop
      vertex 13 11.2444 2
      vertex 12.7475 11.3958 0
      vertex 13 11.2444 0
    endloop
  endfacet
  facet normal 0.941544 -0.336889 0
    outer loop
      vertex 8.46251 9.62085 2
      vertex 8.56169 9.89805 0
      vertex 8.56169 9.89805 2
    endloop
  endfacet
  facet normal 0.941544 -0.336889 0
    outer loop
      vertex 8.56169 9.89805 0
      vertex 8.46251 9.62085 2
      vertex 8.46251 9.62085 0
    endloop
  endfacet
  facet normal 0.242978 -0.970032 0
    outer loop
      vertex 10.4625 11.6208 0
      vertex 10.7481 11.6924 2
      vertex 10.4625 11.6208 2
    endloop
  endfacet
  facet normal 0.242978 -0.970032 0
    outer loop
      vertex 10.7481 11.6924 2
      vertex 10.4625 11.6208 0
      vertex 10.7481 11.6924 0
    endloop
  endfacet
  facet normal -0.941544 0.336889 0
    outer loop
      vertex 14.105 7.60195 0
      vertex 14.2042 7.87915 2
      vertex 14.2042 7.87915 0
    endloop
  endfacet
  facet normal -0.941544 0.336889 0
    outer loop
      vertex 14.2042 7.87915 2
      vertex 14.105 7.60195 0
      vertex 14.105 7.60195 2
    endloop
  endfacet
  facet normal -0.970031 0.242981 0
    outer loop
      vertex 14.2042 7.87915 0
      vertex 14.2757 8.16473 2
      vertex 14.2757 8.16473 0
    endloop
  endfacet
  facet normal -0.970031 0.242981 0
    outer loop
      vertex 14.2757 8.16473 2
      vertex 14.2042 7.87915 0
      vertex 14.2042 7.87915 2
    endloop
  endfacet
  facet normal 0.671559 0.740951 -0
    outer loop
      vertex 9.43015 6.43097 0
      vertex 9.21201 6.62868 2
      vertex 9.43015 6.43097 2
    endloop
  endfacet
  facet normal 0.671559 0.740951 0
    outer loop
      vertex 9.21201 6.62868 2
      vertex 9.43015 6.43097 0
      vertex 9.21201 6.62868 0
    endloop
  endfacet
  facet normal -0.970031 -0.242981 0
    outer loop
      vertex 14.2757 9.33527 0
      vertex 14.2042 9.62085 2
      vertex 14.2042 9.62085 0
    endloop
  endfacet
  facet normal -0.970031 -0.242981 0
    outer loop
      vertex 14.2042 9.62085 2
      vertex 14.2757 9.33527 0
      vertex 14.2757 9.33527 2
    endloop
  endfacet
  facet normal -0.989177 -0.146728 0
    outer loop
      vertex 14.3189 9.04405 0
      vertex 14.2757 9.33527 2
      vertex 14.2757 9.33527 0
    endloop
  endfacet
  facet normal -0.989177 -0.146728 0
    outer loop
      vertex 14.2757 9.33527 2
      vertex 14.3189 9.04405 0
      vertex 14.3189 9.04405 2
    endloop
  endfacet
  facet normal -0.941544 -0.336889 0
    outer loop
      vertex 14.2042 9.62085 0
      vertex 14.105 9.89805 2
      vertex 14.105 9.89805 0
    endloop
  endfacet
  facet normal -0.941544 -0.336889 0
    outer loop
      vertex 14.105 9.89805 2
      vertex 14.2042 9.62085 0
      vertex 14.2042 9.62085 2
    endloop
  endfacet
  facet normal -0.803207 -0.5957 0
    outer loop
      vertex 13.8277 10.4167 0
      vertex 13.6524 10.6532 2
      vertex 13.6524 10.6532 0
    endloop
  endfacet
  facet normal -0.803207 -0.5957 0
    outer loop
      vertex 13.6524 10.6532 2
      vertex 13.8277 10.4167 0
      vertex 13.8277 10.4167 2
    endloop
  endfacet
  facet normal -0.740951 -0.671559 0
    outer loop
      vertex 13.6524 10.6532 0
      vertex 13.4547 10.8713 2
      vertex 13.4547 10.8713 0
    endloop
  endfacet
  facet normal -0.740951 -0.671559 0
    outer loop
      vertex 13.4547 10.8713 2
      vertex 13.6524 10.6532 0
      vertex 13.6524 10.6532 2
    endloop
  endfacet
  facet normal -0.857729 -0.514102 0
    outer loop
      vertex 13.9791 10.1642 0
      vertex 13.8277 10.4167 2
      vertex 13.8277 10.4167 0
    endloop
  endfacet
  facet normal -0.857729 -0.514102 0
    outer loop
      vertex 13.8277 10.4167 2
      vertex 13.9791 10.1642 0
      vertex 13.9791 10.1642 2
    endloop
  endfacet
  facet normal -0.146731 -0.989176 0
    outer loop
      vertex 11.6274 11.7356 0
      vertex 11.9186 11.6924 2
      vertex 11.6274 11.7356 2
    endloop
  endfacet
  facet normal -0.146731 -0.989176 -0
    outer loop
      vertex 11.9186 11.6924 2
      vertex 11.6274 11.7356 0
      vertex 11.9186 11.6924 0
    endloop
  endfacet
  facet normal -0.242978 -0.970032 0
    outer loop
      vertex 11.9186 11.6924 0
      vertex 12.2042 11.6208 2
      vertex 11.9186 11.6924 2
    endloop
  endfacet
  facet normal -0.242978 -0.970032 -0
    outer loop
      vertex 12.2042 11.6208 2
      vertex 11.9186 11.6924 0
      vertex 12.2042 11.6208 0
    endloop
  endfacet
  facet normal -0.0490692 -0.998795 0
    outer loop
      vertex 11.3333 11.75 0
      vertex 11.6274 11.7356 2
      vertex 11.3333 11.75 2
    endloop
  endfacet
  facet normal -0.0490692 -0.998795 -0
    outer loop
      vertex 11.6274 11.7356 2
      vertex 11.3333 11.75 0
      vertex 11.6274 11.7356 0
    endloop
  endfacet
  facet normal -0.427554 -0.90399 0
    outer loop
      vertex 12.4814 11.5216 0
      vertex 12.7475 11.3958 2
      vertex 12.4814 11.5216 2
    endloop
  endfacet
  facet normal -0.427554 -0.90399 -0
    outer loop
      vertex 12.7475 11.3958 2
      vertex 12.4814 11.5216 0
      vertex 12.7475 11.3958 0
    endloop
  endfacet
  facet normal -0.5957 -0.803207 0
    outer loop
      vertex 13 11.2444 0
      vertex 13.2365 11.069 2
      vertex 13 11.2444 2
    endloop
  endfacet
  facet normal -0.5957 -0.803207 -0
    outer loop
      vertex 13.2365 11.069 2
      vertex 13 11.2444 0
      vertex 13.2365 11.069 0
    endloop
  endfacet
  facet normal 0.989176 -0.146731 0
    outer loop
      vertex 8.34778 9.04405 2
      vertex 8.39098 9.33527 0
      vertex 8.39098 9.33527 2
    endloop
  endfacet
  facet normal 0.989176 -0.146731 0
    outer loop
      vertex 8.39098 9.33527 0
      vertex 8.34778 9.04405 2
      vertex 8.34778 9.04405 0
    endloop
  endfacet
  facet normal 0.857727 -0.514105 0
    outer loop
      vertex 8.68757 10.1642 2
      vertex 8.83892 10.4167 0
      vertex 8.83892 10.4167 2
    endloop
  endfacet
  facet normal 0.857727 -0.514105 0
    outer loop
      vertex 8.83892 10.4167 0
      vertex 8.68757 10.1642 2
      vertex 8.68757 10.1642 0
    endloop
  endfacet
  facet normal 0.803209 -0.595698 0
    outer loop
      vertex 8.83892 10.4167 2
      vertex 9.0143 10.6532 0
      vertex 9.0143 10.6532 2
    endloop
  endfacet
  facet normal 0.803209 -0.595698 0
    outer loop
      vertex 9.0143 10.6532 0
      vertex 8.83892 10.4167 2
      vertex 8.83892 10.4167 0
    endloop
  endfacet
  facet normal 0.90399 -0.427554 0
    outer loop
      vertex 8.56169 9.89805 2
      vertex 8.68757 10.1642 0
      vertex 8.68757 10.1642 2
    endloop
  endfacet
  facet normal 0.90399 -0.427554 0
    outer loop
      vertex 8.68757 10.1642 0
      vertex 8.56169 9.89805 2
      vertex 8.56169 9.89805 0
    endloop
  endfacet
  facet normal 0.970031 -0.242981 0
    outer loop
      vertex 8.39098 9.33527 2
      vertex 8.46251 9.62085 0
      vertex 8.46251 9.62085 2
    endloop
  endfacet
  facet normal 0.970031 -0.242981 0
    outer loop
      vertex 8.46251 9.62085 0
      vertex 8.39098 9.33527 2
      vertex 8.39098 9.33527 0
    endloop
  endfacet
  facet normal 0.998796 -0.049066 0
    outer loop
      vertex 8.33333 8.75 2
      vertex 8.34778 9.04405 0
      vertex 8.34778 9.04405 2
    endloop
  endfacet
  facet normal 0.998796 -0.049066 0
    outer loop
      vertex 8.34778 9.04405 0
      vertex 8.33333 8.75 2
      vertex 8.33333 8.75 0
    endloop
  endfacet
  facet normal 0.5957 -0.803207 0
    outer loop
      vertex 9.43015 11.069 0
      vertex 9.66662 11.2444 2
      vertex 9.43015 11.069 2
    endloop
  endfacet
  facet normal 0.5957 -0.803207 0
    outer loop
      vertex 9.66662 11.2444 2
      vertex 9.43015 11.069 0
      vertex 9.66662 11.2444 0
    endloop
  endfacet
  facet normal 0.514102 -0.857729 0
    outer loop
      vertex 9.66662 11.2444 0
      vertex 9.91914 11.3958 2
      vertex 9.66662 11.2444 2
    endloop
  endfacet
  facet normal 0.514102 -0.857729 0
    outer loop
      vertex 9.91914 11.3958 2
      vertex 9.66662 11.2444 0
      vertex 9.91914 11.3958 0
    endloop
  endfacet
  facet normal 0.671559 -0.740951 0
    outer loop
      vertex 9.21201 10.8713 0
      vertex 9.43015 11.069 2
      vertex 9.21201 10.8713 2
    endloop
  endfacet
  facet normal 0.671559 -0.740951 0
    outer loop
      vertex 9.43015 11.069 2
      vertex 9.21201 10.8713 0
      vertex 9.43015 11.069 0
    endloop
  endfacet
  facet normal 0.336892 -0.941543 0
    outer loop
      vertex 10.1853 11.5216 0
      vertex 10.4625 11.6208 2
      vertex 10.1853 11.5216 2
    endloop
  endfacet
  facet normal 0.336892 -0.941543 0
    outer loop
      vertex 10.4625 11.6208 2
      vertex 10.1853 11.5216 0
      vertex 10.4625 11.6208 0
    endloop
  endfacet
  facet normal 0.146731 -0.989176 0
    outer loop
      vertex 10.7481 11.6924 0
      vertex 11.0393 11.7356 2
      vertex 10.7481 11.6924 2
    endloop
  endfacet
  facet normal 0.146731 -0.989176 0
    outer loop
      vertex 11.0393 11.7356 2
      vertex 10.7481 11.6924 0
      vertex 11.0393 11.7356 0
    endloop
  endfacet
  facet normal -0.998795 0.049069 0
    outer loop
      vertex 14.3189 8.45595 0
      vertex 14.3333 8.75 2
      vertex 14.3333 8.75 0
    endloop
  endfacet
  facet normal -0.998795 0.049069 0
    outer loop
      vertex 14.3333 8.75 2
      vertex 14.3189 8.45595 0
      vertex 14.3189 8.45595 2
    endloop
  endfacet
  facet normal -0.146731 0.989176 0
    outer loop
      vertex 11.9186 5.80764 0
      vertex 11.6274 5.76445 2
      vertex 11.9186 5.80764 2
    endloop
  endfacet
  facet normal -0.146731 0.989176 0
    outer loop
      vertex 11.6274 5.76445 2
      vertex 11.9186 5.80764 0
      vertex 11.6274 5.76445 0
    endloop
  endfacet
  facet normal -0.336891 0.941544 0
    outer loop
      vertex 12.4814 5.97836 0
      vertex 12.2042 5.87918 2
      vertex 12.4814 5.97836 2
    endloop
  endfacet
  facet normal -0.336891 0.941544 0
    outer loop
      vertex 12.2042 5.87918 2
      vertex 12.4814 5.97836 0
      vertex 12.2042 5.87918 0
    endloop
  endfacet
  facet normal -0.67156 0.74095 0
    outer loop
      vertex 13.4547 6.62868 0
      vertex 13.2365 6.43097 2
      vertex 13.4547 6.62868 2
    endloop
  endfacet
  facet normal -0.67156 0.74095 0
    outer loop
      vertex 13.2365 6.43097 2
      vertex 13.4547 6.62868 0
      vertex 13.2365 6.43097 0
    endloop
  endfacet
  facet normal -0.514102 0.857729 0
    outer loop
      vertex 13 6.25559 0
      vertex 12.7475 6.10424 2
      vertex 13 6.25559 2
    endloop
  endfacet
  facet normal -0.514102 0.857729 0
    outer loop
      vertex 12.7475 6.10424 2
      vertex 13 6.25559 0
      vertex 12.7475 6.10424 0
    endloop
  endfacet
  facet normal -0.803207 0.5957 0
    outer loop
      vertex 13.6524 6.84682 0
      vertex 13.8277 7.08329 2
      vertex 13.8277 7.08329 0
    endloop
  endfacet
  facet normal -0.803207 0.5957 0
    outer loop
      vertex 13.8277 7.08329 2
      vertex 13.6524 6.84682 0
      vertex 13.6524 6.84682 2
    endloop
  endfacet
  facet normal -0.903988 0.427557 0
    outer loop
      vertex 13.9791 7.33581 0
      vertex 14.105 7.60195 2
      vertex 14.105 7.60195 0
    endloop
  endfacet
  facet normal -0.903988 0.427557 0
    outer loop
      vertex 14.105 7.60195 2
      vertex 13.9791 7.33581 0
      vertex 13.9791 7.33581 2
    endloop
  endfacet
  facet normal 0.5957 0.803207 -0
    outer loop
      vertex 9.66662 6.25559 0
      vertex 9.43015 6.43097 2
      vertex 9.66662 6.25559 2
    endloop
  endfacet
  facet normal 0.5957 0.803207 0
    outer loop
      vertex 9.43015 6.43097 2
      vertex 9.66662 6.25559 0
      vertex 9.43015 6.43097 0
    endloop
  endfacet
  facet normal 0.427554 0.90399 -0
    outer loop
      vertex 10.1853 5.97836 0
      vertex 9.91914 6.10424 2
      vertex 10.1853 5.97836 2
    endloop
  endfacet
  facet normal 0.427554 0.90399 0
    outer loop
      vertex 9.91914 6.10424 2
      vertex 10.1853 5.97836 0
      vertex 9.91914 6.10424 0
    endloop
  endfacet
  facet normal 0.242978 0.970032 -0
    outer loop
      vertex 10.7481 5.80764 0
      vertex 10.4625 5.87918 2
      vertex 10.7481 5.80764 2
    endloop
  endfacet
  facet normal 0.242978 0.970032 0
    outer loop
      vertex 10.4625 5.87918 2
      vertex 10.7481 5.80764 0
      vertex 10.4625 5.87918 0
    endloop
  endfacet
  facet normal 0.049066 0.998796 -0
    outer loop
      vertex 11.3333 5.75 0
      vertex 11.0393 5.76445 2
      vertex 11.3333 5.75 2
    endloop
  endfacet
  facet normal 0.049066 0.998796 0
    outer loop
      vertex 11.0393 5.76445 2
      vertex 11.3333 5.75 0
      vertex 11.0393 5.76445 0
    endloop
  endfacet
  facet normal 0.803209 0.595698 0
    outer loop
      vertex 9.0143 6.84682 2
      vertex 8.83892 7.08329 0
      vertex 8.83892 7.08329 2
    endloop
  endfacet
  facet normal 0.803209 0.595698 0
    outer loop
      vertex 8.83892 7.08329 0
      vertex 9.0143 6.84682 2
      vertex 9.0143 6.84682 0
    endloop
  endfacet
  facet normal 0.857727 0.514105 0
    outer loop
      vertex 8.83892 7.08329 2
      vertex 8.68757 7.33581 0
      vertex 8.68757 7.33581 2
    endloop
  endfacet
  facet normal 0.857727 0.514105 0
    outer loop
      vertex 8.68757 7.33581 0
      vertex 8.83892 7.08329 2
      vertex 8.83892 7.08329 0
    endloop
  endfacet
  facet normal 0.740951 0.671559 0
    outer loop
      vertex 9.21201 6.62868 2
      vertex 9.0143 6.84682 0
      vertex 9.0143 6.84682 2
    endloop
  endfacet
  facet normal 0.740951 0.671559 0
    outer loop
      vertex 9.0143 6.84682 0
      vertex 9.21201 6.62868 2
      vertex 9.21201 6.62868 0
    endloop
  endfacet
  facet normal 0.941544 0.336889 0
    outer loop
      vertex 8.56169 7.60195 2
      vertex 8.46251 7.87915 0
      vertex 8.46251 7.87915 2
    endloop
  endfacet
  facet normal 0.941544 0.336889 0
    outer loop
      vertex 8.46251 7.87915 0
      vertex 8.56169 7.60195 2
      vertex 8.56169 7.60195 0
    endloop
  endfacet
  facet normal 0.90399 0.427554 0
    outer loop
      vertex 8.68757 7.33581 2
      vertex 8.56169 7.60195 0
      vertex 8.56169 7.60195 2
    endloop
  endfacet
  facet normal 0.90399 0.427554 0
    outer loop
      vertex 8.56169 7.60195 0
      vertex 8.68757 7.33581 2
      vertex 8.68757 7.33581 0
    endloop
  endfacet
  facet normal 0.989176 0.146731 0
    outer loop
      vertex 8.39098 8.16473 2
      vertex 8.34778 8.45595 0
      vertex 8.34778 8.45595 2
    endloop
  endfacet
  facet normal 0.989176 0.146731 0
    outer loop
      vertex 8.34778 8.45595 0
      vertex 8.39098 8.16473 2
      vertex 8.39098 8.16473 0
    endloop
  endfacet
  facet normal 0.998796 0.0490658 0
    outer loop
      vertex 8.34778 8.45595 2
      vertex 8.33333 8.75 0
      vertex 8.33333 8.75 2
    endloop
  endfacet
  facet normal 0.998796 0.0490658 0
    outer loop
      vertex 8.33333 8.75 0
      vertex 8.34778 8.45595 2
      vertex 8.34778 8.45595 0
    endloop
  endfacet
  facet normal -0.242978 0.970032 0
    outer loop
      vertex 12.2042 5.87918 0
      vertex 11.9186 5.80764 2
      vertex 12.2042 5.87918 2
    endloop
  endfacet
  facet normal -0.242978 0.970032 0
    outer loop
      vertex 11.9186 5.80764 2
      vertex 12.2042 5.87918 0
      vertex 11.9186 5.80764 0
    endloop
  endfacet
  facet normal -0.427554 0.90399 0
    outer loop
      vertex 12.7475 6.10424 0
      vertex 12.4814 5.97836 2
      vertex 12.7475 6.10424 2
    endloop
  endfacet
  facet normal -0.427554 0.90399 0
    outer loop
      vertex 12.4814 5.97836 2
      vertex 12.7475 6.10424 0
      vertex 12.4814 5.97836 0
    endloop
  endfacet
  facet normal -0.740951 0.671559 0
    outer loop
      vertex 13.4547 6.62868 0
      vertex 13.6524 6.84682 2
      vertex 13.6524 6.84682 0
    endloop
  endfacet
  facet normal -0.740951 0.671559 0
    outer loop
      vertex 13.6524 6.84682 2
      vertex 13.4547 6.62868 0
      vertex 13.4547 6.62868 2
    endloop
  endfacet
  facet normal -0.5957 0.803207 0
    outer loop
      vertex 13.2365 6.43097 0
      vertex 13 6.25559 2
      vertex 13.2365 6.43097 2
    endloop
  endfacet
  facet normal -0.5957 0.803207 0
    outer loop
      vertex 13 6.25559 2
      vertex 13.2365 6.43097 0
      vertex 13 6.25559 0
    endloop
  endfacet
  facet normal -0.857729 0.514102 0
    outer loop
      vertex 13.8277 7.08329 0
      vertex 13.9791 7.33581 2
      vertex 13.9791 7.33581 0
    endloop
  endfacet
  facet normal -0.857729 0.514102 0
    outer loop
      vertex 13.9791 7.33581 2
      vertex 13.8277 7.08329 0
      vertex 13.8277 7.08329 2
    endloop
  endfacet
  facet normal -0.989177 0.146728 0
    outer loop
      vertex 14.2757 8.16473 0
      vertex 14.3189 8.45595 2
      vertex 14.3189 8.45595 0
    endloop
  endfacet
  facet normal -0.989177 0.146728 0
    outer loop
      vertex 14.3189 8.45595 2
      vertex 14.2757 8.16473 0
      vertex 14.2757 8.16473 2
    endloop
  endfacet
  facet normal 0.514102 0.857729 -0
    outer loop
      vertex 9.91914 6.10424 0
      vertex 9.66662 6.25559 2
      vertex 9.91914 6.10424 2
    endloop
  endfacet
  facet normal 0.514102 0.857729 0
    outer loop
      vertex 9.66662 6.25559 2
      vertex 9.91914 6.10424 0
      vertex 9.66662 6.25559 0
    endloop
  endfacet
  facet normal 0.336892 0.941543 -0
    outer loop
      vertex 10.4625 5.87918 0
      vertex 10.1853 5.97836 2
      vertex 10.4625 5.87918 2
    endloop
  endfacet
  facet normal 0.336892 0.941543 0
    outer loop
      vertex 10.1853 5.97836 2
      vertex 10.4625 5.87918 0
      vertex 10.1853 5.97836 0
    endloop
  endfacet
  facet normal 0.146731 0.989176 -0
    outer loop
      vertex 11.0393 5.76445 0
      vertex 10.7481 5.80764 2
      vertex 11.0393 5.76445 2
    endloop
  endfacet
  facet normal 0.146731 0.989176 0
    outer loop
      vertex 10.7481 5.80764 2
      vertex 11.0393 5.76445 0
      vertex 10.7481 5.80764 0
    endloop
  endfacet
  facet normal 0.970031 0.242981 0
    outer loop
      vertex 8.46251 7.87915 2
      vertex 8.39098 8.16473 0
      vertex 8.39098 8.16473 2
    endloop
  endfacet
  facet normal 0.970031 0.242981 0
    outer loop
      vertex 8.39098 8.16473 0
      vertex 8.46251 7.87915 2
      vertex 8.46251 7.87915 0
    endloop
  endfacet
  facet normal -0.595698 -0.803209 0
    outer loop
      vertex 19.1 15.2472 0
      vertex 19.2183 15.1595 2
      vertex 19.1 15.2472 2
    endloop
  endfacet
  facet normal -0.595698 -0.803209 -0
    outer loop
      vertex 19.2183 15.1595 2
      vertex 19.1 15.2472 0
      vertex 19.2183 15.1595 0
    endloop
  endfacet
  facet normal 0.427547 -0.903993 0
    outer loop
      vertex 17.5596 15.3229 0
      vertex 17.6926 15.3858 2
      vertex 17.5596 15.3229 2
    endloop
  endfacet
  facet normal 0.427547 -0.903993 0
    outer loop
      vertex 17.6926 15.3858 2
      vertex 17.5596 15.3229 0
      vertex 17.6926 15.3858 0
    endloop
  endfacet
  facet normal 0.941544 -0.33689 0
    outer loop
      vertex 16.8313 14.4354 2
      vertex 16.8808 14.574 0
      vertex 16.8808 14.574 2
    endloop
  endfacet
  facet normal 0.941544 -0.33689 0
    outer loop
      vertex 16.8808 14.574 0
      vertex 16.8313 14.4354 2
      vertex 16.8313 14.4354 0
    endloop
  endfacet
  facet normal -0.941544 0.33689 0
    outer loop
      vertex 19.6525 13.426 0
      vertex 19.7021 13.5646 2
      vertex 19.7021 13.5646 0
    endloop
  endfacet
  facet normal -0.941544 0.33689 0
    outer loop
      vertex 19.7021 13.5646 2
      vertex 19.6525 13.426 0
      vertex 19.6525 13.426 2
    endloop
  endfacet
  facet normal 0.3369 0.94154 -0
    outer loop
      vertex 17.8312 12.5646 0
      vertex 17.6926 12.6142 2
      vertex 17.8312 12.5646 2
    endloop
  endfacet
  facet normal 0.3369 0.94154 0
    outer loop
      vertex 17.6926 12.6142 2
      vertex 17.8312 12.5646 0
      vertex 17.6926 12.6142 0
    endloop
  endfacet
  facet normal -0.903991 -0.427552 0
    outer loop
      vertex 19.6525 14.574 0
      vertex 19.5895 14.7071 2
      vertex 19.5895 14.7071 0
    endloop
  endfacet
  facet normal -0.903991 -0.427552 0
    outer loop
      vertex 19.5895 14.7071 2
      vertex 19.6525 14.574 0
      vertex 19.6525 14.574 2
    endloop
  endfacet
  facet normal -0.857728 -0.514103 0
    outer loop
      vertex 19.5895 14.7071 0
      vertex 19.5139 14.8334 2
      vertex 19.5139 14.8334 0
    endloop
  endfacet
  facet normal -0.857728 -0.514103 0
    outer loop
      vertex 19.5139 14.8334 2
      vertex 19.5895 14.7071 0
      vertex 19.5895 14.7071 2
    endloop
  endfacet
  facet normal -0.336896 -0.941542 0
    outer loop
      vertex 18.7021 15.4354 0
      vertex 18.8407 15.3858 2
      vertex 18.7021 15.4354 2
    endloop
  endfacet
  facet normal -0.336896 -0.941542 -0
    outer loop
      vertex 18.8407 15.3858 2
      vertex 18.7021 15.4354 0
      vertex 18.8407 15.3858 0
    endloop
  endfacet
  facet normal 0.803209 -0.595698 0
    outer loop
      vertex 17.0195 14.8334 2
      vertex 17.1072 14.9516 0
      vertex 17.1072 14.9516 2
    endloop
  endfacet
  facet normal 0.803209 -0.595698 0
    outer loop
      vertex 17.1072 14.9516 0
      vertex 17.0195 14.8334 2
      vertex 17.0195 14.8334 0
    endloop
  endfacet
  facet normal 0.242975 -0.970033 0
    outer loop
      vertex 17.8312 15.4354 0
      vertex 17.974 15.4712 2
      vertex 17.8312 15.4354 2
    endloop
  endfacet
  facet normal 0.242975 -0.970033 0
    outer loop
      vertex 17.974 15.4712 2
      vertex 17.8312 15.4354 0
      vertex 17.974 15.4712 0
    endloop
  endfacet
  facet normal -0.998795 0.049069 0
    outer loop
      vertex 19.7594 13.853 0
      vertex 19.7667 14 2
      vertex 19.7667 14 0
    endloop
  endfacet
  facet normal -0.998795 0.049069 0
    outer loop
      vertex 19.7667 14 2
      vertex 19.7594 13.853 0
      vertex 19.7594 13.853 2
    endloop
  endfacet
  facet normal -0.803209 0.595698 0
    outer loop
      vertex 19.4262 13.0484 0
      vertex 19.5139 13.1666 2
      vertex 19.5139 13.1666 0
    endloop
  endfacet
  facet normal -0.803209 0.595698 0
    outer loop
      vertex 19.5139 13.1666 2
      vertex 19.4262 13.0484 0
      vertex 19.4262 13.0484 2
    endloop
  endfacet
  facet normal 0.0490626 0.998796 -0
    outer loop
      vertex 18.2667 12.5 0
      vertex 18.1196 12.5072 2
      vertex 18.2667 12.5 2
    endloop
  endfacet
  facet normal 0.0490626 0.998796 0
    outer loop
      vertex 18.1196 12.5072 2
      vertex 18.2667 12.5 0
      vertex 18.1196 12.5072 0
    endloop
  endfacet
  facet normal 0.595692 0.803213 -0
    outer loop
      vertex 17.4333 12.7528 0
      vertex 17.3151 12.8405 2
      vertex 17.4333 12.7528 2
    endloop
  endfacet
  facet normal 0.595692 0.803213 0
    outer loop
      vertex 17.3151 12.8405 2
      vertex 17.4333 12.7528 0
      vertex 17.3151 12.8405 0
    endloop
  endfacet
  facet normal 0.97003 0.242987 0
    outer loop
      vertex 16.8313 13.5646 2
      vertex 16.7955 13.7074 0
      vertex 16.7955 13.7074 2
    endloop
  endfacet
  facet normal 0.97003 0.242987 0
    outer loop
      vertex 16.7955 13.7074 0
      vertex 16.8313 13.5646 2
      vertex 16.8313 13.5646 0
    endloop
  endfacet
  facet normal -0.97003 -0.242987 0
    outer loop
      vertex 19.7378 14.2926 0
      vertex 19.7021 14.4354 2
      vertex 19.7021 14.4354 0
    endloop
  endfacet
  facet normal -0.97003 -0.242987 0
    outer loop
      vertex 19.7021 14.4354 2
      vertex 19.7378 14.2926 0
      vertex 19.7378 14.2926 2
    endloop
  endfacet
  facet normal -0.941544 -0.33689 0
    outer loop
      vertex 19.7021 14.4354 0
      vertex 19.6525 14.574 2
      vertex 19.6525 14.574 0
    endloop
  endfacet
  facet normal -0.941544 -0.33689 0
    outer loop
      vertex 19.6525 14.574 2
      vertex 19.7021 14.4354 0
      vertex 19.7021 14.4354 2
    endloop
  endfacet
  facet normal -0.740955 -0.671555 0
    outer loop
      vertex 19.4262 14.9516 0
      vertex 19.3273 15.0607 2
      vertex 19.3273 15.0607 0
    endloop
  endfacet
  facet normal -0.740955 -0.671555 0
    outer loop
      vertex 19.3273 15.0607 2
      vertex 19.4262 14.9516 0
      vertex 19.4262 14.9516 2
    endloop
  endfacet
  facet normal -0.803209 -0.595698 0
    outer loop
      vertex 19.5139 14.8334 0
      vertex 19.4262 14.9516 2
      vertex 19.4262 14.9516 0
    endloop
  endfacet
  facet normal -0.803209 -0.595698 0
    outer loop
      vertex 19.4262 14.9516 2
      vertex 19.5139 14.8334 0
      vertex 19.5139 14.8334 2
    endloop
  endfacet
  facet normal -0.671556 -0.740954 0
    outer loop
      vertex 19.2183 15.1595 0
      vertex 19.3273 15.0607 2
      vertex 19.2183 15.1595 2
    endloop
  endfacet
  facet normal -0.671556 -0.740954 -0
    outer loop
      vertex 19.3273 15.0607 2
      vertex 19.2183 15.1595 0
      vertex 19.3273 15.0607 0
    endloop
  endfacet
  facet normal -0.514109 -0.857725 0
    outer loop
      vertex 18.9738 15.3229 0
      vertex 19.1 15.2472 2
      vertex 18.9738 15.3229 2
    endloop
  endfacet
  facet normal -0.514109 -0.857725 -0
    outer loop
      vertex 19.1 15.2472 2
      vertex 18.9738 15.3229 0
      vertex 19.1 15.2472 0
    endloop
  endfacet
  facet normal 0.049069 -0.998795 0
    outer loop
      vertex 18.1196 15.4928 0
      vertex 18.2667 15.5 2
      vertex 18.1196 15.4928 2
    endloop
  endfacet
  facet normal 0.049069 -0.998795 0
    outer loop
      vertex 18.2667 15.5 2
      vertex 18.1196 15.4928 0
      vertex 18.2667 15.5 0
    endloop
  endfacet
  facet normal -0.427547 -0.903993 0
    outer loop
      vertex 18.8407 15.3858 0
      vertex 18.9738 15.3229 2
      vertex 18.8407 15.3858 2
    endloop
  endfacet
  facet normal -0.427547 -0.903993 -0
    outer loop
      vertex 18.9738 15.3229 2
      vertex 18.8407 15.3858 0
      vertex 18.9738 15.3229 0
    endloop
  endfacet
  facet normal -0.242975 -0.970033 0
    outer loop
      vertex 18.5593 15.4712 0
      vertex 18.7021 15.4354 2
      vertex 18.5593 15.4712 2
    endloop
  endfacet
  facet normal -0.242975 -0.970033 -0
    outer loop
      vertex 18.7021 15.4354 2
      vertex 18.5593 15.4712 0
      vertex 18.7021 15.4354 0
    endloop
  endfacet
  facet normal -0.146735 -0.989176 0
    outer loop
      vertex 18.4137 15.4928 0
      vertex 18.5593 15.4712 2
      vertex 18.4137 15.4928 2
    endloop
  endfacet
  facet normal -0.146735 -0.989176 -0
    outer loop
      vertex 18.5593 15.4712 2
      vertex 18.4137 15.4928 0
      vertex 18.5593 15.4712 0
    endloop
  endfacet
  facet normal 0.998795 0.049069 0
    outer loop
      vertex 16.7739 13.853 2
      vertex 16.7667 14 0
      vertex 16.7667 14 2
    endloop
  endfacet
  facet normal 0.998795 0.049069 0
    outer loop
      vertex 16.7667 14 0
      vertex 16.7739 13.853 2
      vertex 16.7739 13.853 0
    endloop
  endfacet
  facet normal 0.97003 -0.242987 0
    outer loop
      vertex 16.7955 14.2926 2
      vertex 16.8313 14.4354 0
      vertex 16.8313 14.4354 2
    endloop
  endfacet
  facet normal 0.97003 -0.242987 0
    outer loop
      vertex 16.8313 14.4354 0
      vertex 16.7955 14.2926 2
      vertex 16.7955 14.2926 0
    endloop
  endfacet
  facet normal 0.989177 -0.146728 0
    outer loop
      vertex 16.7739 14.147 2
      vertex 16.7955 14.2926 0
      vertex 16.7955 14.2926 2
    endloop
  endfacet
  facet normal 0.989177 -0.146728 0
    outer loop
      vertex 16.7955 14.2926 0
      vertex 16.7739 14.147 2
      vertex 16.7739 14.147 0
    endloop
  endfacet
  facet normal 0.903991 -0.427552 0
    outer loop
      vertex 16.8808 14.574 2
      vertex 16.9438 14.7071 0
      vertex 16.9438 14.7071 2
    endloop
  endfacet
  facet normal 0.903991 -0.427552 0
    outer loop
      vertex 16.9438 14.7071 0
      vertex 16.8808 14.574 2
      vertex 16.8808 14.574 0
    endloop
  endfacet
  facet normal 0.857728 -0.514103 0
    outer loop
      vertex 16.9438 14.7071 2
      vertex 17.0195 14.8334 0
      vertex 17.0195 14.8334 2
    endloop
  endfacet
  facet normal 0.857728 -0.514103 0
    outer loop
      vertex 17.0195 14.8334 0
      vertex 16.9438 14.7071 2
      vertex 16.9438 14.7071 0
    endloop
  endfacet
  facet normal 0.3369 -0.94154 0
    outer loop
      vertex 17.6926 15.3858 0
      vertex 17.8312 15.4354 2
      vertex 17.6926 15.3858 2
    endloop
  endfacet
  facet normal 0.3369 -0.94154 0
    outer loop
      vertex 17.8312 15.4354 2
      vertex 17.6926 15.3858 0
      vertex 17.8312 15.4354 0
    endloop
  endfacet
  facet normal 0.146733 -0.989176 0
    outer loop
      vertex 17.974 15.4712 0
      vertex 18.1196 15.4928 2
      vertex 17.974 15.4712 2
    endloop
  endfacet
  facet normal 0.146733 -0.989176 0
    outer loop
      vertex 18.1196 15.4928 2
      vertex 17.974 15.4712 0
      vertex 18.1196 15.4928 0
    endloop
  endfacet
  facet normal 0.595692 -0.803213 0
    outer loop
      vertex 17.3151 15.1595 0
      vertex 17.4333 15.2472 2
      vertex 17.3151 15.1595 2
    endloop
  endfacet
  facet normal 0.595692 -0.803213 0
    outer loop
      vertex 17.4333 15.2472 2
      vertex 17.3151 15.1595 0
      vertex 17.4333 15.2472 0
    endloop
  endfacet
  facet normal 0.671562 -0.740948 0
    outer loop
      vertex 17.206 15.0607 0
      vertex 17.3151 15.1595 2
      vertex 17.206 15.0607 2
    endloop
  endfacet
  facet normal 0.671562 -0.740948 0
    outer loop
      vertex 17.3151 15.1595 2
      vertex 17.206 15.0607 0
      vertex 17.3151 15.1595 0
    endloop
  endfacet
  facet normal 0.514109 -0.857725 0
    outer loop
      vertex 17.4333 15.2472 0
      vertex 17.5596 15.3229 2
      vertex 17.4333 15.2472 2
    endloop
  endfacet
  facet normal 0.514109 -0.857725 0
    outer loop
      vertex 17.5596 15.3229 2
      vertex 17.4333 15.2472 0
      vertex 17.5596 15.3229 0
    endloop
  endfacet
  facet normal 0.740955 -0.671555 0
    outer loop
      vertex 17.1072 14.9516 2
      vertex 17.206 15.0607 0
      vertex 17.206 15.0607 2
    endloop
  endfacet
  facet normal 0.740955 -0.671555 0
    outer loop
      vertex 17.206 15.0607 0
      vertex 17.1072 14.9516 2
      vertex 17.1072 14.9516 0
    endloop
  endfacet
  facet normal -0.998795 -0.0490694 0
    outer loop
      vertex 19.7667 14 0
      vertex 19.7594 14.147 2
      vertex 19.7594 14.147 0
    endloop
  endfacet
  facet normal -0.998795 -0.0490694 0
    outer loop
      vertex 19.7594 14.147 2
      vertex 19.7667 14 0
      vertex 19.7667 14 2
    endloop
  endfacet
  facet normal -0.146735 0.989176 0
    outer loop
      vertex 18.5593 12.5288 0
      vertex 18.4137 12.5072 2
      vertex 18.5593 12.5288 2
    endloop
  endfacet
  facet normal -0.146735 0.989176 0
    outer loop
      vertex 18.4137 12.5072 2
      vertex 18.5593 12.5288 0
      vertex 18.4137 12.5072 0
    endloop
  endfacet
  facet normal -0.97003 0.242987 0
    outer loop
      vertex 19.7021 13.5646 0
      vertex 19.7378 13.7074 2
      vertex 19.7378 13.7074 0
    endloop
  endfacet
  facet normal -0.97003 0.242987 0
    outer loop
      vertex 19.7378 13.7074 2
      vertex 19.7021 13.5646 0
      vertex 19.7021 13.5646 2
    endloop
  endfacet
  facet normal -0.242975 0.970033 0
    outer loop
      vertex 18.7021 12.5646 0
      vertex 18.5593 12.5288 2
      vertex 18.7021 12.5646 2
    endloop
  endfacet
  facet normal -0.242975 0.970033 0
    outer loop
      vertex 18.5593 12.5288 2
      vertex 18.7021 12.5646 0
      vertex 18.5593 12.5288 0
    endloop
  endfacet
  facet normal -0.336896 0.941542 0
    outer loop
      vertex 18.8407 12.6142 0
      vertex 18.7021 12.5646 2
      vertex 18.8407 12.6142 2
    endloop
  endfacet
  facet normal -0.336896 0.941542 0
    outer loop
      vertex 18.7021 12.5646 2
      vertex 18.8407 12.6142 0
      vertex 18.7021 12.5646 0
    endloop
  endfacet
  facet normal -0.671556 0.740954 0
    outer loop
      vertex 19.3273 12.9393 0
      vertex 19.2183 12.8405 2
      vertex 19.3273 12.9393 2
    endloop
  endfacet
  facet normal -0.671556 0.740954 0
    outer loop
      vertex 19.2183 12.8405 2
      vertex 19.3273 12.9393 0
      vertex 19.2183 12.8405 0
    endloop
  endfacet
  facet normal -0.514109 0.857725 0
    outer loop
      vertex 19.1 12.7528 0
      vertex 18.9738 12.6771 2
      vertex 19.1 12.7528 2
    endloop
  endfacet
  facet normal -0.514109 0.857725 0
    outer loop
      vertex 18.9738 12.6771 2
      vertex 19.1 12.7528 0
      vertex 18.9738 12.6771 0
    endloop
  endfacet
  facet normal -0.903991 0.427552 0
    outer loop
      vertex 19.5895 13.2929 0
      vertex 19.6525 13.426 2
      vertex 19.6525 13.426 0
    endloop
  endfacet
  facet normal -0.903991 0.427552 0
    outer loop
      vertex 19.6525 13.426 2
      vertex 19.5895 13.2929 0
      vertex 19.5895 13.2929 2
    endloop
  endfacet
  facet normal -0.0490626 0.998796 0
    outer loop
      vertex 18.4137 12.5072 0
      vertex 18.2667 12.5 2
      vertex 18.4137 12.5072 2
    endloop
  endfacet
  facet normal -0.0490626 0.998796 0
    outer loop
      vertex 18.2667 12.5 2
      vertex 18.4137 12.5072 0
      vertex 18.2667 12.5 0
    endloop
  endfacet
  facet normal 0.242975 0.970033 -0
    outer loop
      vertex 17.974 12.5288 0
      vertex 17.8312 12.5646 2
      vertex 17.974 12.5288 2
    endloop
  endfacet
  facet normal 0.242975 0.970033 0
    outer loop
      vertex 17.8312 12.5646 2
      vertex 17.974 12.5288 0
      vertex 17.8312 12.5646 0
    endloop
  endfacet
  facet normal 0.427547 0.903993 -0
    outer loop
      vertex 17.6926 12.6142 0
      vertex 17.5596 12.6771 2
      vertex 17.6926 12.6142 2
    endloop
  endfacet
  facet normal 0.427547 0.903993 0
    outer loop
      vertex 17.5596 12.6771 2
      vertex 17.6926 12.6142 0
      vertex 17.5596 12.6771 0
    endloop
  endfacet
  facet normal 0.941544 0.33689 0
    outer loop
      vertex 16.8808 13.426 2
      vertex 16.8313 13.5646 0
      vertex 16.8313 13.5646 2
    endloop
  endfacet
  facet normal 0.941544 0.33689 0
    outer loop
      vertex 16.8313 13.5646 0
      vertex 16.8808 13.426 2
      vertex 16.8808 13.426 0
    endloop
  endfacet
  facet normal 0.989177 0.146728 0
    outer loop
      vertex 16.7955 13.7074 2
      vertex 16.7739 13.853 0
      vertex 16.7739 13.853 2
    endloop
  endfacet
  facet normal 0.989177 0.146728 0
    outer loop
      vertex 16.7739 13.853 0
      vertex 16.7955 13.7074 2
      vertex 16.7955 13.7074 0
    endloop
  endfacet
  facet normal 0.740955 0.671555 0
    outer loop
      vertex 17.206 12.9393 2
      vertex 17.1072 13.0484 0
      vertex 17.1072 13.0484 2
    endloop
  endfacet
  facet normal 0.740955 0.671555 0
    outer loop
      vertex 17.1072 13.0484 0
      vertex 17.206 12.9393 2
      vertex 17.206 12.9393 0
    endloop
  endfacet
  facet normal 0.857728 0.514103 0
    outer loop
      vertex 17.0195 13.1666 2
      vertex 16.9438 13.2929 0
      vertex 16.9438 13.2929 2
    endloop
  endfacet
  facet normal 0.857728 0.514103 0
    outer loop
      vertex 16.9438 13.2929 0
      vertex 17.0195 13.1666 2
      vertex 17.0195 13.1666 0
    endloop
  endfacet
  facet normal 0.671562 0.740948 -0
    outer loop
      vertex 17.3151 12.8405 0
      vertex 17.206 12.9393 2
      vertex 17.3151 12.8405 2
    endloop
  endfacet
  facet normal 0.671562 0.740948 0
    outer loop
      vertex 17.206 12.9393 2
      vertex 17.3151 12.8405 0
      vertex 17.206 12.9393 0
    endloop
  endfacet
  facet normal -0.989177 -0.146728 0
    outer loop
      vertex 19.7594 14.147 0
      vertex 19.7378 14.2926 2
      vertex 19.7378 14.2926 0
    endloop
  endfacet
  facet normal -0.989177 -0.146728 0
    outer loop
      vertex 19.7378 14.2926 2
      vertex 19.7594 14.147 0
      vertex 19.7594 14.147 2
    endloop
  endfacet
  facet normal -0.049069 -0.998795 0
    outer loop
      vertex 18.2667 15.5 0
      vertex 18.4137 15.4928 2
      vertex 18.2667 15.5 2
    endloop
  endfacet
  facet normal -0.049069 -0.998795 -0
    outer loop
      vertex 18.4137 15.4928 2
      vertex 18.2667 15.5 0
      vertex 18.4137 15.4928 0
    endloop
  endfacet
  facet normal 0.998795 -0.0490694 0
    outer loop
      vertex 16.7667 14 2
      vertex 16.7739 14.147 0
      vertex 16.7739 14.147 2
    endloop
  endfacet
  facet normal 0.998795 -0.0490694 0
    outer loop
      vertex 16.7739 14.147 0
      vertex 16.7667 14 2
      vertex 16.7667 14 0
    endloop
  endfacet
  facet normal -0.989177 0.146728 0
    outer loop
      vertex 19.7378 13.7074 0
      vertex 19.7594 13.853 2
      vertex 19.7594 13.853 0
    endloop
  endfacet
  facet normal -0.989177 0.146728 0
    outer loop
      vertex 19.7594 13.853 2
      vertex 19.7378 13.7074 0
      vertex 19.7378 13.7074 2
    endloop
  endfacet
  facet normal -0.427547 0.903993 0
    outer loop
      vertex 18.9738 12.6771 0
      vertex 18.8407 12.6142 2
      vertex 18.9738 12.6771 2
    endloop
  endfacet
  facet normal -0.427547 0.903993 0
    outer loop
      vertex 18.8407 12.6142 2
      vertex 18.9738 12.6771 0
      vertex 18.8407 12.6142 0
    endloop
  endfacet
  facet normal -0.740955 0.671555 0
    outer loop
      vertex 19.3273 12.9393 0
      vertex 19.4262 13.0484 2
      vertex 19.4262 13.0484 0
    endloop
  endfacet
  facet normal -0.740955 0.671555 0
    outer loop
      vertex 19.4262 13.0484 2
      vertex 19.3273 12.9393 0
      vertex 19.3273 12.9393 2
    endloop
  endfacet
  facet normal -0.595698 0.803209 0
    outer loop
      vertex 19.2183 12.8405 0
      vertex 19.1 12.7528 2
      vertex 19.2183 12.8405 2
    endloop
  endfacet
  facet normal -0.595698 0.803209 0
    outer loop
      vertex 19.1 12.7528 2
      vertex 19.2183 12.8405 0
      vertex 19.1 12.7528 0
    endloop
  endfacet
  facet normal -0.857728 0.514103 0
    outer loop
      vertex 19.5139 13.1666 0
      vertex 19.5895 13.2929 2
      vertex 19.5895 13.2929 0
    endloop
  endfacet
  facet normal -0.857728 0.514103 0
    outer loop
      vertex 19.5895 13.2929 2
      vertex 19.5139 13.1666 0
      vertex 19.5139 13.1666 2
    endloop
  endfacet
  facet normal 0.146733 0.989176 -0
    outer loop
      vertex 18.1196 12.5072 0
      vertex 17.974 12.5288 2
      vertex 18.1196 12.5072 2
    endloop
  endfacet
  facet normal 0.146733 0.989176 0
    outer loop
      vertex 17.974 12.5288 2
      vertex 18.1196 12.5072 0
      vertex 17.974 12.5288 0
    endloop
  endfacet
  facet normal 0.514109 0.857725 -0
    outer loop
      vertex 17.5596 12.6771 0
      vertex 17.4333 12.7528 2
      vertex 17.5596 12.6771 2
    endloop
  endfacet
  facet normal 0.514109 0.857725 0
    outer loop
      vertex 17.4333 12.7528 2
      vertex 17.5596 12.6771 0
      vertex 17.4333 12.7528 0
    endloop
  endfacet
  facet normal 0.903991 0.427552 0
    outer loop
      vertex 16.9438 13.2929 2
      vertex 16.8808 13.426 0
      vertex 16.8808 13.426 2
    endloop
  endfacet
  facet normal 0.903991 0.427552 0
    outer loop
      vertex 16.8808 13.426 0
      vertex 16.9438 13.2929 2
      vertex 16.9438 13.2929 0
    endloop
  endfacet
  facet normal 0.803209 0.595698 0
    outer loop
      vertex 17.1072 13.0484 2
      vertex 17.0195 13.1666 0
      vertex 17.0195 13.1666 2
    endloop
  endfacet
  facet normal 0.803209 0.595698 0
    outer loop
      vertex 17.0195 13.1666 0
      vertex 17.1072 13.0484 2
      vertex 17.1072 13.0484 0
    endloop
  endfacet
  facet normal 1 -0 0
    outer loop
      vertex 5.38333 20.3 2
      vertex 5.38333 32.2 0
      vertex 5.38333 32.2 2
    endloop
  endfacet
  facet normal 1 0 0
    outer loop
      vertex 5.38333 32.2 0
      vertex 5.38333 20.3 2
      vertex 5.38333 20.3 0
    endloop
  endfacet
  facet normal -1 0 0
    outer loop
      vertex 17.2833 20.3 0
      vertex 17.2833 32.2 2
      vertex 17.2833 32.2 0
    endloop
  endfacet
  facet normal -1 -0 0
    outer loop
      vertex 17.2833 32.2 2
      vertex 17.2833 20.3 0
      vertex 17.2833 20.3 2
    endloop
  endfacet
  facet normal 0 -1 0
    outer loop
      vertex 5.38333 32.2 0
      vertex 17.2833 32.2 2
      vertex 5.38333 32.2 2
    endloop
  endfacet
  facet normal 0 -1 -0
    outer loop
      vertex 17.2833 32.2 2
      vertex 5.38333 32.2 0
      vertex 17.2833 32.2 0
    endloop
  endfacet
  facet normal 0 1 -0
    outer loop
      vertex 17.2833 20.3 0
      vertex 5.38333 20.3 2
      vertex 17.2833 20.3 2
    endloop
  endfacet
  facet normal 0 1 0
    outer loop
      vertex 5.38333 20.3 2
      vertex 17.2833 20.3 0
      vertex 5.38333 20.3 0
    endloop
  endfacet
endsolid OpenSCAD_Model
