solid OpenSCAD_Model
  facet normal -1 0 0
    outer loop
      vertex 0 0 0
      vertex 0 2 20
      vertex 0 2 0
    endloop
  endfacet
  facet normal -1 -0 0
    outer loop
      vertex 0 2 20
      vertex 0 0 0
      vertex 0 0 20
    endloop
  endfacet
  facet normal 0 0 1
    outer loop
      vertex 107 2 2
      vertex 70 2 2
      vertex 107 0 2
    endloop
  endfacet
  facet normal 0 0 1
    outer loop
      vertex 107 2 2
      vertex 68 2 2
      vertex 70 2 2
    endloop
  endfacet
  facet normal -0 0 1
    outer loop
      vertex 2 2 2
      vertex 68 2 2
      vertex 107 2 2
    endloop
  endfacet
  facet normal 0 0 1
    outer loop
      vertex 2 2 2
      vertex 68 0 2
      vertex 68 2 2
    endloop
  endfacet
  facet normal 0 0 1
    outer loop
      vertex 68 0 2
      vertex 2 2 2
      vertex 2 0 2
    endloop
  endfacet
  facet normal 0 0 1
    outer loop
      vertex 107 0 2
      vertex 70 2 2
      vertex 70 0 2
    endloop
  endfacet
  facet normal 1 -0 0
    outer loop
      vertex 107 0 2
      vertex 107 2 0
      vertex 107 2 2
    endloop
  endfacet
  facet normal 1 0 0
    outer loop
      vertex 107 2 0
      vertex 107 0 2
      vertex 107 0 0
    endloop
  endfacet
  facet normal 0 1 0
    outer loop
      vertex 107 2 2
      vertex 107 2 0
      vertex 2 2 2
    endloop
  endfacet
  facet normal 0 1 0
    outer loop
      vertex 2 2 18
      vertex 10 2 20
      vertex 10 2 18
    endloop
  endfacet
  facet normal 0 1 0
    outer loop
      vertex 10 2 20
      vertex 2 2 18
      vertex 0 2 20
    endloop
  endfacet
  facet normal 0 1 -0
    outer loop
      vertex 2 2 2
      vertex 0 2 20
      vertex 2 2 18
    endloop
  endfacet
  facet normal 0 1 0
    outer loop
      vertex 2 2 2
      vertex 0 2 0
      vertex 0 2 20
    endloop
  endfacet
  facet normal 0 1 0
    outer loop
      vertex 0 2 0
      vertex 2 2 2
      vertex 107 2 0
    endloop
  endfacet
  facet normal 0 0 -1
    outer loop
      vertex 0 0 0
      vertex 107 2 0
      vertex 107 0 0
    endloop
  endfacet
  facet normal -0 0 -1
    outer loop
      vertex 107 2 0
      vertex 0 0 0
      vertex 0 2 0
    endloop
  endfacet
  facet normal 0 -1 0
    outer loop
      vertex 50 0 72
      vertex 52 0 70
      vertex 70 0 72
    endloop
  endfacet
  facet normal 0 -1 0
    outer loop
      vertex 50 0 62
      vertex 52 0 70
      vertex 50 0 72
    endloop
  endfacet
  facet normal 0 -1 -0
    outer loop
      vertex 52 0 70
      vertex 50 0 62
      vertex 52 0 62
    endloop
  endfacet
  facet normal 0 -1 0
    outer loop
      vertex 68 0 70
      vertex 70 0 72
      vertex 52 0 70
    endloop
  endfacet
  facet normal 0 -1 0
    outer loop
      vertex 70 0 2
      vertex 68 0 70
      vertex 68 0 2
    endloop
  endfacet
  facet normal 0 -1 0
    outer loop
      vertex 68 0 70
      vertex 70 0 2
      vertex 70 0 72
    endloop
  endfacet
  facet normal 0 -1 0
    outer loop
      vertex 0 0 20
      vertex 2 0 18
      vertex 10 0 20
    endloop
  endfacet
  facet normal 0 -1 0
    outer loop
      vertex 0 0 20
      vertex 2 0 2
      vertex 2 0 18
    endloop
  endfacet
  facet normal 0 -1 0
    outer loop
      vertex 0 0 0
      vertex 68 0 2
      vertex 2 0 2
    endloop
  endfacet
  facet normal 0 -1 0
    outer loop
      vertex 107 0 0
      vertex 68 0 2
      vertex 0 0 0
    endloop
  endfacet
  facet normal 0 -1 0
    outer loop
      vertex 0 0 0
      vertex 2 0 2
      vertex 0 0 20
    endloop
  endfacet
  facet normal 0 -1 0
    outer loop
      vertex 68 0 2
      vertex 107 0 0
      vertex 70 0 2
    endloop
  endfacet
  facet normal 0 -1 0
    outer loop
      vertex 70 0 2
      vertex 107 0 0
      vertex 107 0 2
    endloop
  endfacet
  facet normal 0 -1 -0
    outer loop
      vertex 10 0 20
      vertex 2 0 18
      vertex 10 0 18
    endloop
  endfacet
  facet normal 0 1 -0
    outer loop
      vertex 70 2 2
      vertex 68 2 70
      vertex 70 2 70
    endloop
  endfacet
  facet normal 0 1 0
    outer loop
      vertex 68 2 70
      vertex 70 2 2
      vertex 68 2 2
    endloop
  endfacet
  facet normal 0 0 -1
    outer loop
      vertex 68 0 70
      vertex 52 0 70
      vertex 68 2 70
    endloop
  endfacet
  facet normal 0 0 -1
    outer loop
      vertex 68 2 70
      vertex 52 2 70
      vertex 70 2 70
    endloop
  endfacet
  facet normal 0 0 -1
    outer loop
      vertex 52 2 70
      vertex 68 2 70
      vertex 52 0 70
    endloop
  endfacet
  facet normal -1 0 0
    outer loop
      vertex 68 0 2
      vertex 68 2 70
      vertex 68 2 2
    endloop
  endfacet
  facet normal -1 -0 0
    outer loop
      vertex 68 2 70
      vertex 68 0 2
      vertex 68 0 70
    endloop
  endfacet
  facet normal 1 -0 0
    outer loop
      vertex 70 0 72
      vertex 70 2 70
      vertex 70 2 72
    endloop
  endfacet
  facet normal 1 0 0
    outer loop
      vertex 70 0 2
      vertex 70 2 70
      vertex 70 0 72
    endloop
  endfacet
  facet normal 1 0 0
    outer loop
      vertex 70 2 70
      vertex 70 0 2
      vertex 70 2 2
    endloop
  endfacet
  facet normal -0 0 1
    outer loop
      vertex 0 2 20
      vertex 10 0 20
      vertex 10 2 20
    endloop
  endfacet
  facet normal 0 0 1
    outer loop
      vertex 10 0 20
      vertex 0 2 20
      vertex 0 0 20
    endloop
  endfacet
  facet normal 1 -0 0
    outer loop
      vertex 2 0 18
      vertex 2 2 2
      vertex 2 2 18
    endloop
  endfacet
  facet normal 1 0 0
    outer loop
      vertex 2 2 2
      vertex 2 0 18
      vertex 2 0 2
    endloop
  endfacet
  facet normal 1 -0 0
    outer loop
      vertex 10 0 20
      vertex 10 2 18
      vertex 10 2 20
    endloop
  endfacet
  facet normal 1 0 0
    outer loop
      vertex 10 2 18
      vertex 10 0 20
      vertex 10 0 18
    endloop
  endfacet
  facet normal 0 0 -1
    outer loop
      vertex 2 0 18
      vertex 10 2 18
      vertex 10 0 18
    endloop
  endfacet
  facet normal -0 0 -1
    outer loop
      vertex 10 2 18
      vertex 2 0 18
      vertex 2 2 18
    endloop
  endfacet
  facet normal -1 0 0
    outer loop
      vertex 50 0 62
      vertex 50 2 72
      vertex 50 2 62
    endloop
  endfacet
  facet normal -1 -0 0
    outer loop
      vertex 50 2 72
      vertex 50 0 62
      vertex 50 0 72
    endloop
  endfacet
  facet normal -0 0 1
    outer loop
      vertex 50 2 72
      vertex 70 0 72
      vertex 70 2 72
    endloop
  endfacet
  facet normal 0 0 1
    outer loop
      vertex 70 0 72
      vertex 50 2 72
      vertex 50 0 72
    endloop
  endfacet
  facet normal 0 1 0
    outer loop
      vertex 52 2 70
      vertex 70 2 72
      vertex 70 2 70
    endloop
  endfacet
  facet normal 0 1 0
    outer loop
      vertex 70 2 72
      vertex 52 2 70
      vertex 50 2 72
    endloop
  endfacet
  facet normal 0 1 0
    outer loop
      vertex 50 2 62
      vertex 52 2 70
      vertex 52 2 62
    endloop
  endfacet
  facet normal 0 1 0
    outer loop
      vertex 52 2 70
      vertex 50 2 62
      vertex 50 2 72
    endloop
  endfacet
  facet normal 1 -0 0
    outer loop
      vertex 52 0 70
      vertex 52 2 62
      vertex 52 2 70
    endloop
  endfacet
  facet normal 1 0 0
    outer loop
      vertex 52 2 62
      vertex 52 0 70
      vertex 52 0 62
    endloop
  endfacet
  facet normal 0 0 -1
    outer loop
      vertex 50 0 62
      vertex 52 2 62
      vertex 52 0 62
    endloop
  endfacet
  facet normal -0 0 -1
    outer loop
      vertex 52 2 62
      vertex 50 0 62
      vertex 50 2 62
    endloop
  endfacet
endsolid OpenSCAD_Model
