solid OpenSCAD_Model
  facet normal 0.365857 0.329419 -0.870421
    outer loop
      vertex 33.4565 37.1572 0
      vertex 44.1626 49.0476 9
      vertex 40.4508 29.3893 0
    endloop
  endfacet
  facet normal -0 0 -1
    outer loop
      vertex -48.9074 10.3956 0
      vertex -45.6773 20.3368 0
      vertex -50 0 0
    endloop
  endfacet
  facet normal 0 0 -1
    outer loop
      vertex -50 0 0
      vertex -45.6773 20.3368 0
      vertex -40.4508 29.3893 0
    endloop
  endfacet
  facet normal 0 0 -1
    outer loop
      vertex -50 0 0
      vertex -40.4508 29.3893 0
      vertex -33.4565 37.1572 0
    endloop
  endfacet
  facet normal 0 0 -1
    outer loop
      vertex -50 0 0
      vertex -33.4565 37.1572 0
      vertex -25 43.3013 0
    endloop
  endfacet
  facet normal 0 0 -1
    outer loop
      vertex -50 0 0
      vertex -25 43.3013 0
      vertex -15.4508 47.5528 0
    endloop
  endfacet
  facet normal 0 0 -1
    outer loop
      vertex -50 0 0
      vertex -15.4508 47.5528 0
      vertex -5.22642 49.7261 0
    endloop
  endfacet
  facet normal 0 0 -1
    outer loop
      vertex -50 0 0
      vertex -5.22642 49.7261 0
      vertex 5.22642 49.7261 0
    endloop
  endfacet
  facet normal 0 0 -1
    outer loop
      vertex -50 0 0
      vertex 5.22642 49.7261 0
      vertex 15.4508 47.5528 0
    endloop
  endfacet
  facet normal 0 0 -1
    outer loop
      vertex -50 0 0
      vertex 15.4508 47.5528 0
      vertex 25 43.3013 0
    endloop
  endfacet
  facet normal 0 0 -1
    outer loop
      vertex -50 0 0
      vertex 25 43.3013 0
      vertex 33.4565 37.1572 0
    endloop
  endfacet
  facet normal 0 0 -1
    outer loop
      vertex -50 0 0
      vertex 33.4565 37.1572 0
      vertex 40.4508 29.3893 0
    endloop
  endfacet
  facet normal 0 0 -1
    outer loop
      vertex -50 0 0
      vertex 40.4508 29.3893 0
      vertex 45.6773 20.3368 0
    endloop
  endfacet
  facet normal 0 0 -1
    outer loop
      vertex -50 0 0
      vertex 45.6773 20.3368 0
      vertex 48.9074 10.3956 0
    endloop
  endfacet
  facet normal -0 0 -1
    outer loop
      vertex -50 0 0
      vertex 48.9074 10.3956 0
      vertex 50 0 0
    endloop
  endfacet
  facet normal 0 0 -1
    outer loop
      vertex -50 0 0
      vertex 50 0 0
      vertex 48.9074 -10.3956 0
    endloop
  endfacet
  facet normal 0 0 -1
    outer loop
      vertex -50 0 0
      vertex 48.9074 -10.3956 0
      vertex 45.6773 -20.3368 0
    endloop
  endfacet
  facet normal 0 0 -1
    outer loop
      vertex -50 0 0
      vertex 45.6773 -20.3368 0
      vertex 40.4508 -29.3893 0
    endloop
  endfacet
  facet normal 0 0 -1
    outer loop
      vertex -50 0 0
      vertex 40.4508 -29.3893 0
      vertex 33.4565 -37.1572 0
    endloop
  endfacet
  facet normal 0 0 -1
    outer loop
      vertex -50 0 0
      vertex 33.4565 -37.1572 0
      vertex 25 -43.3013 0
    endloop
  endfacet
  facet normal 0 0 -1
    outer loop
      vertex -50 0 0
      vertex 25 -43.3013 0
      vertex 15.4508 -47.5528 0
    endloop
  endfacet
  facet normal 0 0 -1
    outer loop
      vertex -50 0 0
      vertex 15.4508 -47.5528 0
      vertex 5.22642 -49.7261 0
    endloop
  endfacet
  facet normal 0 0 -1
    outer loop
      vertex -50 0 0
      vertex 5.22642 -49.7261 0
      vertex -5.22642 -49.7261 0
    endloop
  endfacet
  facet normal 0 0 -1
    outer loop
      vertex -50 0 0
      vertex -5.22642 -49.7261 0
      vertex -15.4508 -47.5528 0
    endloop
  endfacet
  facet normal 0 0 -1
    outer loop
      vertex -50 0 0
      vertex -15.4508 -47.5528 0
      vertex -25 -43.3013 0
    endloop
  endfacet
  facet normal 0 0 -1
    outer loop
      vertex -50 0 0
      vertex -25 -43.3013 0
      vertex -33.4565 -37.1572 0
    endloop
  endfacet
  facet normal 0 0 -1
    outer loop
      vertex -50 0 0
      vertex -33.4565 -37.1572 0
      vertex -40.4508 -29.3893 0
    endloop
  endfacet
  facet normal 0 0 -1
    outer loop
      vertex -50 0 0
      vertex -40.4508 -29.3893 0
      vertex -45.6773 -20.3368 0
    endloop
  endfacet
  facet normal 0 0 -1
    outer loop
      vertex -50 0 0
      vertex -45.6773 -20.3368 0
      vertex -48.9074 -10.3956 0
    endloop
  endfacet
  facet normal 0.426352 0.246154 -0.870421
    outer loop
      vertex 40.4508 29.3893 0
      vertex 53.3951 38.7938 9
      vertex 45.6773 20.3368 0
    endloop
  endfacet
  facet normal 0.365857 0.329419 -0.870421
    outer loop
      vertex 40.4508 29.3893 0
      vertex 44.1626 49.0476 9
      vertex 53.3951 38.7938 9
    endloop
  endfacet
  facet normal 0.289372 0.398286 -0.870421
    outer loop
      vertex 33 57.1577 9
      vertex 44.1626 49.0476 9
      vertex 33.4565 37.1572 0
    endloop
  endfacet
  facet normal 0.289372 0.398286 -0.870421
    outer loop
      vertex 25 43.3013 0
      vertex 33 57.1577 9
      vertex 33.4565 37.1572 0
    endloop
  endfacet
  facet normal 0.587785 0.809017 -0
    outer loop
      vertex 33 57.1577 114
      vertex 44.1626 49.0476 114
      vertex 33 57.1577 9
    endloop
  endfacet
  facet normal 0.587785 0.809017 0
    outer loop
      vertex 33 57.1577 9
      vertex 44.1626 49.0476 114
      vertex 44.1626 49.0476 9
    endloop
  endfacet
  facet normal 0.743145 0.669131 0
    outer loop
      vertex 44.1626 49.0476 9
      vertex 44.1626 49.0476 114
      vertex 53.3951 38.7938 114
    endloop
  endfacet
  facet normal 0.743145 0.669131 0
    outer loop
      vertex 53.3951 38.7938 9
      vertex 44.1626 49.0476 9
      vertex 53.3951 38.7938 114
    endloop
  endfacet
  facet normal -0.489612 0.0514603 -0.870421
    outer loop
      vertex -64.5577 13.7222 9
      vertex -48.9074 10.3956 0
      vertex -50 0 0
    endloop
  endfacet
  facet normal -0.489612 0.0514602 -0.870421
    outer loop
      vertex -66 0 9
      vertex -64.5577 13.7222 9
      vertex -50 0 0
    endloop
  endfacet
  facet normal -0.489612 -0.0514602 -0.870421
    outer loop
      vertex -66 0 9
      vertex -50 0 0
      vertex -64.5577 -13.7222 9
    endloop
  endfacet
  facet normal -0.489612 -0.0514603 -0.870421
    outer loop
      vertex -64.5577 -13.7222 9
      vertex -50 0 0
      vertex -48.9074 -10.3956 0
    endloop
  endfacet
  facet normal -0.468213 -0.152132 -0.870421
    outer loop
      vertex -64.5577 -13.7222 9
      vertex -48.9074 -10.3956 0
      vertex -45.6773 -20.3368 0
    endloop
  endfacet
  facet normal -0.426352 -0.246154 -0.870421
    outer loop
      vertex -60.294 -26.8446 9
      vertex -45.6773 -20.3368 0
      vertex -53.3951 -38.7938 9
    endloop
  endfacet
  facet normal -0.426352 -0.246154 -0.870421
    outer loop
      vertex -53.3951 -38.7938 9
      vertex -45.6773 -20.3368 0
      vertex -40.4508 -29.3893 0
    endloop
  endfacet
  facet normal -0.468213 -0.152132 -0.870421
    outer loop
      vertex -64.5577 -13.7222 9
      vertex -45.6773 -20.3368 0
      vertex -60.294 -26.8446 9
    endloop
  endfacet
  facet normal -0.365857 -0.329419 -0.870421
    outer loop
      vertex -53.3951 -38.7938 9
      vertex -40.4508 -29.3893 0
      vertex -44.1626 -49.0476 9
    endloop
  endfacet
  facet normal -0.365857 -0.329419 -0.870421
    outer loop
      vertex -44.1626 -49.0476 9
      vertex -40.4508 -29.3893 0
      vertex -33.4565 -37.1572 0
    endloop
  endfacet
  facet normal -0.289372 -0.398286 -0.870421
    outer loop
      vertex -44.1626 -49.0476 9
      vertex -33.4565 -37.1572 0
      vertex -33 -57.1577 9
    endloop
  endfacet
  facet normal -0.289372 -0.398286 -0.870421
    outer loop
      vertex -33.4565 -37.1572 0
      vertex -25 -43.3013 0
      vertex -33 -57.1577 9
    endloop
  endfacet
  facet normal -0.20024 -0.449746 -0.870421
    outer loop
      vertex -33 -57.1577 9
      vertex -25 -43.3013 0
      vertex -15.4508 -47.5528 0
    endloop
  endfacet
  facet normal -0.20024 -0.449746 -0.870421
    outer loop
      vertex -33 -57.1577 9
      vertex -15.4508 -47.5528 0
      vertex -20.3951 -62.7697 9
    endloop
  endfacet
  facet normal -0.102357 -0.48155 -0.870421
    outer loop
      vertex -20.3951 -62.7697 9
      vertex -15.4508 -47.5528 0
      vertex -6.89888 -65.6384 9
    endloop
  endfacet
  facet normal -0.102357 -0.48155 -0.870421
    outer loop
      vertex -15.4508 -47.5528 0
      vertex -5.22642 -49.7261 0
      vertex -6.89888 -65.6384 9
    endloop
  endfacet
  facet normal -0 -0.492309 -0.870421
    outer loop
      vertex -5.22642 -49.7261 0
      vertex 5.22642 -49.7261 0
      vertex -6.89888 -65.6384 9
    endloop
  endfacet
  facet normal -0 -0.492309 -0.870421
    outer loop
      vertex -6.89888 -65.6384 9
      vertex 5.22642 -49.7261 0
      vertex 6.89888 -65.6384 9
    endloop
  endfacet
  facet normal 0.102357 -0.48155 -0.870421
    outer loop
      vertex 5.22642 -49.7261 0
      vertex 15.4508 -47.5528 0
      vertex 6.89888 -65.6384 9
    endloop
  endfacet
  facet normal 0.20024 -0.449746 -0.870421
    outer loop
      vertex 15.4508 -47.5528 0
      vertex 25 -43.3013 0
      vertex 33 -57.1577 9
    endloop
  endfacet
  facet normal 0.102357 -0.48155 -0.870421
    outer loop
      vertex 6.89888 -65.6384 9
      vertex 15.4508 -47.5528 0
      vertex 20.3951 -62.7697 9
    endloop
  endfacet
  facet normal 0.20024 -0.449746 -0.870421
    outer loop
      vertex 15.4508 -47.5528 0
      vertex 33 -57.1577 9
      vertex 20.3951 -62.7697 9
    endloop
  endfacet
  facet normal 0.289372 -0.398286 -0.870421
    outer loop
      vertex 25 -43.3013 0
      vertex 33.4565 -37.1572 0
      vertex 33 -57.1577 9
    endloop
  endfacet
  facet normal 0.289372 -0.398286 -0.870421
    outer loop
      vertex 33 -57.1577 9
      vertex 33.4565 -37.1572 0
      vertex 44.1626 -49.0476 9
    endloop
  endfacet
  facet normal 0.365857 -0.329419 -0.870421
    outer loop
      vertex 33.4565 -37.1572 0
      vertex 40.4508 -29.3893 0
      vertex 44.1626 -49.0476 9
    endloop
  endfacet
  facet normal 0.365857 -0.329419 -0.870421
    outer loop
      vertex 40.4508 -29.3893 0
      vertex 53.3951 -38.7938 9
      vertex 44.1626 -49.0476 9
    endloop
  endfacet
  facet normal 0.426352 -0.246154 -0.870421
    outer loop
      vertex 40.4508 -29.3893 0
      vertex 45.6773 -20.3368 0
      vertex 53.3951 -38.7938 9
    endloop
  endfacet
  facet normal 0.426352 -0.246154 -0.870421
    outer loop
      vertex 45.6773 -20.3368 0
      vertex 60.294 -26.8446 9
      vertex 53.3951 -38.7938 9
    endloop
  endfacet
  facet normal 0.468213 -0.152132 -0.870421
    outer loop
      vertex 45.6773 -20.3368 0
      vertex 64.5577 -13.7222 9
      vertex 60.294 -26.8446 9
    endloop
  endfacet
  facet normal 0.468213 -0.152132 -0.870421
    outer loop
      vertex 45.6773 -20.3368 0
      vertex 48.9074 -10.3956 0
      vertex 64.5577 -13.7222 9
    endloop
  endfacet
  facet normal 0.489612 -0.0514603 -0.870421
    outer loop
      vertex 48.9074 -10.3956 0
      vertex 50 0 0
      vertex 64.5577 -13.7222 9
    endloop
  endfacet
  facet normal 0.489612 -0.0514602 -0.870421
    outer loop
      vertex 50 0 0
      vertex 66 0 9
      vertex 64.5577 -13.7222 9
    endloop
  endfacet
  facet normal 0.489612 0.0514602 -0.870421
    outer loop
      vertex 50 0 0
      vertex 64.5577 13.7222 9
      vertex 66 0 9
    endloop
  endfacet
  facet normal 0.489612 0.0514603 -0.870421
    outer loop
      vertex 48.9074 10.3956 0
      vertex 64.5577 13.7222 9
      vertex 50 0 0
    endloop
  endfacet
  facet normal 0.468213 0.152132 -0.870421
    outer loop
      vertex 45.6773 20.3368 0
      vertex 64.5577 13.7222 9
      vertex 48.9074 10.3956 0
    endloop
  endfacet
  facet normal 0.426352 0.246154 -0.870421
    outer loop
      vertex 45.6773 20.3368 0
      vertex 53.3951 38.7938 9
      vertex 60.294 26.8446 9
    endloop
  endfacet
  facet normal 0.468213 0.152132 -0.870421
    outer loop
      vertex 45.6773 20.3368 0
      vertex 60.294 26.8446 9
      vertex 64.5577 13.7222 9
    endloop
  endfacet
  facet normal 0.20024 0.449746 -0.870421
    outer loop
      vertex 15.4508 47.5528 0
      vertex 33 57.1577 9
      vertex 25 43.3013 0
    endloop
  endfacet
  facet normal 0.20024 0.449746 -0.870421
    outer loop
      vertex 15.4508 47.5528 0
      vertex 20.3951 62.7697 9
      vertex 33 57.1577 9
    endloop
  endfacet
  facet normal 0.102357 0.48155 -0.870421
    outer loop
      vertex 6.89888 65.6384 9
      vertex 20.3951 62.7697 9
      vertex 15.4508 47.5528 0
    endloop
  endfacet
  facet normal 0.102357 0.48155 -0.870421
    outer loop
      vertex 5.22642 49.7261 0
      vertex 6.89888 65.6384 9
      vertex 15.4508 47.5528 0
    endloop
  endfacet
  facet normal 0 0.492309 -0.870421
    outer loop
      vertex 6.89888 65.6384 9
      vertex 5.22642 49.7261 0
      vertex -6.89888 65.6384 9
    endloop
  endfacet
  facet normal 0 0.492309 -0.870421
    outer loop
      vertex -6.89888 65.6384 9
      vertex 5.22642 49.7261 0
      vertex -5.22642 49.7261 0
    endloop
  endfacet
  facet normal -0.102357 0.48155 -0.870421
    outer loop
      vertex -15.4508 47.5528 0
      vertex -6.89888 65.6384 9
      vertex -5.22642 49.7261 0
    endloop
  endfacet
  facet normal -0.102357 0.48155 -0.870421
    outer loop
      vertex -20.3951 62.7697 9
      vertex -6.89888 65.6384 9
      vertex -15.4508 47.5528 0
    endloop
  endfacet
  facet normal -0.20024 0.449746 -0.870421
    outer loop
      vertex -33 57.1577 9
      vertex -20.3951 62.7697 9
      vertex -15.4508 47.5528 0
    endloop
  endfacet
  facet normal -0.20024 0.449746 -0.870421
    outer loop
      vertex -33 57.1577 9
      vertex -15.4508 47.5528 0
      vertex -25 43.3013 0
    endloop
  endfacet
  facet normal -0.289372 0.398286 -0.870421
    outer loop
      vertex -33.4565 37.1572 0
      vertex -33 57.1577 9
      vertex -25 43.3013 0
    endloop
  endfacet
  facet normal -0.365857 0.329419 -0.870421
    outer loop
      vertex -44.1626 49.0476 9
      vertex -33.4565 37.1572 0
      vertex -40.4508 29.3893 0
    endloop
  endfacet
  facet normal -0.289372 0.398286 -0.870421
    outer loop
      vertex -44.1626 49.0476 9
      vertex -33 57.1577 9
      vertex -33.4565 37.1572 0
    endloop
  endfacet
  facet normal -0.365857 0.329419 -0.870421
    outer loop
      vertex -53.3951 38.7938 9
      vertex -44.1626 49.0476 9
      vertex -40.4508 29.3893 0
    endloop
  endfacet
  facet normal -0.426352 0.246154 -0.870421
    outer loop
      vertex -53.3951 38.7938 9
      vertex -40.4508 29.3893 0
      vertex -45.6773 20.3368 0
    endloop
  endfacet
  facet normal -0.426352 0.246154 -0.870421
    outer loop
      vertex -60.294 26.8446 9
      vertex -53.3951 38.7938 9
      vertex -45.6773 20.3368 0
    endloop
  endfacet
  facet normal -0.468213 0.152132 -0.870421
    outer loop
      vertex -64.5577 13.7222 9
      vertex -60.294 26.8446 9
      vertex -45.6773 20.3368 0
    endloop
  endfacet
  facet normal -0.468213 0.152132 -0.870421
    outer loop
      vertex -64.5577 13.7222 9
      vertex -45.6773 20.3368 0
      vertex -48.9074 10.3956 0
    endloop
  endfacet
  facet normal 0.866025 0.5 0
    outer loop
      vertex 53.3951 38.7938 9
      vertex 53.3951 38.7938 114
      vertex 60.294 26.8446 114
    endloop
  endfacet
  facet normal 0.866025 0.5 0
    outer loop
      vertex 60.294 26.8446 9
      vertex 53.3951 38.7938 9
      vertex 60.294 26.8446 114
    endloop
  endfacet
  facet normal 0.406737 0.913545 -0
    outer loop
      vertex 20.3951 62.7697 114
      vertex 33 57.1577 114
      vertex 20.3951 62.7697 9
    endloop
  endfacet
  facet normal 0.406737 0.913545 0
    outer loop
      vertex 20.3951 62.7697 9
      vertex 33 57.1577 114
      vertex 33 57.1577 9
    endloop
  endfacet
  facet normal 0.565548 0.509221 0.648729
    outer loop
      vertex 36.1331 40.1298 128
      vertex 53.3951 38.7938 114
      vertex 44.1626 49.0476 114
    endloop
  endfacet
  facet normal 0.447316 0.615678 0.648729
    outer loop
      vertex 33 57.1577 114
      vertex 36.1331 40.1298 128
      vertex 44.1626 49.0476 114
    endloop
  endfacet
  facet normal 0.309535 0.695226 0.648729
    outer loop
      vertex 16.6869 51.3571 128
      vertex 27 46.7654 128
      vertex 33 57.1577 114
    endloop
  endfacet
  facet normal 0.309534 0.695226 0.648729
    outer loop
      vertex 16.6869 51.3571 128
      vertex 33 57.1577 114
      vertex 20.3951 62.7697 114
    endloop
  endfacet
  facet normal 0.447316 0.615678 0.648729
    outer loop
      vertex 27 46.7654 128
      vertex 36.1331 40.1298 128
      vertex 33 57.1577 114
    endloop
  endfacet
  facet normal 0.659062 0.38051 0.648729
    outer loop
      vertex 43.6869 31.7404 128
      vertex 49.3315 21.9638 128
      vertex 53.3951 38.7938 114
    endloop
  endfacet
  facet normal 0.565548 0.509221 0.648729
    outer loop
      vertex 36.1331 40.1298 128
      vertex 43.6869 31.7404 128
      vertex 53.3951 38.7938 114
    endloop
  endfacet
  facet normal 0.659062 0.38051 0.648729
    outer loop
      vertex 49.3315 21.9638 128
      vertex 60.294 26.8446 114
      vertex 53.3951 38.7938 114
    endloop
  endfacet
  facet normal -0.951056 0.309017 0
    outer loop
      vertex -64.5577 13.7222 114
      vertex -60.294 26.8446 114
      vertex -64.5577 13.7222 9
    endloop
  endfacet
  facet normal -0.951056 0.309017 0
    outer loop
      vertex -64.5577 13.7222 9
      vertex -60.294 26.8446 114
      vertex -60.294 26.8446 9
    endloop
  endfacet
  facet normal -0.994522 0.104528 0
    outer loop
      vertex -66 0 114
      vertex -64.5577 13.7222 114
      vertex -66 0 9
    endloop
  endfacet
  facet normal -0.994522 0.104528 0
    outer loop
      vertex -66 0 9
      vertex -64.5577 13.7222 114
      vertex -64.5577 13.7222 9
    endloop
  endfacet
  facet normal -0.994522 -0.104528 -0
    outer loop
      vertex -64.5577 -13.7222 9
      vertex -64.5577 -13.7222 114
      vertex -66 0 9
    endloop
  endfacet
  facet normal -0.994522 -0.104528 -0
    outer loop
      vertex -66 0 9
      vertex -64.5577 -13.7222 114
      vertex -66 0 114
    endloop
  endfacet
  facet normal -0.951056 -0.309017 -0
    outer loop
      vertex -60.294 -26.8446 9
      vertex -60.294 -26.8446 114
      vertex -64.5577 -13.7222 9
    endloop
  endfacet
  facet normal -0.951056 -0.309017 -0
    outer loop
      vertex -64.5577 -13.7222 9
      vertex -60.294 -26.8446 114
      vertex -64.5577 -13.7222 114
    endloop
  endfacet
  facet normal -0.866025 -0.5 -0
    outer loop
      vertex -53.3951 -38.7938 9
      vertex -53.3951 -38.7938 114
      vertex -60.294 -26.8446 9
    endloop
  endfacet
  facet normal -0.866025 -0.5 -0
    outer loop
      vertex -60.294 -26.8446 9
      vertex -53.3951 -38.7938 114
      vertex -60.294 -26.8446 114
    endloop
  endfacet
  facet normal -0.743145 -0.669131 -0
    outer loop
      vertex -44.1626 -49.0476 9
      vertex -44.1626 -49.0476 114
      vertex -53.3951 -38.7938 9
    endloop
  endfacet
  facet normal -0.743145 -0.669131 -0
    outer loop
      vertex -53.3951 -38.7938 9
      vertex -44.1626 -49.0476 114
      vertex -53.3951 -38.7938 114
    endloop
  endfacet
  facet normal -0.587785 -0.809017 0
    outer loop
      vertex -44.1626 -49.0476 9
      vertex -33 -57.1577 9
      vertex -33 -57.1577 114
    endloop
  endfacet
  facet normal -0.587785 -0.809017 0
    outer loop
      vertex -44.1626 -49.0476 114
      vertex -44.1626 -49.0476 9
      vertex -33 -57.1577 114
    endloop
  endfacet
  facet normal -0.406737 -0.913545 0
    outer loop
      vertex -33 -57.1577 9
      vertex -20.3951 -62.7697 9
      vertex -20.3951 -62.7697 114
    endloop
  endfacet
  facet normal -0.406737 -0.913545 0
    outer loop
      vertex -33 -57.1577 114
      vertex -33 -57.1577 9
      vertex -20.3951 -62.7697 114
    endloop
  endfacet
  facet normal -0.207912 -0.978148 0
    outer loop
      vertex -20.3951 -62.7697 9
      vertex -6.89888 -65.6384 9
      vertex -6.89888 -65.6384 114
    endloop
  endfacet
  facet normal -0.207912 -0.978148 0
    outer loop
      vertex -20.3951 -62.7697 114
      vertex -20.3951 -62.7697 9
      vertex -6.89888 -65.6384 114
    endloop
  endfacet
  facet normal -0 -1 0
    outer loop
      vertex -6.89888 -65.6384 9
      vertex 6.89888 -65.6384 9
      vertex 6.89888 -65.6384 114
    endloop
  endfacet
  facet normal 0 -1 0
    outer loop
      vertex -6.89888 -65.6384 114
      vertex -6.89888 -65.6384 9
      vertex 6.89888 -65.6384 114
    endloop
  endfacet
  facet normal 0.207912 -0.978148 0
    outer loop
      vertex 6.89888 -65.6384 9
      vertex 20.3951 -62.7697 9
      vertex 20.3951 -62.7697 114
    endloop
  endfacet
  facet normal 0.207912 -0.978148 0
    outer loop
      vertex 6.89888 -65.6384 114
      vertex 6.89888 -65.6384 9
      vertex 20.3951 -62.7697 114
    endloop
  endfacet
  facet normal 0.406737 -0.913545 0
    outer loop
      vertex 20.3951 -62.7697 9
      vertex 33 -57.1577 9
      vertex 33 -57.1577 114
    endloop
  endfacet
  facet normal 0.406737 -0.913545 0
    outer loop
      vertex 20.3951 -62.7697 114
      vertex 20.3951 -62.7697 9
      vertex 33 -57.1577 114
    endloop
  endfacet
  facet normal 0.587785 -0.809017 0
    outer loop
      vertex 33 -57.1577 9
      vertex 44.1626 -49.0476 9
      vertex 44.1626 -49.0476 114
    endloop
  endfacet
  facet normal 0.587785 -0.809017 0
    outer loop
      vertex 33 -57.1577 114
      vertex 33 -57.1577 9
      vertex 44.1626 -49.0476 114
    endloop
  endfacet
  facet normal 0.743145 -0.669131 0
    outer loop
      vertex 44.1626 -49.0476 9
      vertex 53.3951 -38.7938 9
      vertex 53.3951 -38.7938 114
    endloop
  endfacet
  facet normal 0.743145 -0.669131 0
    outer loop
      vertex 44.1626 -49.0476 114
      vertex 44.1626 -49.0476 9
      vertex 53.3951 -38.7938 114
    endloop
  endfacet
  facet normal 0.866025 -0.5 0
    outer loop
      vertex 53.3951 -38.7938 9
      vertex 60.294 -26.8446 9
      vertex 60.294 -26.8446 114
    endloop
  endfacet
  facet normal 0.866025 -0.5 0
    outer loop
      vertex 53.3951 -38.7938 114
      vertex 53.3951 -38.7938 9
      vertex 60.294 -26.8446 114
    endloop
  endfacet
  facet normal 0.951056 -0.309017 0
    outer loop
      vertex 60.294 -26.8446 9
      vertex 64.5577 -13.7222 9
      vertex 64.5577 -13.7222 114
    endloop
  endfacet
  facet normal 0.951056 -0.309017 0
    outer loop
      vertex 60.294 -26.8446 114
      vertex 60.294 -26.8446 9
      vertex 64.5577 -13.7222 114
    endloop
  endfacet
  facet normal 0.994522 -0.104528 0
    outer loop
      vertex 64.5577 -13.7222 9
      vertex 66 0 9
      vertex 66 0 114
    endloop
  endfacet
  facet normal 0.994522 -0.104528 0
    outer loop
      vertex 64.5577 -13.7222 114
      vertex 64.5577 -13.7222 9
      vertex 66 0 114
    endloop
  endfacet
  facet normal 0.994522 0.104528 0
    outer loop
      vertex 64.5577 13.7222 9
      vertex 64.5577 13.7222 114
      vertex 66 0 114
    endloop
  endfacet
  facet normal 0.994522 0.104528 0
    outer loop
      vertex 66 0 9
      vertex 64.5577 13.7222 9
      vertex 66 0 114
    endloop
  endfacet
  facet normal 0.951056 0.309017 0
    outer loop
      vertex 60.294 26.8446 9
      vertex 60.294 26.8446 114
      vertex 64.5577 13.7222 114
    endloop
  endfacet
  facet normal 0.951056 0.309017 0
    outer loop
      vertex 64.5577 13.7222 9
      vertex 60.294 26.8446 9
      vertex 64.5577 13.7222 114
    endloop
  endfacet
  facet normal 0.207912 0.978148 -0
    outer loop
      vertex 6.89888 65.6384 114
      vertex 20.3951 62.7697 114
      vertex 6.89888 65.6384 9
    endloop
  endfacet
  facet normal 0.207912 0.978148 0
    outer loop
      vertex 6.89888 65.6384 9
      vertex 20.3951 62.7697 114
      vertex 20.3951 62.7697 9
    endloop
  endfacet
  facet normal 0 1 -0
    outer loop
      vertex -6.89888 65.6384 114
      vertex 6.89888 65.6384 114
      vertex -6.89888 65.6384 9
    endloop
  endfacet
  facet normal 0 1 0
    outer loop
      vertex -6.89888 65.6384 9
      vertex 6.89888 65.6384 114
      vertex 6.89888 65.6384 9
    endloop
  endfacet
  facet normal -0.207912 0.978148 0
    outer loop
      vertex -20.3951 62.7697 114
      vertex -6.89888 65.6384 114
      vertex -20.3951 62.7697 9
    endloop
  endfacet
  facet normal -0.207912 0.978148 0
    outer loop
      vertex -20.3951 62.7697 9
      vertex -6.89888 65.6384 114
      vertex -6.89888 65.6384 9
    endloop
  endfacet
  facet normal -0.406737 0.913545 0
    outer loop
      vertex -33 57.1577 114
      vertex -20.3951 62.7697 114
      vertex -33 57.1577 9
    endloop
  endfacet
  facet normal -0.406737 0.913545 0
    outer loop
      vertex -33 57.1577 9
      vertex -20.3951 62.7697 114
      vertex -20.3951 62.7697 9
    endloop
  endfacet
  facet normal -0.587785 0.809017 0
    outer loop
      vertex -44.1626 49.0476 114
      vertex -33 57.1577 114
      vertex -44.1626 49.0476 9
    endloop
  endfacet
  facet normal -0.587785 0.809017 0
    outer loop
      vertex -44.1626 49.0476 9
      vertex -33 57.1577 114
      vertex -33 57.1577 9
    endloop
  endfacet
  facet normal -0.743145 0.669131 0
    outer loop
      vertex -53.3951 38.7938 114
      vertex -44.1626 49.0476 114
      vertex -53.3951 38.7938 9
    endloop
  endfacet
  facet normal -0.743145 0.669131 0
    outer loop
      vertex -53.3951 38.7938 9
      vertex -44.1626 49.0476 114
      vertex -44.1626 49.0476 9
    endloop
  endfacet
  facet normal -0.866025 0.5 0
    outer loop
      vertex -60.294 26.8446 114
      vertex -53.3951 38.7938 114
      vertex -60.294 26.8446 9
    endloop
  endfacet
  facet normal -0.866025 0.5 0
    outer loop
      vertex -60.294 26.8446 9
      vertex -53.3951 38.7938 114
      vertex -53.3951 38.7938 9
    endloop
  endfacet
  facet normal 0.723773 0.235168 0.648729
    outer loop
      vertex 49.3315 21.9638 128
      vertex 64.5577 13.7222 114
      vertex 60.294 26.8446 114
    endloop
  endfacet
  facet normal 0.158225 0.744389 0.648729
    outer loop
      vertex 6.89888 65.6384 114
      vertex 16.6869 51.3571 128
      vertex 20.3951 62.7697 114
    endloop
  endfacet
  facet normal 0 0 1
    outer loop
      vertex -54 0 128
      vertex -52.82 -11.2272 128
      vertex -49.3315 -21.9638 128
    endloop
  endfacet
  facet normal 0 0 1
    outer loop
      vertex -36.1331 -40.1298 128
      vertex -54 0 128
      vertex -43.6869 -31.7404 128
    endloop
  endfacet
  facet normal 0 0 1
    outer loop
      vertex -43.6869 -31.7404 128
      vertex -54 0 128
      vertex -49.3315 -21.9638 128
    endloop
  endfacet
  facet normal 0 0 1
    outer loop
      vertex -27 -46.7654 128
      vertex -54 0 128
      vertex -36.1331 -40.1298 128
    endloop
  endfacet
  facet normal 0 0 1
    outer loop
      vertex -16.6869 -51.3571 128
      vertex -54 0 128
      vertex -27 -46.7654 128
    endloop
  endfacet
  facet normal 0 0 1
    outer loop
      vertex -5.64454 -53.7042 128
      vertex -54 0 128
      vertex -16.6869 -51.3571 128
    endloop
  endfacet
  facet normal -0 0 1
    outer loop
      vertex 5.64454 -53.7042 128
      vertex -54 0 128
      vertex -5.64454 -53.7042 128
    endloop
  endfacet
  facet normal -0 0 1
    outer loop
      vertex 16.6869 -51.3571 128
      vertex -54 0 128
      vertex 5.64454 -53.7042 128
    endloop
  endfacet
  facet normal -0 0 1
    outer loop
      vertex 27 -46.7654 128
      vertex -54 0 128
      vertex 16.6869 -51.3571 128
    endloop
  endfacet
  facet normal -0 0 1
    outer loop
      vertex 36.1331 -40.1298 128
      vertex -54 0 128
      vertex 27 -46.7654 128
    endloop
  endfacet
  facet normal -0 0 1
    outer loop
      vertex 43.6869 -31.7404 128
      vertex -54 0 128
      vertex 36.1331 -40.1298 128
    endloop
  endfacet
  facet normal -0 0 1
    outer loop
      vertex 49.3315 -21.9638 128
      vertex -54 0 128
      vertex 43.6869 -31.7404 128
    endloop
  endfacet
  facet normal -0 0 1
    outer loop
      vertex 52.82 -11.2272 128
      vertex -54 0 128
      vertex 49.3315 -21.9638 128
    endloop
  endfacet
  facet normal 0 0 1
    outer loop
      vertex 54 0 128
      vertex -54 0 128
      vertex 52.82 -11.2272 128
    endloop
  endfacet
  facet normal 0 -0 1
    outer loop
      vertex 52.82 11.2272 128
      vertex -54 0 128
      vertex 54 0 128
    endloop
  endfacet
  facet normal 0 -0 1
    outer loop
      vertex 49.3315 21.9638 128
      vertex -54 0 128
      vertex 52.82 11.2272 128
    endloop
  endfacet
  facet normal 0 -0 1
    outer loop
      vertex 43.6869 31.7404 128
      vertex -54 0 128
      vertex 49.3315 21.9638 128
    endloop
  endfacet
  facet normal 0 -0 1
    outer loop
      vertex 36.1331 40.1298 128
      vertex -54 0 128
      vertex 43.6869 31.7404 128
    endloop
  endfacet
  facet normal 0 -0 1
    outer loop
      vertex 27 46.7654 128
      vertex -54 0 128
      vertex 36.1331 40.1298 128
    endloop
  endfacet
  facet normal 0 -0 1
    outer loop
      vertex 16.6869 51.3571 128
      vertex -54 0 128
      vertex 27 46.7654 128
    endloop
  endfacet
  facet normal 0 -0 1
    outer loop
      vertex 5.64454 53.7042 128
      vertex -54 0 128
      vertex 16.6869 51.3571 128
    endloop
  endfacet
  facet normal 0 -0 1
    outer loop
      vertex -5.64454 53.7042 128
      vertex -54 0 128
      vertex 5.64454 53.7042 128
    endloop
  endfacet
  facet normal 0 -0 1
    outer loop
      vertex -16.6869 51.3571 128
      vertex -54 0 128
      vertex -5.64454 53.7042 128
    endloop
  endfacet
  facet normal 0 -0 1
    outer loop
      vertex -27 46.7654 128
      vertex -54 0 128
      vertex -16.6869 51.3571 128
    endloop
  endfacet
  facet normal 0 -0 1
    outer loop
      vertex -36.1331 40.1298 128
      vertex -54 0 128
      vertex -27 46.7654 128
    endloop
  endfacet
  facet normal 0 -0 1
    outer loop
      vertex -43.6869 31.7404 128
      vertex -54 0 128
      vertex -36.1331 40.1298 128
    endloop
  endfacet
  facet normal 0 -0 1
    outer loop
      vertex -49.3315 21.9638 128
      vertex -54 0 128
      vertex -43.6869 31.7404 128
    endloop
  endfacet
  facet normal 0 -0 1
    outer loop
      vertex -52.82 11.2272 128
      vertex -54 0 128
      vertex -49.3315 21.9638 128
    endloop
  endfacet
  facet normal 0.158225 0.744389 0.648729
    outer loop
      vertex 5.64454 53.7042 128
      vertex 16.6869 51.3571 128
      vertex 6.89888 65.6384 114
    endloop
  endfacet
  facet normal 0.723773 0.235168 0.648729
    outer loop
      vertex 49.3315 21.9638 128
      vertex 52.82 11.2272 128
      vertex 64.5577 13.7222 114
    endloop
  endfacet
  facet normal -0.659062 0.38051 0.648729
    outer loop
      vertex -60.294 26.8446 114
      vertex -49.3315 21.9638 128
      vertex -53.3951 38.7938 114
    endloop
  endfacet
  facet normal -0.723773 0.235168 0.648729
    outer loop
      vertex -64.5577 13.7222 114
      vertex -49.3315 21.9638 128
      vertex -60.294 26.8446 114
    endloop
  endfacet
  facet normal -0.723773 0.235168 0.648729
    outer loop
      vertex -64.5577 13.7222 114
      vertex -52.82 11.2272 128
      vertex -49.3315 21.9638 128
    endloop
  endfacet
  facet normal -0.756851 0.0795482 0.648729
    outer loop
      vertex -64.5577 13.7222 114
      vertex -54 0 128
      vertex -52.82 11.2272 128
    endloop
  endfacet
  facet normal -0.756851 0.0795482 0.648729
    outer loop
      vertex -66 0 114
      vertex -54 0 128
      vertex -64.5577 13.7222 114
    endloop
  endfacet
  facet normal -0.756851 -0.0795482 0.648729
    outer loop
      vertex -66 0 114
      vertex -64.5577 -13.7222 114
      vertex -54 0 128
    endloop
  endfacet
  facet normal -0.756851 -0.0795482 0.648729
    outer loop
      vertex -64.5577 -13.7222 114
      vertex -52.82 -11.2272 128
      vertex -54 0 128
    endloop
  endfacet
  facet normal -0.723773 -0.235168 0.648729
    outer loop
      vertex -64.5577 -13.7222 114
      vertex -49.3315 -21.9638 128
      vertex -52.82 -11.2272 128
    endloop
  endfacet
  facet normal -0.723773 -0.235168 0.648729
    outer loop
      vertex -64.5577 -13.7222 114
      vertex -60.294 -26.8446 114
      vertex -49.3315 -21.9638 128
    endloop
  endfacet
  facet normal -0.659062 -0.38051 0.648729
    outer loop
      vertex -60.294 -26.8446 114
      vertex -53.3951 -38.7938 114
      vertex -49.3315 -21.9638 128
    endloop
  endfacet
  facet normal -0.659062 -0.38051 0.648729
    outer loop
      vertex -53.3951 -38.7938 114
      vertex -43.6869 -31.7404 128
      vertex -49.3315 -21.9638 128
    endloop
  endfacet
  facet normal -0.565548 -0.509221 0.648729
    outer loop
      vertex -53.3951 -38.7938 114
      vertex -36.1331 -40.1298 128
      vertex -43.6869 -31.7404 128
    endloop
  endfacet
  facet normal -0.565548 -0.509221 0.648729
    outer loop
      vertex -53.3951 -38.7938 114
      vertex -44.1626 -49.0476 114
      vertex -36.1331 -40.1298 128
    endloop
  endfacet
  facet normal -0.447316 -0.615678 0.648729
    outer loop
      vertex -44.1626 -49.0476 114
      vertex -33 -57.1577 114
      vertex -36.1331 -40.1298 128
    endloop
  endfacet
  facet normal -0.447316 -0.615678 0.648729
    outer loop
      vertex -36.1331 -40.1298 128
      vertex -33 -57.1577 114
      vertex -27 -46.7654 128
    endloop
  endfacet
  facet normal -0.309535 -0.695226 0.648729
    outer loop
      vertex -33 -57.1577 114
      vertex -16.6869 -51.3571 128
      vertex -27 -46.7654 128
    endloop
  endfacet
  facet normal -0.309534 -0.695226 0.648729
    outer loop
      vertex -33 -57.1577 114
      vertex -20.3951 -62.7697 114
      vertex -16.6869 -51.3571 128
    endloop
  endfacet
  facet normal -0.158225 -0.744389 0.648729
    outer loop
      vertex -20.3951 -62.7697 114
      vertex -6.89888 -65.6384 114
      vertex -16.6869 -51.3571 128
    endloop
  endfacet
  facet normal -0.158225 -0.744389 0.648729
    outer loop
      vertex -16.6869 -51.3571 128
      vertex -6.89888 -65.6384 114
      vertex -5.64454 -53.7042 128
    endloop
  endfacet
  facet normal 0 -0.761019 0.648729
    outer loop
      vertex -6.89888 -65.6384 114
      vertex 6.89888 -65.6384 114
      vertex 5.64454 -53.7042 128
    endloop
  endfacet
  facet normal 0 -0.761019 0.648729
    outer loop
      vertex -5.64454 -53.7042 128
      vertex -6.89888 -65.6384 114
      vertex 5.64454 -53.7042 128
    endloop
  endfacet
  facet normal 0.158225 -0.744389 0.648729
    outer loop
      vertex 5.64454 -53.7042 128
      vertex 6.89888 -65.6384 114
      vertex 16.6869 -51.3571 128
    endloop
  endfacet
  facet normal 0.158225 -0.744389 0.648729
    outer loop
      vertex 6.89888 -65.6384 114
      vertex 20.3951 -62.7697 114
      vertex 16.6869 -51.3571 128
    endloop
  endfacet
  facet normal 0.309534 -0.695226 0.648729
    outer loop
      vertex 16.6869 -51.3571 128
      vertex 20.3951 -62.7697 114
      vertex 33 -57.1577 114
    endloop
  endfacet
  facet normal 0.309535 -0.695226 0.648729
    outer loop
      vertex 16.6869 -51.3571 128
      vertex 33 -57.1577 114
      vertex 27 -46.7654 128
    endloop
  endfacet
  facet normal 0.447316 -0.615678 0.648729
    outer loop
      vertex 27 -46.7654 128
      vertex 33 -57.1577 114
      vertex 36.1331 -40.1298 128
    endloop
  endfacet
  facet normal 0.447316 -0.615678 0.648729
    outer loop
      vertex 33 -57.1577 114
      vertex 44.1626 -49.0476 114
      vertex 36.1331 -40.1298 128
    endloop
  endfacet
  facet normal 0.565548 -0.509221 0.648729
    outer loop
      vertex 36.1331 -40.1298 128
      vertex 44.1626 -49.0476 114
      vertex 53.3951 -38.7938 114
    endloop
  endfacet
  facet normal 0.565548 -0.509221 0.648729
    outer loop
      vertex 36.1331 -40.1298 128
      vertex 53.3951 -38.7938 114
      vertex 43.6869 -31.7404 128
    endloop
  endfacet
  facet normal 0.659062 -0.38051 0.648729
    outer loop
      vertex 43.6869 -31.7404 128
      vertex 53.3951 -38.7938 114
      vertex 49.3315 -21.9638 128
    endloop
  endfacet
  facet normal 0.659062 -0.38051 0.648729
    outer loop
      vertex 49.3315 -21.9638 128
      vertex 53.3951 -38.7938 114
      vertex 60.294 -26.8446 114
    endloop
  endfacet
  facet normal 0.723773 -0.235168 0.648729
    outer loop
      vertex 49.3315 -21.9638 128
      vertex 60.294 -26.8446 114
      vertex 64.5577 -13.7222 114
    endloop
  endfacet
  facet normal 0.756851 -0.0795482 0.648729
    outer loop
      vertex 54 0 128
      vertex 64.5577 -13.7222 114
      vertex 66 0 114
    endloop
  endfacet
  facet normal 0.723773 -0.235168 0.648729
    outer loop
      vertex 49.3315 -21.9638 128
      vertex 64.5577 -13.7222 114
      vertex 52.82 -11.2272 128
    endloop
  endfacet
  facet normal 0.756851 -0.0795482 0.648729
    outer loop
      vertex 52.82 -11.2272 128
      vertex 64.5577 -13.7222 114
      vertex 54 0 128
    endloop
  endfacet
  facet normal 0.756851 0.0795482 0.648729
    outer loop
      vertex 54 0 128
      vertex 66 0 114
      vertex 64.5577 13.7222 114
    endloop
  endfacet
  facet normal 0.756851 0.0795482 0.648729
    outer loop
      vertex 52.82 11.2272 128
      vertex 54 0 128
      vertex 64.5577 13.7222 114
    endloop
  endfacet
  facet normal 0 0.761019 0.648729
    outer loop
      vertex -5.64454 53.7042 128
      vertex 5.64454 53.7042 128
      vertex -6.89888 65.6384 114
    endloop
  endfacet
  facet normal 0 0.761019 0.648729
    outer loop
      vertex -6.89888 65.6384 114
      vertex 5.64454 53.7042 128
      vertex 6.89888 65.6384 114
    endloop
  endfacet
  facet normal -0.158225 0.744389 0.648729
    outer loop
      vertex -16.6869 51.3571 128
      vertex -5.64454 53.7042 128
      vertex -6.89888 65.6384 114
    endloop
  endfacet
  facet normal -0.158225 0.744389 0.648729
    outer loop
      vertex -20.3951 62.7697 114
      vertex -16.6869 51.3571 128
      vertex -6.89888 65.6384 114
    endloop
  endfacet
  facet normal -0.309534 0.695226 0.648729
    outer loop
      vertex -33 57.1577 114
      vertex -16.6869 51.3571 128
      vertex -20.3951 62.7697 114
    endloop
  endfacet
  facet normal -0.309535 0.695226 0.648729
    outer loop
      vertex -33 57.1577 114
      vertex -27 46.7654 128
      vertex -16.6869 51.3571 128
    endloop
  endfacet
  facet normal -0.447316 0.615678 0.648729
    outer loop
      vertex -36.1331 40.1298 128
      vertex -27 46.7654 128
      vertex -33 57.1577 114
    endloop
  endfacet
  facet normal -0.447316 0.615678 0.648729
    outer loop
      vertex -44.1626 49.0476 114
      vertex -36.1331 40.1298 128
      vertex -33 57.1577 114
    endloop
  endfacet
  facet normal -0.565548 0.509221 0.648729
    outer loop
      vertex -53.3951 38.7938 114
      vertex -36.1331 40.1298 128
      vertex -44.1626 49.0476 114
    endloop
  endfacet
  facet normal -0.659062 0.38051 0.648729
    outer loop
      vertex -53.3951 38.7938 114
      vertex -49.3315 21.9638 128
      vertex -43.6869 31.7404 128
    endloop
  endfacet
  facet normal -0.565548 0.509221 0.648729
    outer loop
      vertex -53.3951 38.7938 114
      vertex -43.6869 31.7404 128
      vertex -36.1331 40.1298 128
    endloop
  endfacet
endsolid OpenSCAD_Model
