solid OpenSCAD_Model
  facet normal -0.279982 -0.861692 -0.423199
    outer loop
      vertex 0.077254 -0.237764 -0.433013
      vertex -0.404508 -0.293893 0
      vertex -0.202254 -0.146946 -0.433013
    endloop
  endfacet
  facet normal -0.906038 -0 -0.423197
    outer loop
      vertex -0.404508 -0.293893 0
      vertex -0.404508 0.293893 0
      vertex -0.202254 -0.146946 -0.433013
    endloop
  endfacet
  facet normal -0.906038 -0 -0.423197
    outer loop
      vertex -0.202254 -0.146946 -0.433013
      vertex -0.404508 0.293893 0
      vertex -0.202254 0.146946 -0.433013
    endloop
  endfacet
  facet normal -0.906038 0 0.423197
    outer loop
      vertex -0.404508 -0.293893 0
      vertex -0.202254 -0.146946 0.433013
      vertex -0.404508 0.293893 0
    endloop
  endfacet
  facet normal -0.906038 0 0.423197
    outer loop
      vertex -0.404508 0.293893 0
      vertex -0.202254 -0.146946 0.433013
      vertex -0.202254 0.146946 0.433013
    endloop
  endfacet
  facet normal -0.279982 -0.861692 0.423199
    outer loop
      vertex -0.202254 -0.146946 0.433013
      vertex -0.404508 -0.293893 0
      vertex 0.077254 -0.237764 0.433013
    endloop
  endfacet
  facet normal -0.279981 -0.861693 0.423197
    outer loop
      vertex 0.077254 -0.237764 0.433013
      vertex -0.404508 -0.293893 0
      vertex 0.154508 -0.475528 0
    endloop
  endfacet
  facet normal -0.279981 -0.861693 -0.423197
    outer loop
      vertex 0.154508 -0.475528 0
      vertex -0.404508 -0.293893 0
      vertex 0.077254 -0.237764 -0.433013
    endloop
  endfacet
  facet normal -0.183371 -0.875124 -0.447809
    outer loop
      vertex 0.154508 -0.475528 0
      vertex 0.077254 -0.237764 -0.433013
      vertex 143.5 -30 -1
    endloop
  endfacet
  facet normal -0.0516876 -0.230569 -0.971682
    outer loop
      vertex 143.5 -30 -1
      vertex 0.077254 -0.237764 -0.433013
      vertex 143.5 -0.5 -8
    endloop
  endfacet
  facet normal -0.0522934 -0.160942 -0.985578
    outer loop
      vertex 0.077254 -0.237764 -0.433013
      vertex -0.202254 -0.146946 -0.433013
      vertex 143.5 -0.5 -8
    endloop
  endfacet
  facet normal -0.0525845 -0 -0.998616
    outer loop
      vertex -0.202254 -0.146946 -0.433013
      vertex -0.202254 0.146946 -0.433013
      vertex 143.5 -0.5 -8
    endloop
  endfacet
  facet normal -0.0525845 -0 -0.998616
    outer loop
      vertex 143.5 -0.5 -8
      vertex -0.202254 0.146946 -0.433013
      vertex 143.5 0.5 -8
    endloop
  endfacet
  facet normal -0.0522934 0.160942 -0.985578
    outer loop
      vertex 143.5 0.5 -8
      vertex -0.202254 0.146946 -0.433013
      vertex 0.077254 0.237764 -0.433013
    endloop
  endfacet
  facet normal -0.279982 0.861692 -0.423199
    outer loop
      vertex -0.202254 0.146946 -0.433013
      vertex -0.404508 0.293893 0
      vertex 0.077254 0.237764 -0.433013
    endloop
  endfacet
  facet normal -0.279981 0.861693 -0.423197
    outer loop
      vertex 0.077254 0.237764 -0.433013
      vertex -0.404508 0.293893 0
      vertex 0.154508 0.475528 0
    endloop
  endfacet
  facet normal -0.279981 0.861693 0.423197
    outer loop
      vertex 0.154508 0.475528 0
      vertex -0.404508 0.293893 0
      vertex 0.077254 0.237764 0.433013
    endloop
  endfacet
  facet normal -0.279982 0.861692 0.423199
    outer loop
      vertex 0.077254 0.237764 0.433013
      vertex -0.404508 0.293893 0
      vertex -0.202254 0.146946 0.433013
    endloop
  endfacet
  facet normal -0.0522934 0.160942 0.985578
    outer loop
      vertex 0.077254 0.237764 0.433013
      vertex -0.202254 0.146946 0.433013
      vertex 143.5 0.5 8
    endloop
  endfacet
  facet normal -0.0525845 0 0.998616
    outer loop
      vertex -0.202254 0.146946 0.433013
      vertex -0.202254 -0.146946 0.433013
      vertex 143.5 -0.5 8
    endloop
  endfacet
  facet normal -0.0525845 0 0.998616
    outer loop
      vertex 143.5 0.5 8
      vertex -0.202254 0.146946 0.433013
      vertex 143.5 -0.5 8
    endloop
  endfacet
  facet normal -0.0522934 -0.160942 0.985578
    outer loop
      vertex 143.5 -0.5 8
      vertex -0.202254 -0.146946 0.433013
      vertex 0.077254 -0.237764 0.433013
    endloop
  endfacet
  facet normal -0.183371 -0.875124 0.447809
    outer loop
      vertex 143.5 -30 1
      vertex 0.077254 -0.237764 0.433013
      vertex 0.154508 -0.475528 0
    endloop
  endfacet
  facet normal -0.0516876 -0.230569 0.971682
    outer loop
      vertex 143.5 -0.5 8
      vertex 0.077254 -0.237764 0.433013
      vertex 143.5 -30 1
    endloop
  endfacet
  facet normal -0.201733 -0.979441 0
    outer loop
      vertex 143.5 -30 1
      vertex 0.154508 -0.475528 0
      vertex 143.5 -30 -1
    endloop
  endfacet
  facet normal 0 -1 0
    outer loop
      vertex 143.5 -30 1
      vertex 143.5 -30 -1
      vertex 144.5 -30 -1
    endloop
  endfacet
  facet normal 0 -1 0
    outer loop
      vertex 144.5 -30 1
      vertex 143.5 -30 1
      vertex 144.5 -30 -1
    endloop
  endfacet
  facet normal -0 -0.230877 -0.972983
    outer loop
      vertex 143.5 -30 -1
      vertex 143.5 -0.5 -8
      vertex 144.5 -30 -1
    endloop
  endfacet
  facet normal 0 -0.230877 -0.972983
    outer loop
      vertex 144.5 -30 -1
      vertex 143.5 -0.5 -8
      vertex 144.5 -0.5 -8
    endloop
  endfacet
  facet normal -0 -0 -1
    outer loop
      vertex 143.5 -0.5 -8
      vertex 143.5 0.5 -8
      vertex 144.5 -0.5 -8
    endloop
  endfacet
  facet normal 0 0 -1
    outer loop
      vertex 144.5 -0.5 -8
      vertex 143.5 0.5 -8
      vertex 144.5 0.5 -8
    endloop
  endfacet
  facet normal 0 0.230877 -0.972983
    outer loop
      vertex 143.5 0.5 -8
      vertex 143.5 30 -1
      vertex 144.5 0.5 -8
    endloop
  endfacet
  facet normal 0 0.230877 -0.972983
    outer loop
      vertex 144.5 0.5 -8
      vertex 143.5 30 -1
      vertex 144.5 30 -1
    endloop
  endfacet
  facet normal -0.0516876 0.230569 -0.971682
    outer loop
      vertex 143.5 0.5 -8
      vertex 0.077254 0.237764 -0.433013
      vertex 143.5 30 -1
    endloop
  endfacet
  facet normal -0.183371 0.875124 -0.447809
    outer loop
      vertex 143.5 30 -1
      vertex 0.077254 0.237764 -0.433013
      vertex 0.154508 0.475528 0
    endloop
  endfacet
  facet normal -0.183371 0.875124 0.447809
    outer loop
      vertex 0.154508 0.475528 0
      vertex 0.077254 0.237764 0.433013
      vertex 143.5 30 1
    endloop
  endfacet
  facet normal -0.201733 0.979441 0
    outer loop
      vertex 143.5 30 -1
      vertex 0.154508 0.475528 0
      vertex 143.5 30 1
    endloop
  endfacet
  facet normal -0.0516876 0.230569 0.971682
    outer loop
      vertex 143.5 30 1
      vertex 0.077254 0.237764 0.433013
      vertex 143.5 0.5 8
    endloop
  endfacet
  facet normal 0 -0 1
    outer loop
      vertex 143.5 0.5 8
      vertex 143.5 -0.5 8
      vertex 144.5 -0.5 8
    endloop
  endfacet
  facet normal 0 0 1
    outer loop
      vertex 144.5 0.5 8
      vertex 143.5 0.5 8
      vertex 144.5 -0.5 8
    endloop
  endfacet
  facet normal 0 0.230877 0.972983
    outer loop
      vertex 143.5 30 1
      vertex 143.5 0.5 8
      vertex 144.5 0.5 8
    endloop
  endfacet
  facet normal -0 0.230877 0.972983
    outer loop
      vertex 144.5 30 1
      vertex 143.5 30 1
      vertex 144.5 0.5 8
    endloop
  endfacet
  facet normal 0 -0.230877 0.972983
    outer loop
      vertex 143.5 -0.5 8
      vertex 143.5 -30 1
      vertex 144.5 -30 1
    endloop
  endfacet
  facet normal 0 -0.230877 0.972983
    outer loop
      vertex 144.5 -0.5 8
      vertex 143.5 -0.5 8
      vertex 144.5 -30 1
    endloop
  endfacet
  facet normal 0.132694 -0.228836 0.964379
    outer loop
      vertex 144.5 -0.5 8
      vertex 144.5 -30 1
      vertex 170 -17.3205 0.5
    endloop
  endfacet
  facet normal 0.445232 -0.895415 0
    outer loop
      vertex 144.5 -30 1
      vertex 144.5 -30 -1
      vertex 170 -17.3205 -0.5
    endloop
  endfacet
  facet normal 0.445232 -0.895415 0
    outer loop
      vertex 170 -17.3205 0.5
      vertex 144.5 -30 1
      vertex 170 -17.3205 -0.5
    endloop
  endfacet
  facet normal 0.132694 -0.228836 -0.964379
    outer loop
      vertex 170 -17.3205 -0.5
      vertex 144.5 -30 -1
      vertex 144.5 -0.5 -8
    endloop
  endfacet
  facet normal 0.174355 -0.15699 -0.972088
    outer loop
      vertex 171.457 -13.9054 -1
      vertex 144.5 -0.5 -8
      vertex 174.068 -11.0053 -1
    endloop
  endfacet
  facet normal 0.191577 -0.110607 -0.975225
    outer loop
      vertex 174.068 -11.0053 -1
      vertex 144.5 -0.5 -8
      vertex 176.02 -7.62575 -1
    endloop
  endfacet
  facet normal 0.20216 -0.0656856 -0.977147
    outer loop
      vertex 176.02 -7.62575 -1
      vertex 144.5 -0.5 -8
      vertex 177.225 -3.91435 -1
    endloop
  endfacet
  facet normal 0.206949 -0.0217512 -0.97811
    outer loop
      vertex 177.225 -3.91435 -1
      vertex 144.5 -0.5 -8
      vertex 177.633 -0.0333333 -1
    endloop
  endfacet
  facet normal 0.206705 0 -0.978403
    outer loop
      vertex 144.5 -0.5 -8
      vertex 144.5 0.5 -8
      vertex 177.633 -0.0333333 -1
    endloop
  endfacet
  facet normal 0.206705 0 -0.978403
    outer loop
      vertex 177.633 -0.0333333 -1
      vertex 144.5 0.5 -8
      vertex 177.633 0.0333333 -1
    endloop
  endfacet
  facet normal 0.149115 -0.205239 -0.967286
    outer loop
      vertex 144.5 -0.5 -8
      vertex 169.95 -15 -1
      vertex 170 -17.3205 -0.5
    endloop
  endfacet
  facet normal 0.149115 -0.205239 -0.967286
    outer loop
      vertex 144.5 -0.5 -8
      vertex 171.457 -13.9054 -1
      vertex 169.95 -15 -1
    endloop
  endfacet
  facet normal 0.149115 -0.205239 -0.967286
    outer loop
      vertex 173.194 -15 -0.5
      vertex 170 -17.3205 -0.5
      vertex 169.95 -15 -1
    endloop
  endfacet
  facet normal 0.20216 0.0656856 -0.977147
    outer loop
      vertex 177.225 3.91435 -1
      vertex 144.5 0.5 -8
      vertex 176.02 7.62575 -1
    endloop
  endfacet
  facet normal 0.191577 0.110607 -0.975225
    outer loop
      vertex 176.02 7.62575 -1
      vertex 144.5 0.5 -8
      vertex 174.068 11.0053 -1
    endloop
  endfacet
  facet normal 0.174355 0.15699 -0.972088
    outer loop
      vertex 174.068 11.0053 -1
      vertex 144.5 0.5 -8
      vertex 171.457 13.9054 -1
    endloop
  endfacet
  facet normal 0.149115 0.205239 -0.967286
    outer loop
      vertex 144.5 0.5 -8
      vertex 170 17.3205 -0.5
      vertex 169.95 15 -1
    endloop
  endfacet
  facet normal 0.149115 0.205239 -0.967286
    outer loop
      vertex 144.5 0.5 -8
      vertex 169.95 15 -1
      vertex 171.457 13.9054 -1
    endloop
  endfacet
  facet normal 0.149115 0.205239 -0.967286
    outer loop
      vertex 169.95 15 -1
      vertex 170 17.3205 -0.5
      vertex 173.194 15 -0.5
    endloop
  endfacet
  facet normal 0.132694 0.228836 -0.964379
    outer loop
      vertex 170 17.3205 -0.5
      vertex 144.5 0.5 -8
      vertex 144.5 30 -1
    endloop
  endfacet
  facet normal 0.206949 0.0217512 -0.97811
    outer loop
      vertex 177.633 0.0333333 -1
      vertex 144.5 0.5 -8
      vertex 177.225 3.91435 -1
    endloop
  endfacet
  facet normal 0.445232 0.895415 0
    outer loop
      vertex 144.5 30 -1
      vertex 144.5 30 1
      vertex 170 17.3205 -0.5
    endloop
  endfacet
  facet normal 0.445232 0.895415 0
    outer loop
      vertex 170 17.3205 -0.5
      vertex 144.5 30 1
      vertex 170 17.3205 0.5
    endloop
  endfacet
  facet normal 0 1 0
    outer loop
      vertex 143.5 30 -1
      vertex 143.5 30 1
      vertex 144.5 30 -1
    endloop
  endfacet
  facet normal 0 1 0
    outer loop
      vertex 144.5 30 -1
      vertex 143.5 30 1
      vertex 144.5 30 1
    endloop
  endfacet
  facet normal 0.20216 0.0656856 0.977147
    outer loop
      vertex 176.02 7.62575 1
      vertex 144.5 0.5 8
      vertex 177.225 3.91435 1
    endloop
  endfacet
  facet normal 0.206949 0.0217512 0.97811
    outer loop
      vertex 177.225 3.91435 1
      vertex 144.5 0.5 8
      vertex 177.633 0.0333333 1
    endloop
  endfacet
  facet normal 0.206705 -0 0.978403
    outer loop
      vertex 144.5 0.5 8
      vertex 144.5 -0.5 8
      vertex 177.633 -0.0333333 1
    endloop
  endfacet
  facet normal 0.206705 -0 0.978403
    outer loop
      vertex 177.633 0.0333333 1
      vertex 144.5 0.5 8
      vertex 177.633 -0.0333333 1
    endloop
  endfacet
  facet normal 0.132694 0.228836 0.964379
    outer loop
      vertex 144.5 30 1
      vertex 144.5 0.5 8
      vertex 170 17.3205 0.5
    endloop
  endfacet
  facet normal 0.149115 0.205239 0.967286
    outer loop
      vertex 169.95 15 1
      vertex 144.5 0.5 8
      vertex 171.457 13.9054 1
    endloop
  endfacet
  facet normal 0.149115 0.205239 0.967286
    outer loop
      vertex 170 17.3205 0.5
      vertex 144.5 0.5 8
      vertex 169.95 15 1
    endloop
  endfacet
  facet normal 0.149115 0.205239 0.967286
    outer loop
      vertex 169.95 15 1
      vertex 173.194 15 0.5
      vertex 170 17.3205 0.5
    endloop
  endfacet
  facet normal 0.174355 0.15699 0.972088
    outer loop
      vertex 171.457 13.9054 1
      vertex 144.5 0.5 8
      vertex 174.068 11.0053 1
    endloop
  endfacet
  facet normal 0.191577 0.110607 0.975225
    outer loop
      vertex 174.068 11.0053 1
      vertex 144.5 0.5 8
      vertex 176.02 7.62575 1
    endloop
  endfacet
  facet normal 0.206949 -0.0217512 0.97811
    outer loop
      vertex 177.633 -0.0333333 1
      vertex 144.5 -0.5 8
      vertex 177.225 -3.91435 1
    endloop
  endfacet
  facet normal 0.20216 -0.0656856 0.977147
    outer loop
      vertex 177.225 -3.91435 1
      vertex 144.5 -0.5 8
      vertex 176.02 -7.62575 1
    endloop
  endfacet
  facet normal 0.191577 -0.110607 0.975225
    outer loop
      vertex 176.02 -7.62575 1
      vertex 144.5 -0.5 8
      vertex 174.068 -11.0053 1
    endloop
  endfacet
  facet normal 0.174355 -0.15699 0.972088
    outer loop
      vertex 174.068 -11.0053 1
      vertex 144.5 -0.5 8
      vertex 171.457 -13.9054 1
    endloop
  endfacet
  facet normal 0.149115 -0.205239 0.967286
    outer loop
      vertex 169.95 -15 1
      vertex 144.5 -0.5 8
      vertex 170 -17.3205 0.5
    endloop
  endfacet
  facet normal 0.149115 -0.205239 0.967286
    outer loop
      vertex 171.457 -13.9054 1
      vertex 144.5 -0.5 8
      vertex 169.95 -15 1
    endloop
  endfacet
  facet normal 0.149115 -0.205239 0.967286
    outer loop
      vertex 173.194 -15 0.5
      vertex 169.95 -15 1
      vertex 170 -17.3205 0.5
    endloop
  endfacet
  facet normal 0.587785 -0.809017 0
    outer loop
      vertex 170 -17.3205 0.5
      vertex 170 -17.3205 -0.5
      vertex 173.194 -15 -0.5
    endloop
  endfacet
  facet normal 0.587785 -0.809017 0
    outer loop
      vertex 173.194 -15 0.5
      vertex 170 -17.3205 0.5
      vertex 173.194 -15 -0.5
    endloop
  endfacet
  facet normal -0 0 -1
    outer loop
      vertex 169.95 -15 -1
      vertex 171.457 -13.9054 -1
      vertex 202.5 -15 -1
    endloop
  endfacet
  facet normal 0 0 -1
    outer loop
      vertex 202.5 -15 -1
      vertex 171.457 -13.9054 -1
      vertex 174.068 -11.0053 -1
    endloop
  endfacet
  facet normal -0 0 -1
    outer loop
      vertex 174.068 -11.0053 -1
      vertex 176.02 -7.62575 -1
      vertex 202.5 -15 -1
    endloop
  endfacet
  facet normal -0 0 -1
    outer loop
      vertex 176.02 -7.62575 -1
      vertex 177.225 -3.91435 -1
      vertex 202.5 -15 -1
    endloop
  endfacet
  facet normal -0 0 -1
    outer loop
      vertex 177.225 -3.91435 -1
      vertex 177.633 -0.0333333 -1
      vertex 202.5 -15 -1
    endloop
  endfacet
  facet normal -0 -0 -1
    outer loop
      vertex 177.633 -0.0333333 -1
      vertex 177.633 0.0333333 -1
      vertex 202.5 -15 -1
    endloop
  endfacet
  facet normal -0 -0 -1
    outer loop
      vertex 177.633 0.0333333 -1
      vertex 177.225 3.91435 -1
      vertex 202.5 -15 -1
    endloop
  endfacet
  facet normal -0 -0 -1
    outer loop
      vertex 177.225 3.91435 -1
      vertex 176.02 7.62575 -1
      vertex 202.5 -15 -1
    endloop
  endfacet
  facet normal -0 -0 -1
    outer loop
      vertex 176.02 7.62575 -1
      vertex 174.068 11.0053 -1
      vertex 202.5 -15 -1
    endloop
  endfacet
  facet normal -0 -0 -1
    outer loop
      vertex 174.068 11.0053 -1
      vertex 171.457 13.9054 -1
      vertex 202.5 -15 -1
    endloop
  endfacet
  facet normal 0 -0 -1
    outer loop
      vertex 171.457 13.9054 -1
      vertex 169.95 15 -1
      vertex 202.5 15 -1
    endloop
  endfacet
  facet normal -0 0 -1
    outer loop
      vertex 171.457 13.9054 -1
      vertex 202.5 15 -1
      vertex 202.5 -15 -1
    endloop
  endfacet
  facet normal 0 -1 0
    outer loop
      vertex 173.194 -15 -0.5
      vertex 169.95 -15 -1
      vertex 202.5 -15 -1
    endloop
  endfacet
  facet normal -0 -1 0
    outer loop
      vertex 173.194 -15 0.5
      vertex 173.194 -15 -0.5
      vertex 202.5 -15 1
    endloop
  endfacet
  facet normal 0 -1 0
    outer loop
      vertex 202.5 -15 1
      vertex 173.194 -15 -0.5
      vertex 202.5 -15 -1
    endloop
  endfacet
  facet normal 0 -1 0
    outer loop
      vertex 169.95 -15 1
      vertex 173.194 -15 0.5
      vertex 202.5 -15 1
    endloop
  endfacet
  facet normal 0 1 0
    outer loop
      vertex 169.95 15 -1
      vertex 173.194 15 -0.5
      vertex 202.5 15 -1
    endloop
  endfacet
  facet normal 0 1 0
    outer loop
      vertex 202.5 15 -1
      vertex 173.194 15 -0.5
      vertex 173.194 15 0.5
    endloop
  endfacet
  facet normal 0 1 0
    outer loop
      vertex 173.194 15 0.5
      vertex 169.95 15 1
      vertex 202.5 15 -1
    endloop
  endfacet
  facet normal 0 1 0
    outer loop
      vertex 202.5 15 -1
      vertex 169.95 15 1
      vertex 202.5 15 1
    endloop
  endfacet
  facet normal 0.587785 0.809017 0
    outer loop
      vertex 170 17.3205 -0.5
      vertex 170 17.3205 0.5
      vertex 173.194 15 -0.5
    endloop
  endfacet
  facet normal 0.587785 0.809017 0
    outer loop
      vertex 173.194 15 -0.5
      vertex 170 17.3205 0.5
      vertex 173.194 15 0.5
    endloop
  endfacet
  facet normal 0 -0 1
    outer loop
      vertex 171.457 -13.9054 1
      vertex 169.95 -15 1
      vertex 202.5 -15 1
    endloop
  endfacet
  facet normal 0 0 1
    outer loop
      vertex 202.5 15 1
      vertex 171.457 -13.9054 1
      vertex 202.5 -15 1
    endloop
  endfacet
  facet normal 0 0 1
    outer loop
      vertex 171.457 13.9054 1
      vertex 202.5 15 1
      vertex 169.95 15 1
    endloop
  endfacet
  facet normal 0 0 1
    outer loop
      vertex 174.068 11.0053 1
      vertex 202.5 15 1
      vertex 171.457 13.9054 1
    endloop
  endfacet
  facet normal 0 0 1
    outer loop
      vertex 176.02 7.62575 1
      vertex 202.5 15 1
      vertex 174.068 11.0053 1
    endloop
  endfacet
  facet normal 0 0 1
    outer loop
      vertex 177.225 3.91435 1
      vertex 202.5 15 1
      vertex 176.02 7.62575 1
    endloop
  endfacet
  facet normal 0 0 1
    outer loop
      vertex 177.633 0.0333333 1
      vertex 202.5 15 1
      vertex 177.225 3.91435 1
    endloop
  endfacet
  facet normal 0 0 1
    outer loop
      vertex 177.633 -0.0333333 1
      vertex 202.5 15 1
      vertex 177.633 0.0333333 1
    endloop
  endfacet
  facet normal 0 0 1
    outer loop
      vertex 177.225 -3.91435 1
      vertex 202.5 15 1
      vertex 177.633 -0.0333333 1
    endloop
  endfacet
  facet normal 0 0 1
    outer loop
      vertex 176.02 -7.62575 1
      vertex 202.5 15 1
      vertex 177.225 -3.91435 1
    endloop
  endfacet
  facet normal 0 0 1
    outer loop
      vertex 174.068 -11.0053 1
      vertex 202.5 15 1
      vertex 176.02 -7.62575 1
    endloop
  endfacet
  facet normal 0 -0 1
    outer loop
      vertex 174.068 -11.0053 1
      vertex 171.457 -13.9054 1
      vertex 202.5 15 1
    endloop
  endfacet
  facet normal 1 0 -0
    outer loop
      vertex 202.5 -15 1
      vertex 202.5 -15 -1
      vertex 202.5 15 -1
    endloop
  endfacet
  facet normal 1 0 0
    outer loop
      vertex 202.5 15 1
      vertex 202.5 -15 1
      vertex 202.5 15 -1
    endloop
  endfacet
endsolid OpenSCAD_Model
