solid SpearTip (Cut 2)
 facet normal -0.037396 0.114654 0.992701
  outer loop
   vertex 0.076744 0.238000 0.434000
   vertex -0.202255 0.147000 0.434000
   vertex 23.722744 0.236000 1.325000
  endloop
 endfacet
 facet normal -0.037216 0.000000 0.999307
  outer loop
   vertex 23.722744 -0.235000 1.325000
   vertex 23.722744 -0.161000 1.325000
   vertex -0.202255 -0.146000 0.434000
  endloop
 endfacet
 facet normal -0.037214 0.000000 0.999307
  outer loop
   vertex 95.499748 -0.499000 4.000000
   vertex 95.499748 0.501000 4.000000
   vertex 71.573746 0.162000 3.109000
  endloop
 endfacet
 facet normal -0.037396 -0.114654 0.992701
  outer loop
   vertex 0.076744 -0.237000 0.434000
   vertex 23.722744 -0.235000 1.325000
   vertex -0.202255 -0.146000 0.434000
  endloop
 endfacet
 facet normal -0.036921 -0.234481 0.971419
  outer loop
   vertex 95.499748 -14.999001 0.500000
   vertex 95.499748 -0.499000 4.000000
   vertex 71.643745 -4.059000 2.234000
  endloop
 endfacet
 facet normal -0.150589 0.988596 0.000000
  outer loop
   vertex 71.662743 11.369000 0.125000
   vertex 71.662743 11.369000 0.375000
   vertex 95.499748 15.000001 0.500000
  endloop
 endfacet
 facet normal -0.036930 0.234480 0.971419
  outer loop
   vertex 71.643745 4.060000 2.234000
   vertex 71.643745 0.435000 3.109000
   vertex 95.499748 0.501000 4.000000
  endloop
 endfacet
 facet normal 0.000000 0.000000 1.000000
  outer loop
   vertex 95.499748 0.501000 4.000000
   vertex 95.499748 -0.499000 4.000000
   vertex 96.499748 -0.499000 4.000000
  endloop
 endfacet
 facet normal 0.000000 0.000000 1.000000
  outer loop
   vertex 96.499748 0.501000 4.000000
   vertex 95.499748 0.501000 4.000000
   vertex 96.499748 -0.499000 4.000000
  endloop
 endfacet
 facet normal 0.000000 0.234656 0.972079
  outer loop
   vertex 95.499748 15.000001 0.500000
   vertex 95.499748 0.501000 4.000000
   vertex 96.499748 0.501000 4.000000
  endloop
 endfacet
 facet normal 0.000000 0.234656 0.972079
  outer loop
   vertex 96.499748 15.000001 0.500000
   vertex 95.499748 15.000001 0.500000
   vertex 96.499748 0.501000 4.000000
  endloop
 endfacet
 facet normal 0.000000 -0.234641 0.972082
  outer loop
   vertex 95.499748 -0.499000 4.000000
   vertex 95.499748 -14.999001 0.500000
   vertex 96.499748 -14.999001 0.500000
  endloop
 endfacet
 facet normal 0.000000 -0.234641 0.972082
  outer loop
   vertex 96.499748 -0.499000 4.000000
   vertex 95.499748 -0.499000 4.000000
   vertex 96.499748 -14.999001 0.500000
  endloop
 endfacet
 facet normal 0.077401 -0.233937 0.969166
  outer loop
   vertex 96.499748 -0.499000 4.000000
   vertex 96.499748 -14.999001 0.500000
   vertex 113.089752 -9.510000 0.500000
  endloop
 endfacet
 facet normal 0.130369 0.117365 0.984495
  outer loop
   vertex 116.690750 7.432000 0.500000
   vertex 96.499748 0.501000 4.000000
   vertex 118.089752 5.878000 0.500000
  endloop
 endfacet
 facet normal 0.139874 0.080743 0.986872
  outer loop
   vertex 118.596748 5.000000 0.500000
   vertex 96.499748 0.501000 4.000000
   vertex 119.134750 4.068000 0.500000
  endloop
 endfacet
 facet normal 0.139869 0.080766 0.986871
  outer loop
   vertex 118.089752 5.878000 0.500000
   vertex 96.499748 0.501000 4.000000
   vertex 118.596748 5.000000 0.500000
  endloop
 endfacet
 facet normal 0.145367 0.047237 0.988250
  outer loop
   vertex 119.134750 4.068000 0.500000
   vertex 96.499748 0.501000 4.000000
   vertex 119.780746 2.080000 0.500000
  endloop
 endfacet
 facet normal 0.147617 0.015550 0.988922
  outer loop
   vertex 119.780746 2.080000 0.500000
   vertex 96.499748 0.501000 4.000000
   vertex 119.999748 0.001000 0.500000
  endloop
 endfacet
 facet normal 0.147311 0.000000 0.989090
  outer loop
   vertex 96.499748 0.501000 4.000000
   vertex 96.499748 -0.499000 4.000000
   vertex 119.999748 0.001000 0.500000
  endloop
 endfacet
 facet normal 0.077406 0.233952 0.969162
  outer loop
   vertex 96.499748 15.000001 0.500000
   vertex 96.499748 0.501000 4.000000
   vertex 113.089752 9.511001 0.500000
  endloop
 endfacet
 facet normal 0.092523 0.207904 0.973764
  outer loop
   vertex 113.089752 9.511001 0.500000
   vertex 96.499748 0.501000 4.000000
   vertex 114.999748 8.661000 0.500000
  endloop
 endfacet
 facet normal 0.115444 0.158841 0.980532
  outer loop
   vertex 114.999748 8.661000 0.500000
   vertex 96.499748 0.501000 4.000000
   vertex 116.690750 7.432000 0.500000
  endloop
 endfacet
 facet normal 0.147617 -0.015542 0.988922
  outer loop
   vertex 119.999748 0.001000 0.500000
   vertex 96.499748 -0.499000 4.000000
   vertex 119.780746 -2.079000 0.500000
  endloop
 endfacet
 facet normal 0.145365 -0.047236 0.988250
  outer loop
   vertex 119.780746 -2.079000 0.500000
   vertex 96.499748 -0.499000 4.000000
   vertex 119.134750 -4.067000 0.500000
  endloop
 endfacet
 facet normal 0.139866 -0.080765 0.986871
  outer loop
   vertex 118.596748 -4.999000 0.500000
   vertex 96.499748 -0.499000 4.000000
   vertex 118.089752 -5.877000 0.500000
  endloop
 endfacet
 facet normal 0.139871 -0.080741 0.986872
  outer loop
   vertex 119.134750 -4.067000 0.500000
   vertex 96.499748 -0.499000 4.000000
   vertex 118.596748 -4.999000 0.500000
  endloop
 endfacet
 facet normal 0.130364 -0.117362 0.984496
  outer loop
   vertex 118.089752 -5.877000 0.500000
   vertex 96.499748 -0.499000 4.000000
   vertex 116.690750 -7.431001 0.500000
  endloop
 endfacet
 facet normal 0.115439 -0.158834 0.980533
  outer loop
   vertex 116.690750 -7.431001 0.500000
   vertex 96.499748 -0.499000 4.000000
   vertex 114.999748 -8.660001 0.500000
  endloop
 endfacet
 facet normal 0.092518 -0.207892 0.973767
  outer loop
   vertex 114.999748 -8.660001 0.500000
   vertex 96.499748 -0.499000 4.000000
   vertex 113.089752 -9.510000 0.500000
  endloop
 endfacet
 facet normal 0.000000 0.000000 1.000000
  outer loop
   vertex 119.134750 -4.067000 0.500000
   vertex 118.596748 -4.999000 0.500000
   vertex 134.999756 -4.999000 0.500000
  endloop
 endfacet
 facet normal 0.000000 0.000000 1.000000
  outer loop
   vertex 119.780746 -2.079000 0.500000
   vertex 119.134750 -4.067000 0.500000
   vertex 134.999756 5.000000 0.500000
  endloop
 endfacet
 facet normal 0.000000 0.000000 1.000000
  outer loop
   vertex 134.999756 5.000000 0.500000
   vertex 119.134750 -4.067000 0.500000
   vertex 134.999756 -4.999000 0.500000
  endloop
 endfacet
 facet normal 0.000000 0.000000 1.000000
  outer loop
   vertex 118.596748 5.000000 0.500000
   vertex 119.134750 4.068000 0.500000
   vertex 134.999756 5.000000 0.500000
  endloop
 endfacet
 facet normal 0.000000 0.000000 1.000000
  outer loop
   vertex 119.134750 4.068000 0.500000
   vertex 119.780746 2.080000 0.500000
   vertex 134.999756 5.000000 0.500000
  endloop
 endfacet
 facet normal 0.000000 0.000000 1.000000
  outer loop
   vertex 119.780746 2.080000 0.500000
   vertex 119.999748 0.001000 0.500000
   vertex 134.999756 5.000000 0.500000
  endloop
 endfacet
 facet normal 0.000000 0.000000 1.000000
  outer loop
   vertex 119.999748 0.001000 0.500000
   vertex 119.780746 -2.079000 0.500000
   vertex 134.999756 5.000000 0.500000
  endloop
 endfacet
 facet normal -0.036930 -0.234480 0.971419
  outer loop
   vertex 23.932743 -3.928000 0.450000
   vertex 23.932743 -0.303000 1.325000
   vertex 0.076744 -0.237000 0.434000
  endloop
 endfacet
 facet normal -0.136569 0.880963 0.453049
  outer loop
   vertex 71.643745 11.310000 0.484000
   vertex 95.499748 15.000001 0.500000
   vertex 71.662743 11.369000 0.375000
  endloop
 endfacet
 facet normal -0.036928 0.234496 0.971416
  outer loop
   vertex 95.499748 15.000001 0.500000
   vertex 71.643745 4.060000 2.234000
   vertex 95.499748 0.501000 4.000000
  endloop
 endfacet
 facet normal -0.136569 -0.880963 0.453049
  outer loop
   vertex 71.643745 -11.309001 0.484000
   vertex 71.662743 -11.368001 0.375000
   vertex 95.499748 -14.999001 0.500000
  endloop
 endfacet
 facet normal -0.150589 -0.988596 0.000000
  outer loop
   vertex 71.662743 -11.368001 0.125000
   vertex 95.499748 -14.999001 0.500000
   vertex 71.662743 -11.368001 0.375000
  endloop
 endfacet
 facet normal -0.037216 0.000000 0.999307
  outer loop
   vertex -0.202255 -0.146000 0.434000
   vertex 23.722744 -0.014000 1.325000
   vertex -0.202255 0.147000 0.434000
  endloop
 endfacet
 facet normal -0.037216 0.000000 0.999307
  outer loop
   vertex 23.722744 -0.014000 1.325000
   vertex 23.722744 0.236000 1.325000
   vertex -0.202255 0.147000 0.434000
  endloop
 endfacet
 facet normal -0.037395 0.113810 0.992799
  outer loop
   vertex 71.573746 0.412000 3.109000
   vertex 95.499748 0.501000 4.000000
   vertex 71.643745 0.435000 3.109000
  endloop
 endfacet
 facet normal -0.037214 0.000000 0.999307
  outer loop
   vertex 71.573746 0.162000 3.109000
   vertex 95.499748 0.501000 4.000000
   vertex 71.573746 0.412000 3.109000
  endloop
 endfacet
 facet normal -0.037214 0.000000 0.999307
  outer loop
   vertex 71.573746 -0.338000 3.109000
   vertex 71.573746 -0.411000 3.109000
   vertex 95.499748 -0.499000 4.000000
  endloop
 endfacet
 facet normal -0.037395 -0.113810 0.992799
  outer loop
   vertex 23.932743 -0.303000 1.325000
   vertex 23.862743 -0.280000 1.325000
   vertex 0.076744 -0.237000 0.434000
  endloop
 endfacet
 facet normal -0.037395 0.113810 0.992799
  outer loop
   vertex 23.932743 0.304000 1.325000
   vertex 0.076744 0.238000 0.434000
   vertex 23.862743 0.281000 1.325000
  endloop
 endfacet
 facet normal -0.036930 0.234480 0.971419
  outer loop
   vertex 23.932743 3.929000 0.450000
   vertex 0.076744 0.238000 0.434000
   vertex 23.932743 0.304000 1.325000
  endloop
 endfacet
 facet normal -0.037390 -0.113796 0.992800
  outer loop
   vertex 71.573746 -0.411000 3.109000
   vertex 71.643745 -0.434000 3.109000
   vertex 95.499748 -0.499000 4.000000
  endloop
 endfacet
 facet normal -0.036921 -0.234481 0.971419
  outer loop
   vertex 71.643745 -4.059000 2.234000
   vertex 95.499748 -0.499000 4.000000
   vertex 71.643745 -0.434000 3.109000
  endloop
 endfacet
 facet normal -0.036921 -0.234481 0.971419
  outer loop
   vertex 71.643745 -4.059000 2.234000
   vertex 71.643745 -11.309001 0.484000
   vertex 95.499748 -14.999001 0.500000
  endloop
 endfacet
 facet normal -0.036971 -0.234480 0.971418
  outer loop
   vertex 47.787743 -0.368000 2.217000
   vertex 47.787743 -7.618000 0.467000
   vertex 71.643745 -4.059000 2.234000
  endloop
 endfacet
 facet normal -0.036971 0.234480 0.971418
  outer loop
   vertex 47.787743 0.369000 2.217000
   vertex 71.643745 4.060000 2.234000
   vertex 47.787743 7.619000 0.467000
  endloop
 endfacet
 facet normal -0.036921 0.234481 0.971419
  outer loop
   vertex 71.643745 4.060000 2.234000
   vertex 95.499748 15.000001 0.500000
   vertex 71.643745 11.310000 0.484000
  endloop
 endfacet
 facet normal -0.136287 -0.878753 0.457404
  outer loop
   vertex 47.826744 -7.737000 0.250000
   vertex 71.643745 -11.309001 0.484000
   vertex 47.787743 -7.618000 0.467000
  endloop
 endfacet
 facet normal -0.036971 -0.234480 0.971418
  outer loop
   vertex 71.643745 -4.059000 2.234000
   vertex 47.787743 -7.618000 0.467000
   vertex 71.643745 -11.309001 0.484000
  endloop
 endfacet
 facet normal -0.036963 0.234480 0.971418
  outer loop
   vertex 47.787743 0.369000 2.217000
   vertex 47.787743 7.619000 0.467000
   vertex 23.932743 3.929000 0.450000
  endloop
 endfacet
 facet normal -0.036963 -0.234480 0.971418
  outer loop
   vertex 47.787743 -0.368000 2.217000
   vertex 23.932743 -3.928000 0.450000
   vertex 47.787743 -7.618000 0.467000
  endloop
 endfacet
 facet normal -0.136287 0.878754 0.457402
  outer loop
   vertex 47.826744 7.738000 0.250000
   vertex 47.787743 7.619000 0.467000
   vertex 71.643745 11.310000 0.484000
  endloop
 endfacet
 facet normal -0.036971 0.234480 0.971418
  outer loop
   vertex 71.643745 4.060000 2.234000
   vertex 71.643745 11.310000 0.484000
   vertex 47.787743 7.619000 0.467000
  endloop
 endfacet
 facet normal -0.136262 -0.878755 0.457409
  outer loop
   vertex 47.787743 -7.618000 0.467000
   vertex 23.990742 -4.106000 0.125000
   vertex 47.826744 -7.737000 0.250000
  endloop
 endfacet
 facet normal -0.136575 0.880962 0.453048
  outer loop
   vertex 71.643745 11.310000 0.484000
   vertex 71.662743 11.369000 0.375000
   vertex 47.826744 7.738000 0.250000
  endloop
 endfacet
 facet normal -0.150595 0.988595 0.000000
  outer loop
   vertex 71.662743 11.369000 0.125000
   vertex 47.826744 7.738000 0.250000
   vertex 71.662743 11.369000 0.375000
  endloop
 endfacet
 facet normal -0.136575 -0.880962 0.453048
  outer loop
   vertex 71.643745 -11.309001 0.484000
   vertex 47.826744 -7.737000 0.250000
   vertex 71.662743 -11.368001 0.375000
  endloop
 endfacet
 facet normal -0.150595 -0.988596 0.000000
  outer loop
   vertex 71.662743 -11.368001 0.125000
   vertex 71.662743 -11.368001 0.375000
   vertex 47.826744 -7.737000 0.250000
  endloop
 endfacet
 facet normal -0.136262 0.878755 0.457408
  outer loop
   vertex 47.787743 7.619000 0.467000
   vertex 47.826744 7.738000 0.250000
   vertex 23.990742 4.107000 0.125000
  endloop
 endfacet
 facet normal -0.136585 -0.881467 0.452062
  outer loop
   vertex 23.990742 -4.106000 0.125000
   vertex 47.787743 -7.618000 0.467000
   vertex 23.970741 -4.047000 0.234000
  endloop
 endfacet
 facet normal -0.136086 -0.877649 0.459579
  outer loop
   vertex 23.932743 -3.928000 0.450000
   vertex 23.970741 -4.047000 0.234000
   vertex 47.787743 -7.618000 0.467000
  endloop
 endfacet
 facet normal -0.136086 0.877648 0.459580
  outer loop
   vertex 23.932743 3.929000 0.450000
   vertex 47.787743 7.619000 0.467000
   vertex 23.970741 4.048000 0.234000
  endloop
 endfacet
 facet normal -0.136585 0.881467 0.452062
  outer loop
   vertex 23.990742 4.107000 0.125000
   vertex 23.970741 4.048000 0.234000
   vertex 47.787743 7.619000 0.467000
  endloop
 endfacet
 facet normal -0.037214 0.000000 0.999307
  outer loop
   vertex 71.573746 0.162000 3.109000
   vertex 71.573746 -0.338000 3.109000
   vertex 95.499748 -0.499000 4.000000
  endloop
 endfacet
 facet normal -0.037257 0.000000 0.999306
  outer loop
   vertex 47.648743 0.324000 2.217000
   vertex 47.648743 -0.176000 2.217000
   vertex 71.573746 0.162000 3.109000
  endloop
 endfacet
 facet normal -0.037257 0.000000 0.999306
  outer loop
   vertex 47.648743 -0.323000 2.217000
   vertex 71.573746 -0.338000 3.109000
   vertex 47.648743 -0.176000 2.217000
  endloop
 endfacet
 facet normal -0.037257 0.000000 0.999306
  outer loop
   vertex 71.573746 0.162000 3.109000
   vertex 47.648743 -0.176000 2.217000
   vertex 71.573746 -0.338000 3.109000
  endloop
 endfacet
 facet normal -0.037216 0.000000 0.999307
  outer loop
   vertex 23.722744 -0.014000 1.325000
   vertex -0.202255 -0.146000 0.434000
   vertex 23.722744 -0.161000 1.325000
  endloop
 endfacet
 facet normal -0.037256 0.000000 0.999306
  outer loop
   vertex 47.648743 0.324000 2.217000
   vertex 23.722744 -0.014000 1.325000
   vertex 47.648743 -0.176000 2.217000
  endloop
 endfacet
 facet normal -0.037389 0.116320 0.992508
  outer loop
   vertex 23.722744 0.236000 1.325000
   vertex 23.862743 0.281000 1.325000
   vertex 0.076744 0.238000 0.434000
  endloop
 endfacet
 facet normal -0.037256 0.000000 0.999306
  outer loop
   vertex 23.722744 -0.014000 1.325000
   vertex 47.648743 0.324000 2.217000
   vertex 23.722744 0.236000 1.325000
  endloop
 endfacet
 facet normal -0.037256 0.000000 0.999306
  outer loop
   vertex 47.648743 -0.176000 2.217000
   vertex 23.722744 -0.235000 1.325000
   vertex 47.648743 -0.323000 2.217000
  endloop
 endfacet
 facet normal -0.037389 -0.116320 0.992508
  outer loop
   vertex 23.722744 -0.235000 1.325000
   vertex 0.076744 -0.237000 0.434000
   vertex 23.862743 -0.280000 1.325000
  endloop
 endfacet
 facet normal -0.037432 0.115624 0.992588
  outer loop
   vertex 47.787743 0.369000 2.217000
   vertex 47.648743 0.324000 2.217000
   vertex 71.573746 0.412000 3.109000
  endloop
 endfacet
 facet normal -0.037257 0.000000 0.999306
  outer loop
   vertex 71.573746 0.162000 3.109000
   vertex 71.573746 0.412000 3.109000
   vertex 47.648743 0.324000 2.217000
  endloop
 endfacet
 facet normal -0.037257 0.000000 0.999306
  outer loop
   vertex 71.573746 -0.338000 3.109000
   vertex 47.648743 -0.323000 2.217000
   vertex 71.573746 -0.411000 3.109000
  endloop
 endfacet
 facet normal -0.037432 -0.115624 0.992588
  outer loop
   vertex 47.787743 -0.368000 2.217000
   vertex 71.573746 -0.411000 3.109000
   vertex 47.648743 -0.323000 2.217000
  endloop
 endfacet
 facet normal -0.037256 0.000000 0.999306
  outer loop
   vertex 23.722744 -0.235000 1.325000
   vertex 47.648743 -0.176000 2.217000
   vertex 23.722744 -0.161000 1.325000
  endloop
 endfacet
 facet normal -0.037256 0.000000 0.999306
  outer loop
   vertex 23.722744 -0.014000 1.325000
   vertex 23.722744 -0.161000 1.325000
   vertex 47.648743 -0.176000 2.217000
  endloop
 endfacet
 facet normal -0.037436 0.113936 0.992782
  outer loop
   vertex 71.573746 0.412000 3.109000
   vertex 71.643745 0.435000 3.109000
   vertex 47.787743 0.369000 2.217000
  endloop
 endfacet
 facet normal -0.036971 0.234480 0.971418
  outer loop
   vertex 71.643745 4.060000 2.234000
   vertex 47.787743 0.369000 2.217000
   vertex 71.643745 0.435000 3.109000
  endloop
 endfacet
 facet normal -0.037430 -0.115619 0.992588
  outer loop
   vertex 47.648743 -0.323000 2.217000
   vertex 23.932743 -0.303000 1.325000
   vertex 47.787743 -0.368000 2.217000
  endloop
 endfacet
 facet normal -0.036963 -0.234480 0.971418
  outer loop
   vertex 23.932743 -3.928000 0.450000
   vertex 47.787743 -0.368000 2.217000
   vertex 23.932743 -0.303000 1.325000
  endloop
 endfacet
 facet normal -0.037430 0.115618 0.992588
  outer loop
   vertex 47.648743 0.324000 2.217000
   vertex 47.787743 0.369000 2.217000
   vertex 23.932743 0.304000 1.325000
  endloop
 endfacet
 facet normal -0.036963 0.234480 0.971418
  outer loop
   vertex 23.932743 3.929000 0.450000
   vertex 23.932743 0.304000 1.325000
   vertex 47.787743 0.369000 2.217000
  endloop
 endfacet
 facet normal -0.037436 -0.113936 0.992783
  outer loop
   vertex 71.573746 -0.411000 3.109000
   vertex 47.787743 -0.368000 2.217000
   vertex 71.643745 -0.434000 3.109000
  endloop
 endfacet
 facet normal -0.036971 -0.234480 0.971418
  outer loop
   vertex 71.643745 -4.059000 2.234000
   vertex 71.643745 -0.434000 3.109000
   vertex 47.787743 -0.368000 2.217000
  endloop
 endfacet
 facet normal -0.037430 0.116448 0.992491
  outer loop
   vertex 23.722744 0.236000 1.325000
   vertex 47.648743 0.324000 2.217000
   vertex 23.862743 0.281000 1.325000
  endloop
 endfacet
 facet normal -0.037436 0.113936 0.992782
  outer loop
   vertex 23.932743 0.304000 1.325000
   vertex 23.862743 0.281000 1.325000
   vertex 47.648743 0.324000 2.217000
  endloop
 endfacet
 facet normal -0.037430 -0.116448 0.992491
  outer loop
   vertex 23.722744 -0.235000 1.325000
   vertex 23.862743 -0.280000 1.325000
   vertex 47.648743 -0.323000 2.217000
  endloop
 endfacet
 facet normal -0.037436 -0.113936 0.992782
  outer loop
   vertex 23.932743 -0.303000 1.325000
   vertex 47.648743 -0.323000 2.217000
   vertex 23.862743 -0.280000 1.325000
  endloop
 endfacet
 facet normal 0.000000 0.000000 -1.000000
  outer loop
   vertex 0.153564 -0.474453 0.000000
   vertex -0.404793 -0.292662 0.000000
   vertex 0.153564 0.475453 0.000000
  endloop
 endfacet
 facet normal 0.000000 0.000000 -1.000000
  outer loop
   vertex 104.803055 -12.251754 0.000000
   vertex 96.499748 -14.999001 0.000000
   vertex 104.803055 12.252753 0.000000
  endloop
 endfacet
 facet normal 0.000000 0.000000 -1.000000
  outer loop
   vertex 113.089752 -9.510000 0.000000
   vertex 104.803055 -12.251754 0.000000
   vertex 113.089752 9.511001 0.000000
  endloop
 endfacet
 facet normal 0.000000 0.000000 -1.000000
  outer loop
   vertex 96.000244 -14.999001 0.000000
   vertex 95.499748 -14.999001 0.000000
   vertex 96.000244 15.000001 0.000000
  endloop
 endfacet
 facet normal 0.000000 0.000000 -1.000000
  outer loop
   vertex 96.499748 -14.999001 0.000000
   vertex 96.000244 -14.999001 0.000000
   vertex 96.499748 15.000001 0.000000
  endloop
 endfacet
 facet normal 0.000000 0.000000 -1.000000
  outer loop
   vertex 117.390945 -6.653223 0.000000
   vertex 116.690750 -7.431001 0.000000
   vertex 117.390945 6.654222 0.000000
  endloop
 endfacet
 facet normal 0.000000 0.000000 -1.000000
  outer loop
   vertex 118.089752 -5.877000 0.000000
   vertex 117.390945 -6.653223 0.000000
   vertex 118.089752 5.878000 0.000000
  endloop
 endfacet
 facet normal 0.000000 0.000000 -1.000000
  outer loop
   vertex 118.343506 -5.437561 0.000000
   vertex 118.089752 -5.877000 0.000000
   vertex 118.343506 5.438561 0.000000
  endloop
 endfacet
 facet normal 0.000000 0.000000 -1.000000
  outer loop
   vertex 118.596748 -4.999000 0.000000
   vertex 118.343506 -5.437561 0.000000
   vertex 118.596748 5.000000 0.000000
  endloop
 endfacet
 facet normal 0.000000 0.000000 -1.000000
  outer loop
   vertex 115.846100 -8.044886 0.000000
   vertex 114.999748 -8.660001 0.000000
   vertex 115.846100 8.045885 0.000000
  endloop
 endfacet
 facet normal 0.000000 0.000000 -1.000000
  outer loop
   vertex 116.690750 -7.431001 0.000000
   vertex 115.846100 -8.044886 0.000000
   vertex 116.690750 7.432000 0.000000
  endloop
 endfacet
 facet normal 0.000000 0.000000 -1.000000
  outer loop
   vertex 114.045700 -9.084575 0.000000
   vertex 113.089752 -9.510000 0.000000
   vertex 114.045700 9.085575 0.000000
  endloop
 endfacet
 facet normal 0.000000 0.000000 -1.000000
  outer loop
   vertex 114.999748 -8.660001 0.000000
   vertex 114.045700 -9.084575 0.000000
   vertex 114.999748 8.661000 0.000000
  endloop
 endfacet
 facet normal 0.000000 0.000000 -1.000000
  outer loop
   vertex 126.806458 -4.999000 0.000000
   vertex 118.596748 -4.999000 0.000000
   vertex 126.806458 5.000000 0.000000
  endloop
 endfacet
 facet normal 0.000000 0.000000 -1.000000
  outer loop
   vertex 134.999756 0.005504 0.000000
   vertex 126.806458 -4.999000 0.000000
   vertex 134.999756 5.000000 0.000000
  endloop
 endfacet
 facet normal 0.000000 0.000000 -1.000000
  outer loop
   vertex 134.999756 -4.999000 0.000000
   vertex 126.806458 -4.999000 0.000000
   vertex 134.999756 0.005504 0.000000
  endloop
 endfacet
 facet normal 0.000000 0.000000 -1.000000
  outer loop
   vertex 0.206467 -0.482656 0.000000
   vertex 0.153564 -0.474453 0.000000
   vertex 0.206467 0.483656 0.000000
  endloop
 endfacet
 facet normal 0.000000 0.000000 -1.000000
  outer loop
   vertex 95.499748 -14.999001 0.000000
   vertex 76.437782 -12.095365 0.000000
   vertex 95.499748 15.000001 0.000000
  endloop
 endfacet
 facet normal 0.000000 0.000000 -1.000000
  outer loop
   vertex 0.255096 -0.490200 0.000000
   vertex 0.206467 -0.482656 0.000000
   vertex 0.255096 0.491200 0.000000
  endloop
 endfacet
 facet normal 0.000000 0.000000 -1.000000
  outer loop
   vertex 0.342918 -0.503818 0.000000
   vertex 0.255096 -0.490200 0.000000
   vertex 0.342918 0.504817 0.000000
  endloop
 endfacet
 facet normal 0.000000 0.000000 -1.000000
  outer loop
   vertex 23.990742 -4.106000 0.000000
   vertex 0.342918 -0.503818 0.000000
   vertex 23.990742 4.107000 0.000000
  endloop
 endfacet
 facet normal 0.000000 0.000000 -1.000000
  outer loop
   vertex 63.696167 -10.154431 0.000000
   vertex 47.826744 -7.737000 0.000000
   vertex 63.696167 10.155431 0.000000
  endloop
 endfacet
 facet normal 0.000000 0.000000 -1.000000
  outer loop
   vertex 76.437782 -12.095365 0.000000
   vertex 71.662743 -11.368001 0.000000
   vertex 76.437782 12.096365 0.000000
  endloop
 endfacet
 facet normal 0.000000 0.000000 -1.000000
  outer loop
   vertex 47.826744 -7.737000 0.000000
   vertex 31.957321 -5.319570 0.000000
   vertex 47.826744 7.738000 0.000000
  endloop
 endfacet
 facet normal 0.000000 0.000000 -1.000000
  outer loop
   vertex 71.662743 -11.368001 0.000000
   vertex 63.696167 -10.154431 0.000000
   vertex 71.662743 11.369000 0.000000
  endloop
 endfacet
 facet normal 0.000000 0.000000 -1.000000
  outer loop
   vertex 31.957321 -5.319570 0.000000
   vertex 23.990742 -4.106000 0.000000
   vertex 31.893585 5.310861 0.000000
  endloop
 endfacet
 facet normal 0.002342 -0.001703 -0.999996
  outer loop
   vertex -0.405258 0.294000 -0.001000
   vertex 0.153564 0.475453 0.000000
   vertex -0.404793 -0.292662 0.000000
  endloop
 endfacet
 facet normal 0.000000 0.000000 -1.000000
  outer loop
   vertex 96.000244 15.000001 0.000000
   vertex 96.499748 15.000001 0.000000
   vertex 96.000244 -14.999001 0.000000
  endloop
 endfacet
 facet normal 0.000000 0.000000 -1.000000
  outer loop
   vertex 0.153564 0.475453 0.000000
   vertex 0.206467 0.483656 0.000000
   vertex 0.153564 -0.474453 0.000000
  endloop
 endfacet
 facet normal 0.000000 0.000000 -1.000000
  outer loop
   vertex 104.803055 12.252753 0.000000
   vertex 113.089752 9.511001 0.000000
   vertex 104.803055 -12.251754 0.000000
  endloop
 endfacet
 facet normal 0.000000 0.000000 -1.000000
  outer loop
   vertex 96.499748 15.000001 0.000000
   vertex 104.803055 12.252753 0.000000
   vertex 96.499748 -14.999001 0.000000
  endloop
 endfacet
 facet normal 0.000000 0.000000 -1.000000
  outer loop
   vertex 95.499748 15.000001 0.000000
   vertex 96.000244 15.000001 0.000000
   vertex 95.499748 -14.999001 0.000000
  endloop
 endfacet
 facet normal 0.000000 0.000000 -1.000000
  outer loop
   vertex 114.045700 9.085575 0.000000
   vertex 114.999748 8.661000 0.000000
   vertex 114.045700 -9.084575 0.000000
  endloop
 endfacet
 facet normal 0.000000 0.000000 -1.000000
  outer loop
   vertex 115.846100 8.045885 0.000000
   vertex 116.690750 7.432000 0.000000
   vertex 115.846100 -8.044886 0.000000
  endloop
 endfacet
 facet normal 0.000000 0.000000 -1.000000
  outer loop
   vertex 117.390945 6.654222 0.000000
   vertex 118.089752 5.878000 0.000000
   vertex 117.390945 -6.653223 0.000000
  endloop
 endfacet
 facet normal 0.000000 0.000000 -1.000000
  outer loop
   vertex 116.690750 7.432000 0.000000
   vertex 117.390945 6.654222 0.000000
   vertex 116.690750 -7.431001 0.000000
  endloop
 endfacet
 facet normal 0.000000 0.000000 -1.000000
  outer loop
   vertex 118.089752 5.878000 0.000000
   vertex 118.343506 5.438561 0.000000
   vertex 118.089752 -5.877000 0.000000
  endloop
 endfacet
 facet normal 0.000000 0.000000 -1.000000
  outer loop
   vertex 118.343506 5.438561 0.000000
   vertex 118.596748 5.000000 0.000000
   vertex 118.343506 -5.437561 0.000000
  endloop
 endfacet
 facet normal 0.000000 0.000000 -1.000000
  outer loop
   vertex 114.999748 8.661000 0.000000
   vertex 115.846100 8.045885 0.000000
   vertex 114.999748 -8.660001 0.000000
  endloop
 endfacet
 facet normal 0.000000 0.000000 -1.000000
  outer loop
   vertex 126.806458 5.000000 0.000000
   vertex 134.999756 5.000000 0.000000
   vertex 126.806458 -4.999000 0.000000
  endloop
 endfacet
 facet normal 0.000000 0.000000 -1.000000
  outer loop
   vertex 113.089752 9.511001 0.000000
   vertex 114.045700 9.085575 0.000000
   vertex 113.089752 -9.510000 0.000000
  endloop
 endfacet
 facet normal 0.000000 0.000000 -1.000000
  outer loop
   vertex 118.596748 5.000000 0.000000
   vertex 126.806458 5.000000 0.000000
   vertex 118.596748 -4.999000 0.000000
  endloop
 endfacet
 facet normal 0.000000 0.000000 -1.000000
  outer loop
   vertex 0.342918 0.504817 0.000000
   vertex 23.990742 4.107000 0.000000
   vertex 0.342918 -0.503818 0.000000
  endloop
 endfacet
 facet normal 0.000000 0.000000 -1.000000
  outer loop
   vertex 0.206467 0.483656 0.000000
   vertex 0.255096 0.491200 0.000000
   vertex 0.206467 -0.482656 0.000000
  endloop
 endfacet
 facet normal 0.000000 0.000000 -1.000000
  outer loop
   vertex 0.255096 0.491200 0.000000
   vertex 0.342918 0.504817 0.000000
   vertex 0.255096 -0.490200 0.000000
  endloop
 endfacet
 facet normal 0.000000 0.000000 -1.000000
  outer loop
   vertex 76.437782 12.096365 0.000000
   vertex 95.499748 15.000001 0.000000
   vertex 76.437782 -12.095365 0.000000
  endloop
 endfacet
 facet normal 0.000000 0.000000 -1.000000
  outer loop
   vertex 23.990742 4.107000 0.000000
   vertex 31.893585 5.310861 0.000000
   vertex 23.990742 -4.106000 0.000000
  endloop
 endfacet
 facet normal 0.000000 0.000000 -1.000000
  outer loop
   vertex 47.826744 7.738000 0.000000
   vertex 63.696167 10.155431 0.000000
   vertex 47.826744 -7.737000 0.000000
  endloop
 endfacet
 facet normal 0.000000 0.000000 -1.000000
  outer loop
   vertex 63.696167 10.155431 0.000000
   vertex 71.662743 11.369000 0.000000
   vertex 63.696167 -10.154431 0.000000
  endloop
 endfacet
 facet normal 0.000000 0.000000 -1.000000
  outer loop
   vertex 71.662743 11.369000 0.000000
   vertex 76.437782 12.096365 0.000000
   vertex 71.662743 -11.368001 0.000000
  endloop
 endfacet
 facet normal 0.000000 0.000000 -1.000000
  outer loop
   vertex 31.893585 5.310861 0.000000
   vertex 47.826744 7.738000 0.000000
   vertex 31.957321 -5.319570 0.000000
  endloop
 endfacet
 facet normal -0.906180 0.000002 0.422892
  outer loop
   vertex -0.405258 0.294000 -0.001000
   vertex -0.404793 -0.292662 0.000000
   vertex -0.202255 -0.146000 0.434000
  endloop
 endfacet
 facet normal -0.906181 0.000000 0.422890
  outer loop
   vertex -0.405258 0.294000 -0.001000
   vertex -0.202255 -0.146000 0.434000
   vertex -0.202255 0.147000 0.434000
  endloop
 endfacet
 facet normal -0.281070 -0.861740 0.422378
  outer loop
   vertex 0.076744 -0.237000 0.434000
   vertex -0.202255 -0.146000 0.434000
   vertex -0.404793 -0.292662 0.000000
  endloop
 endfacet
 facet normal -0.280673 -0.862066 0.421978
  outer loop
   vertex -0.404793 -0.292662 0.000000
   vertex 0.153564 -0.474453 0.000000
   vertex 0.076744 -0.237000 0.434000
  endloop
 endfacet
 facet normal -0.280673 0.862066 0.421978
  outer loop
   vertex 0.153564 0.475453 0.000000
   vertex -0.405258 0.294000 -0.001000
   vertex 0.076744 0.238000 0.434000
  endloop
 endfacet
 facet normal -0.281070 0.861741 0.422377
  outer loop
   vertex -0.202255 0.147000 0.434000
   vertex 0.076744 0.238000 0.434000
   vertex -0.405258 0.294000 -0.001000
  endloop
 endfacet
 facet normal -0.136660 -0.881464 0.452047
  outer loop
   vertex 23.990742 -4.106000 0.125000
   vertex 23.970741 -4.047000 0.234000
   vertex 0.255096 -0.490200 0.000000
  endloop
 endfacet
 facet normal -0.136459 -0.880050 0.454853
  outer loop
   vertex 23.990742 -4.106000 0.125000
   vertex 0.255096 -0.490200 0.000000
   vertex 0.342918 -0.503818 0.000000
  endloop
 endfacet
 facet normal -0.150589 -0.988596 0.000000
  outer loop
   vertex 76.437782 -12.095365 0.000000
   vertex 95.499748 -14.999001 0.000000
   vertex 95.499748 -14.999001 0.500000
  endloop
 endfacet
 facet normal -0.150589 -0.988596 0.000001
  outer loop
   vertex 76.437782 -12.095365 0.000000
   vertex 95.499748 -14.999001 0.500000
   vertex 71.662743 -11.368001 0.125000
  endloop
 endfacet
 facet normal 0.000000 -1.000000 0.000000
  outer loop
   vertex 95.499748 -14.999001 0.000000
   vertex 96.000244 -14.999001 0.000000
   vertex 95.499748 -14.999001 0.500000
  endloop
 endfacet
 facet normal 0.000000 -1.000000 0.000000
  outer loop
   vertex 96.499748 -14.999001 0.500000
   vertex 95.499748 -14.999001 0.500000
   vertex 96.000244 -14.999001 0.000000
  endloop
 endfacet
 facet normal 0.000000 -1.000000 0.000000
  outer loop
   vertex 96.499748 -14.999001 0.500000
   vertex 96.000244 -14.999001 0.000000
   vertex 96.499748 -14.999001 0.000000
  endloop
 endfacet
 facet normal -0.136313 0.879051 0.456824
  outer loop
   vertex 0.206467 0.483656 0.000000
   vertex 0.153564 0.475453 0.000000
   vertex 0.076744 0.238000 0.434000
  endloop
 endfacet
 facet normal -0.136313 0.879051 0.456824
  outer loop
   vertex 0.206467 0.483656 0.000000
   vertex 0.076744 0.238000 0.434000
   vertex 23.932743 3.929000 0.450000
  endloop
 endfacet
 facet normal 0.314115 -0.949385 0.000000
  outer loop
   vertex 96.499748 -14.999001 0.000000
   vertex 104.803055 -12.251754 0.000000
   vertex 96.499748 -14.999001 0.500000
  endloop
 endfacet
 facet normal 0.314115 -0.949385 0.000002
  outer loop
   vertex 113.089752 -9.510000 0.500000
   vertex 96.499748 -14.999001 0.500000
   vertex 104.803055 -12.251754 0.000000
  endloop
 endfacet
 facet normal 0.314115 -0.949385 0.000000
  outer loop
   vertex 113.089752 -9.510000 0.500000
   vertex 104.803055 -12.251754 0.000000
   vertex 113.089752 -9.510000 0.000000
  endloop
 endfacet
 facet normal 0.314115 0.949385 0.000000
  outer loop
   vertex 104.803055 12.252753 0.000000
   vertex 96.499748 15.000001 0.000000
   vertex 96.499748 15.000001 0.500000
  endloop
 endfacet
 facet normal 0.314115 0.949385 0.000001
  outer loop
   vertex 113.089752 9.511001 0.000000
   vertex 104.803055 12.252753 0.000000
   vertex 96.499748 15.000001 0.500000
  endloop
 endfacet
 facet normal 0.314115 0.949385 0.000000
  outer loop
   vertex 113.089752 9.511001 0.000000
   vertex 96.499748 15.000001 0.500000
   vertex 113.089752 9.511001 0.500000
  endloop
 endfacet
 facet normal 0.000000 1.000000 0.000000
  outer loop
   vertex 96.000244 15.000001 0.000000
   vertex 95.499748 15.000001 0.000000
   vertex 95.499748 15.000001 0.500000
  endloop
 endfacet
 facet normal 0.000000 1.000000 0.000000
  outer loop
   vertex 96.499748 15.000001 0.000000
   vertex 96.000244 15.000001 0.000000
   vertex 95.499748 15.000001 0.500000
  endloop
 endfacet
 facet normal 0.000000 1.000000 0.000000
  outer loop
   vertex 96.499748 15.000001 0.000000
   vertex 95.499748 15.000001 0.500000
   vertex 96.499748 15.000001 0.500000
  endloop
 endfacet
 facet normal 0.406585 -0.913613 0.000000
  outer loop
   vertex 113.089752 -9.510000 0.000000
   vertex 114.045700 -9.084575 0.000000
   vertex 113.089752 -9.510000 0.500000
  endloop
 endfacet
 facet normal 0.406583 -0.913614 -0.000006
  outer loop
   vertex 114.999748 -8.660001 0.500000
   vertex 113.089752 -9.510000 0.500000
   vertex 114.045700 -9.084575 0.000000
  endloop
 endfacet
 facet normal 0.406580 -0.913615 0.000000
  outer loop
   vertex 114.999748 -8.660001 0.500000
   vertex 114.045700 -9.084575 0.000000
   vertex 114.999748 -8.660001 0.000000
  endloop
 endfacet
 facet normal 0.587913 -0.808924 0.000000
  outer loop
   vertex 114.999748 -8.660001 0.000000
   vertex 115.846100 -8.044886 0.000000
   vertex 114.999748 -8.660001 0.500000
  endloop
 endfacet
 facet normal 0.587915 -0.808923 0.000005
  outer loop
   vertex 116.690750 -7.431001 0.500000
   vertex 114.999748 -8.660001 0.500000
   vertex 115.846100 -8.044886 0.000000
  endloop
 endfacet
 facet normal 0.587917 -0.808921 0.000000
  outer loop
   vertex 116.690750 -7.431001 0.500000
   vertex 115.846100 -8.044886 0.000000
   vertex 116.690750 -7.431001 0.000000
  endloop
 endfacet
 facet normal 0.743201 -0.669068 0.000000
  outer loop
   vertex 116.690750 -7.431001 0.000000
   vertex 117.390945 -6.653223 0.000000
   vertex 116.690750 -7.431001 0.500000
  endloop
 endfacet
 facet normal 0.743199 -0.669071 -0.000009
  outer loop
   vertex 118.089752 -5.877000 0.500000
   vertex 116.690750 -7.431001 0.500000
   vertex 117.390945 -6.653223 0.000000
  endloop
 endfacet
 facet normal 0.743196 -0.669074 0.000000
  outer loop
   vertex 118.089752 -5.877000 0.500000
   vertex 117.390945 -6.653223 0.000000
   vertex 118.089752 -5.877000 0.000000
  endloop
 endfacet
 facet normal 0.865988 -0.500064 0.000000
  outer loop
   vertex 118.089752 -5.877000 0.000000
   vertex 118.343506 -5.437561 0.000000
   vertex 118.089752 -5.877000 0.500000
  endloop
 endfacet
 facet normal 0.865990 -0.500061 0.000003
  outer loop
   vertex 118.596748 -4.999000 0.500000
   vertex 118.089752 -5.877000 0.500000
   vertex 118.343506 -5.437561 0.000000
  endloop
 endfacet
 facet normal 0.865992 -0.500058 0.000000
  outer loop
   vertex 118.596748 -4.999000 0.500000
   vertex 118.343506 -5.437561 0.000000
   vertex 118.596748 -4.999000 0.000000
  endloop
 endfacet
 facet normal 0.000000 -1.000000 0.000000
  outer loop
   vertex 118.596748 -4.999000 0.000000
   vertex 126.806458 -4.999000 0.000000
   vertex 118.596748 -4.999000 0.500000
  endloop
 endfacet
 facet normal 0.000000 -1.000000 0.000000
  outer loop
   vertex 134.999756 -4.999000 0.500000
   vertex 118.596748 -4.999000 0.500000
   vertex 126.806458 -4.999000 0.000000
  endloop
 endfacet
 facet normal 0.000000 -1.000000 0.000000
  outer loop
   vertex 134.999756 -4.999000 0.500000
   vertex 126.806458 -4.999000 0.000000
   vertex 134.999756 -4.999000 0.000000
  endloop
 endfacet
 facet normal 0.743201 0.669068 0.000000
  outer loop
   vertex 117.390945 6.654222 0.000000
   vertex 116.690750 7.432000 0.000000
   vertex 116.690750 7.432000 0.500000
  endloop
 endfacet
 facet normal 0.743199 0.669071 0.000000
  outer loop
   vertex 116.690750 7.432000 0.500000
   vertex 118.089752 5.878000 0.500000
   vertex 118.089752 5.878000 0.000000
  endloop
 endfacet
 facet normal 0.743196 0.669074 -0.000017
  outer loop
   vertex 116.690750 7.432000 0.500000
   vertex 118.089752 5.878000 0.000000
   vertex 117.390945 6.654222 0.000000
  endloop
 endfacet
 facet normal 0.865988 0.500064 0.000000
  outer loop
   vertex 118.343506 5.438561 0.000000
   vertex 118.089752 5.878000 0.000000
   vertex 118.089752 5.878000 0.500000
  endloop
 endfacet
 facet normal 0.865990 0.500061 0.000000
  outer loop
   vertex 118.089752 5.878000 0.500000
   vertex 118.596748 5.000000 0.500000
   vertex 118.596748 5.000000 0.000000
  endloop
 endfacet
 facet normal 0.865992 0.500058 0.000007
  outer loop
   vertex 118.089752 5.878000 0.500000
   vertex 118.596748 5.000000 0.000000
   vertex 118.343506 5.438561 0.000000
  endloop
 endfacet
 facet normal 0.587913 0.808924 0.000000
  outer loop
   vertex 115.846100 8.045885 0.000000
   vertex 114.999748 8.661000 0.000000
   vertex 114.999748 8.661000 0.500000
  endloop
 endfacet
 facet normal 0.587917 0.808921 0.000010
  outer loop
   vertex 116.690750 7.432000 0.000000
   vertex 115.846100 8.045885 0.000000
   vertex 114.999748 8.661000 0.500000
  endloop
 endfacet
 facet normal 0.587915 0.808923 0.000000
  outer loop
   vertex 116.690750 7.432000 0.000000
   vertex 114.999748 8.661000 0.500000
   vertex 116.690750 7.432000 0.500000
  endloop
 endfacet
 facet normal 0.406585 0.913613 0.000000
  outer loop
   vertex 114.045700 9.085575 0.000000
   vertex 113.089752 9.511001 0.000000
   vertex 113.089752 9.511001 0.500000
  endloop
 endfacet
 facet normal 0.406581 0.913615 -0.000010
  outer loop
   vertex 114.999748 8.661000 0.000000
   vertex 114.045700 9.085575 0.000000
   vertex 113.089752 9.511001 0.500000
  endloop
 endfacet
 facet normal 0.406583 0.913614 0.000000
  outer loop
   vertex 114.999748 8.661000 0.000000
   vertex 113.089752 9.511001 0.500000
   vertex 114.999748 8.661000 0.500000
  endloop
 endfacet
 facet normal 0.000000 1.000000 0.000000
  outer loop
   vertex 126.806458 5.000000 0.000000
   vertex 118.596748 5.000000 0.000000
   vertex 118.596748 5.000000 0.500000
  endloop
 endfacet
 facet normal 0.000000 1.000000 0.000000
  outer loop
   vertex 134.999756 5.000000 0.000000
   vertex 126.806458 5.000000 0.000000
   vertex 118.596748 5.000000 0.500000
  endloop
 endfacet
 facet normal 0.000000 1.000000 0.000000
  outer loop
   vertex 134.999756 5.000000 0.000000
   vertex 118.596748 5.000000 0.500000
   vertex 134.999756 5.000000 0.500000
  endloop
 endfacet
 facet normal 1.000000 0.000000 0.000000
  outer loop
   vertex 134.999756 -4.999000 0.000000
   vertex 134.999756 0.005504 0.000000
   vertex 134.999756 -4.999000 0.500000
  endloop
 endfacet
 facet normal 1.000000 0.000000 0.000000
  outer loop
   vertex 134.999756 5.000000 0.500000
   vertex 134.999756 -4.999000 0.500000
   vertex 134.999756 0.005504 0.000000
  endloop
 endfacet
 facet normal 1.000000 0.000000 0.000000
  outer loop
   vertex 134.999756 5.000000 0.500000
   vertex 134.999756 0.005504 0.000000
   vertex 134.999756 5.000000 0.000000
  endloop
 endfacet
 facet normal -0.136312 -0.879038 0.456849
  outer loop
   vertex 0.153564 -0.474453 0.000000
   vertex 0.206467 -0.482656 0.000000
   vertex 23.932743 -3.928000 0.450000
  endloop
 endfacet
 facet normal -0.136313 -0.879051 0.456824
  outer loop
   vertex 0.153564 -0.474453 0.000000
   vertex 23.932743 -3.928000 0.450000
   vertex 0.076744 -0.237000 0.434000
  endloop
 endfacet
 facet normal -0.150589 -0.988596 0.000000
  outer loop
   vertex 0.342918 -0.503818 0.000000
   vertex 23.990742 -4.106000 0.000000
   vertex 23.990742 -4.106000 0.125000
  endloop
 endfacet
 facet normal -0.150589 0.988596 0.000009
  outer loop
   vertex 95.499748 15.000001 0.000000
   vertex 76.437782 12.096365 0.000000
   vertex 71.662743 11.369000 0.125000
  endloop
 endfacet
 facet normal -0.150589 0.988596 0.000000
  outer loop
   vertex 95.499748 15.000001 0.000000
   vertex 71.662743 11.369000 0.125000
   vertex 95.499748 15.000001 0.500000
  endloop
 endfacet
 facet normal -0.136659 0.881463 0.452047
  outer loop
   vertex 23.970741 4.048000 0.234000
   vertex 23.990742 4.107000 0.125000
   vertex 0.342918 0.504817 0.000000
  endloop
 endfacet
 facet normal -0.136561 0.880708 0.453546
  outer loop
   vertex 23.970741 4.048000 0.234000
   vertex 0.342918 0.504817 0.000000
   vertex 0.255096 0.491200 0.000000
  endloop
 endfacet
 facet normal -0.150589 0.988596 0.000000
  outer loop
   vertex 23.990742 4.107000 0.000000
   vertex 0.342918 0.504817 0.000000
   vertex 23.990742 4.107000 0.125000
  endloop
 endfacet
 facet normal -0.136161 0.877645 0.459565
  outer loop
   vertex 23.932743 3.929000 0.450000
   vertex 23.970741 4.048000 0.234000
   vertex 0.255096 0.491200 0.000000
  endloop
 endfacet
 facet normal -0.136194 0.877951 0.458970
  outer loop
   vertex 23.932743 3.929000 0.450000
   vertex 0.255096 0.491200 0.000000
   vertex 0.206467 0.483656 0.000000
  endloop
 endfacet
 facet normal -0.136161 -0.877645 0.459564
  outer loop
   vertex 23.970741 -4.047000 0.234000
   vertex 23.932743 -3.928000 0.450000
   vertex 0.206467 -0.482656 0.000000
  endloop
 endfacet
 facet normal -0.136261 -0.878408 0.458074
  outer loop
   vertex 23.970741 -4.047000 0.234000
   vertex 0.206467 -0.482656 0.000000
   vertex 0.255096 -0.490200 0.000000
  endloop
 endfacet
 facet normal -0.150589 -0.988596 0.000000
  outer loop
   vertex 71.662743 -11.368001 0.000000
   vertex 76.437782 -12.095365 0.000000
   vertex 71.662743 -11.368001 0.125000
  endloop
 endfacet
 facet normal -0.150595 -0.988596 0.000000
  outer loop
   vertex 71.662743 -11.368001 0.125000
   vertex 47.826744 -7.737000 0.250000
   vertex 47.826744 -7.737000 0.000000
  endloop
 endfacet
 facet normal -0.150595 -0.988595 -0.000002
  outer loop
   vertex 71.662743 -11.368001 0.125000
   vertex 47.826744 -7.737000 0.000000
   vertex 63.696167 -10.154431 0.000000
  endloop
 endfacet
 facet normal -0.150595 0.988596 -0.000002
  outer loop
   vertex 47.826744 7.738000 0.250000
   vertex 71.662743 11.369000 0.125000
   vertex 63.696167 10.155431 0.000000
  endloop
 endfacet
 facet normal -0.150595 0.988595 0.000000
  outer loop
   vertex 47.826744 7.738000 0.250000
   vertex 63.696167 10.155431 0.000000
   vertex 47.826744 7.738000 0.000000
  endloop
 endfacet
 facet normal -0.150589 0.988596 0.000000
  outer loop
   vertex 76.437782 12.096365 0.000000
   vertex 71.662743 11.369000 0.000000
   vertex 71.662743 11.369000 0.125000
  endloop
 endfacet
 facet normal -0.150595 -0.988595 0.000000
  outer loop
   vertex 31.957321 -5.319570 0.000000
   vertex 47.826744 -7.737000 0.000000
   vertex 47.826744 -7.737000 0.250000
  endloop
 endfacet
 facet normal -0.150595 -0.988596 -0.000003
  outer loop
   vertex 31.957321 -5.319570 0.000000
   vertex 47.826744 -7.737000 0.250000
   vertex 23.990742 -4.106000 0.125000
  endloop
 endfacet
 facet normal -0.150595 0.988596 0.000000
  outer loop
   vertex 47.826744 7.738000 0.000000
   vertex 31.893585 5.310861 0.000000
   vertex 47.826744 7.738000 0.250000
  endloop
 endfacet
 facet normal -0.150595 -0.988595 0.000000
  outer loop
   vertex 63.696167 -10.154431 0.000000
   vertex 71.662743 -11.368001 0.000000
   vertex 71.662743 -11.368001 0.125000
  endloop
 endfacet
 facet normal -0.150595 -0.988596 0.000000
  outer loop
   vertex 23.990742 -4.106000 0.000000
   vertex 31.957321 -5.319570 0.000000
   vertex 23.990742 -4.106000 0.125000
  endloop
 endfacet
 facet normal -0.150595 0.988595 0.000000
  outer loop
   vertex 71.662743 11.369000 0.000000
   vertex 63.696167 10.155431 0.000000
   vertex 71.662743 11.369000 0.125000
  endloop
 endfacet
 facet normal -0.150595 0.988596 0.000000
  outer loop
   vertex 31.893585 5.310861 0.000000
   vertex 23.990742 4.107000 0.000000
   vertex 23.990742 4.107000 0.125000
  endloop
 endfacet
 facet normal -0.150595 0.988595 0.000001
  outer loop
   vertex 31.893585 5.310861 0.000000
   vertex 23.990742 4.107000 0.125000
   vertex 47.826744 7.738000 0.250000
  endloop
 endfacet
endsolid SpearTip (Cut 2)
